<svg width="26" height="24" viewBox="0 0 26 24" fill="none" xmlns="http://www.w3.org/2000/svg">
<path d="M23 5.75H18V3.25L15.5 0.75H10.5L8 3.25V5.75H3C1.625 5.75 0.5 6.875 0.5 8.25V14.5C0.5 15.4375 1 16.225 1.75 16.6625V20.75C1.75 22.1375 2.8625 23.25 4.25 23.25H21.75C23.1375 23.25 24.25 22.1375 24.25 20.75V16.65C24.9875 16.2125 25.5 15.4125 25.5 14.5V8.25C25.5 6.875 24.375 5.75 23 5.75ZM10.5 3.25H15.5V5.75H10.5V3.25ZM3 8.25H23V14.5H16.75V10.75H9.25V14.5H3V8.25ZM14.25 15.75H11.75V13.25H14.25V15.75ZM21.75 20.75H4.25V17H9.25V18.25H16.75V17H21.75V20.75Z" fill="black"/>
<path d="M23 5.75H18V3.25L15.5 0.75H10.5L8 3.25V5.75H3C1.625 5.75 0.5 6.875 0.5 8.25V14.5C0.5 15.4375 1 16.225 1.75 16.6625V20.75C1.75 22.1375 2.8625 23.25 4.25 23.25H21.75C23.1375 23.25 24.25 22.1375 24.25 20.75V16.65C24.9875 16.2125 25.5 15.4125 25.5 14.5V8.25C25.5 6.875 24.375 5.75 23 5.75ZM10.5 3.25H15.5V5.75H10.5V3.25ZM3 8.25H23V14.5H16.75V10.75H9.25V14.5H3V8.25ZM14.25 15.75H11.75V13.25H14.25V15.75ZM21.75 20.75H4.25V17H9.25V18.25H16.75V17H21.75V20.75Z" fill="url(#paint0_linear_581_16726)"/>
<defs>
<linearGradient id="paint0_linear_581_16726" x1="-7.68452" y1="34.5" x2="30.5784" y2="34.2282" gradientUnits="userSpaceOnUse">
<stop stop-color="#8F5E25"/>
<stop offset="0.5" stop-color="#FBF4A1"/>
<stop offset="1" stop-color="#8F5E25"/>
</linearGradient>
</defs>
</svg>
