<svg width="27" height="27" viewBox="0 0 27 27" fill="none" xmlns="http://www.w3.org/2000/svg">
<path d="M25.2329 9.52461C26.7434 8.01419 26.0546 6.25003 25.2329 5.39211L21.6079 1.76711C20.0854 0.256693 18.3334 0.945443 17.4754 1.76711L15.4213 3.83336H12.2917C9.99586 3.83336 8.66669 5.04169 7.99003 6.43128L2.62503 11.7963V16.6296L1.76711 17.4754C0.256693 18.9979 0.945443 20.75 1.76711 21.6079L5.39211 25.2329C6.04461 25.8854 6.74544 26.1271 7.41003 26.1271C8.26794 26.1271 9.05336 25.7042 9.52461 25.2329L12.7871 21.9584H17.125C19.1792 21.9584 20.2184 20.6775 20.5929 19.4209C21.9584 19.0584 22.7075 18.0192 23.0096 17.0042C24.8825 16.5209 25.5834 14.7446 25.5834 13.5V9.87503H24.8704L25.2329 9.52461ZM23.1667 13.5C23.1667 14.0438 22.9371 14.7084 21.9584 14.7084H20.75V15.9167C20.75 16.4604 20.5204 17.125 19.5417 17.125H18.3334V18.3334C18.3334 18.8771 18.1038 19.5417 17.125 19.5417H11.7963L7.83294 23.505C7.45836 23.8554 7.24086 23.65 7.10794 23.5171L3.49503 19.9163C3.14461 19.5417 3.35003 19.3242 3.48294 19.1913L5.04169 17.6204V12.7871L7.45836 10.3704V12.2917C7.45836 13.7538 8.42503 15.9167 11.0834 15.9167C13.7417 15.9167 14.7084 13.7538 14.7084 12.2917H23.1667V13.5ZM23.5171 7.80878L21.4629 9.87503H12.2917V12.2917C12.2917 12.8354 12.0621 13.5 11.0834 13.5C10.1046 13.5 9.87503 12.8354 9.87503 12.2917V8.66669C9.87503 8.11086 10.0804 6.25003 12.2917 6.25003H16.4121L19.1671 3.49503C19.5417 3.14461 19.7592 3.35003 19.8921 3.48294L23.505 7.08378C23.8554 7.45836 23.65 7.67586 23.5171 7.80878Z" fill="black"/>
<path d="M25.2329 9.52461C26.7434 8.01419 26.0546 6.25003 25.2329 5.39211L21.6079 1.76711C20.0854 0.256693 18.3334 0.945443 17.4754 1.76711L15.4213 3.83336H12.2917C9.99586 3.83336 8.66669 5.04169 7.99003 6.43128L2.62503 11.7963V16.6296L1.76711 17.4754C0.256693 18.9979 0.945443 20.75 1.76711 21.6079L5.39211 25.2329C6.04461 25.8854 6.74544 26.1271 7.41003 26.1271C8.26794 26.1271 9.05336 25.7042 9.52461 25.2329L12.7871 21.9584H17.125C19.1792 21.9584 20.2184 20.6775 20.5929 19.4209C21.9584 19.0584 22.7075 18.0192 23.0096 17.0042C24.8825 16.5209 25.5834 14.7446 25.5834 13.5V9.87503H24.8704L25.2329 9.52461ZM23.1667 13.5C23.1667 14.0438 22.9371 14.7084 21.9584 14.7084H20.75V15.9167C20.75 16.4604 20.5204 17.125 19.5417 17.125H18.3334V18.3334C18.3334 18.8771 18.1038 19.5417 17.125 19.5417H11.7963L7.83294 23.505C7.45836 23.8554 7.24086 23.65 7.10794 23.5171L3.49503 19.9163C3.14461 19.5417 3.35003 19.3242 3.48294 19.1913L5.04169 17.6204V12.7871L7.45836 10.3704V12.2917C7.45836 13.7538 8.42503 15.9167 11.0834 15.9167C13.7417 15.9167 14.7084 13.7538 14.7084 12.2917H23.1667V13.5ZM23.5171 7.80878L21.4629 9.87503H12.2917V12.2917C12.2917 12.8354 12.0621 13.5 11.0834 13.5C10.1046 13.5 9.87503 12.8354 9.87503 12.2917V8.66669C9.87503 8.11086 10.0804 6.25003 12.2917 6.25003H16.4121L19.1671 3.49503C19.5417 3.14461 19.7592 3.35003 19.8921 3.48294L23.505 7.08378C23.8554 7.45836 23.65 7.67586 23.5171 7.80878Z" fill="url(#paint0_linear_581_16730)"/>
<defs>
<linearGradient id="paint0_linear_581_16730" x1="-7.3926" y1="38.7535" x2="31.2557" y2="38.5065" gradientUnits="userSpaceOnUse">
<stop stop-color="#8F5E25"/>
<stop offset="0.5" stop-color="#FBF4A1"/>
<stop offset="1" stop-color="#8F5E25"/>
</linearGradient>
</defs>
</svg>
