<svg width="12" height="12" viewBox="0 0 12 12" fill="none" xmlns="http://www.w3.org/2000/svg">
<path d="M7.66412 4.32611H10.3359C10.5598 4.32611 10.7735 4.37197 10.9771 4.46369C11.1807 4.55541 11.3588 4.67771 11.5114 4.83057C11.6641 4.98344 11.7812 5.16688 11.8626 5.38089C11.9542 5.58471 12 5.80382 12 6.03822C12 6.27261 11.9542 6.49172 11.8626 6.69554C11.7812 6.88917 11.6641 7.05732 11.5114 7.2C11.3588 7.34267 11.1807 7.45987 10.9771 7.55159C10.7735 7.63312 10.5598 7.67388 10.3359 7.67388H7.66412V10.3338C7.66412 10.5682 7.61832 10.7873 7.52672 10.9911C7.44529 11.1949 7.32824 11.3732 7.17557 11.5261C7.03308 11.6688 6.86005 11.786 6.65649 11.8777C6.45293 11.9592 6.23919 12 6.01527 12C5.78117 12 5.55725 11.9592 5.34351 11.8777C5.13995 11.786 4.96183 11.6688 4.80916 11.5261C4.65649 11.3732 4.53435 11.1949 4.44275 10.9911C4.36132 10.7873 4.32061 10.5682 4.32061 10.3338V7.67388H1.66412C1.43003 7.67388 1.2112 7.63312 1.00763 7.55159C0.814249 7.45987 0.641221 7.34267 0.48855 7.2C0.335878 7.04713 0.21374 6.86879 0.122137 6.66497C0.0407125 6.46115 0 6.24204 0 6.00764C0 5.78344 0.0407125 5.56943 0.122137 5.3656C0.21374 5.16178 0.335878 4.98344 0.48855 4.83057C0.641221 4.67771 0.814249 4.55541 1.00763 4.46369C1.2112 4.37197 1.43003 4.32611 1.66412 4.32611H4.32061V1.66624C4.32061 1.43185 4.36641 1.21274 4.45801 1.00892C4.54962 0.805095 4.67176 0.631846 4.82443 0.489171C4.9771 0.336305 5.15522 0.219108 5.35878 0.137579C5.56234 0.0458596 5.78117 0 6.01527 0C6.23919 0 6.45293 0.0458596 6.65649 0.137579C6.86005 0.219108 7.03308 0.336305 7.17557 0.489171C7.32824 0.631846 7.44529 0.805095 7.52672 1.00892C7.61832 1.21274 7.66412 1.43185 7.66412 1.66624V4.32611Z" fill="#272727"/>
<path d="M7.66412 4.32611H10.3359C10.5598 4.32611 10.7735 4.37197 10.9771 4.46369C11.1807 4.55541 11.3588 4.67771 11.5114 4.83057C11.6641 4.98344 11.7812 5.16688 11.8626 5.38089C11.9542 5.58471 12 5.80382 12 6.03822C12 6.27261 11.9542 6.49172 11.8626 6.69554C11.7812 6.88917 11.6641 7.05732 11.5114 7.2C11.3588 7.34267 11.1807 7.45987 10.9771 7.55159C10.7735 7.63312 10.5598 7.67388 10.3359 7.67388H7.66412V10.3338C7.66412 10.5682 7.61832 10.7873 7.52672 10.9911C7.44529 11.1949 7.32824 11.3732 7.17557 11.5261C7.03308 11.6688 6.86005 11.786 6.65649 11.8777C6.45293 11.9592 6.23919 12 6.01527 12C5.78117 12 5.55725 11.9592 5.34351 11.8777C5.13995 11.786 4.96183 11.6688 4.80916 11.5261C4.65649 11.3732 4.53435 11.1949 4.44275 10.9911C4.36132 10.7873 4.32061 10.5682 4.32061 10.3338V7.67388H1.66412C1.43003 7.67388 1.2112 7.63312 1.00763 7.55159C0.814249 7.45987 0.641221 7.34267 0.48855 7.2C0.335878 7.04713 0.21374 6.86879 0.122137 6.66497C0.0407125 6.46115 0 6.24204 0 6.00764C0 5.78344 0.0407125 5.56943 0.122137 5.3656C0.21374 5.16178 0.335878 4.98344 0.48855 4.83057C0.641221 4.67771 0.814249 4.55541 1.00763 4.46369C1.2112 4.37197 1.43003 4.32611 1.66412 4.32611H4.32061V1.66624C4.32061 1.43185 4.36641 1.21274 4.45801 1.00892C4.54962 0.805095 4.67176 0.631846 4.82443 0.489171C4.9771 0.336305 5.15522 0.219108 5.35878 0.137579C5.56234 0.0458596 5.78117 0 6.01527 0C6.23919 0 6.45293 0.0458596 6.65649 0.137579C6.86005 0.219108 7.03308 0.336305 7.17557 0.489171C7.32824 0.631846 7.44529 0.805095 7.52672 1.00892C7.61832 1.21274 7.66412 1.43185 7.66412 1.66624V4.32611Z" fill="url(#paint0_linear_598_9)"/>
<defs>
<linearGradient id="paint0_linear_598_9" x1="-0.65529" y1="16.9412" x2="14.431" y2="16.8553" gradientUnits="userSpaceOnUse">
<stop stop-color="#8F5E25"/>
<stop offset="0.261057" stop-color="#FBF4A1"/>
<stop offset="0.500202" stop-color="#8F5E25"/>
</linearGradient>
</defs>
</svg>
