<svg width="30" height="22" viewBox="0 0 30 22" fill="none" xmlns="http://www.w3.org/2000/svg">
<path d="M18.8392 13.6052L25.5669 10.9476C27.0728 10.3526 27.5148 10.524 28.2175 11.0503C28.6149 11.3478 28.7601 11.709 28.7962 12.1553C28.8713 13.0839 28.6935 13.686 28.0978 14.0869C24.486 16.5158 20.6362 18.3256 15.8096 20.3096C13.4636 21.2736 9.99421 20.6376 6.87754 19.5658L2.70333 19.5496C2.50464 19.5499 2.30783 19.5112 2.12412 19.4355C1.94041 19.3598 1.77341 19.2486 1.63265 19.1084C1.49189 18.9682 1.38013 18.8016 1.30375 18.6182C1.22737 18.4347 1.18787 18.2381 1.1875 18.0394V13.8163C1.1875 12.9762 1.86396 12.3005 2.70333 12.3005H7.18425C8.88921 10.1811 14.0792 10.8873 17.7526 11.012C18.7442 11.046 19.1154 12.0667 18.8392 13.6052ZM18.8392 13.6052C17.8843 15.4377 15.4569 14.9525 13.1725 15.0353M20.6447 7.01843L19.7713 6.14506L18.8973 7.01914H18.2052M16.457 7.01843L17.3311 6.14506L18.2045 7.01843M14.0487 3.42789H20.9316L22.8625 5.22351L20.9316 7.01914H20.6454M16.4577 7.01914H14.0494M14.0487 7.01843L12.3034 8.76376C11.6659 9.40126 10.6402 9.40126 10.0034 8.76376L7.61208 6.37456C6.97458 5.73706 6.97458 4.71139 7.61208 4.07389L10.0027 1.68326C10.6402 1.04576 11.6659 1.04576 12.3027 1.68326L14.048 3.4286M11 5.22351C11 5.83551 10.5042 6.33206 9.8915 6.33206C9.2795 6.33206 8.78225 5.83622 8.78225 5.22351C8.78225 4.61151 9.27808 4.11497 9.89079 4.11497C10.5028 4.11497 11 4.61081 11 5.22281V5.22351Z" stroke="black" stroke-width="1.2" stroke-linecap="round" stroke-linejoin="round"/>
<path d="M18.8392 13.6052L25.5669 10.9476C27.0728 10.3526 27.5148 10.524 28.2175 11.0503C28.6149 11.3478 28.7601 11.709 28.7962 12.1553C28.8713 13.0839 28.6935 13.686 28.0978 14.0869C24.486 16.5158 20.6362 18.3256 15.8096 20.3096C13.4636 21.2736 9.99421 20.6376 6.87754 19.5658L2.70333 19.5496C2.50464 19.5499 2.30783 19.5112 2.12412 19.4355C1.94041 19.3598 1.77341 19.2486 1.63265 19.1084C1.49189 18.9682 1.38013 18.8016 1.30375 18.6182C1.22737 18.4347 1.18787 18.2381 1.1875 18.0394V13.8163C1.1875 12.9762 1.86396 12.3005 2.70333 12.3005H7.18425C8.88921 10.1811 14.0792 10.8873 17.7526 11.012C18.7442 11.046 19.1154 12.0667 18.8392 13.6052ZM18.8392 13.6052C17.8843 15.4377 15.4569 14.9525 13.1725 15.0353M20.6447 7.01843L19.7713 6.14506L18.8973 7.01914H18.2052M16.457 7.01843L17.3311 6.14506L18.2045 7.01843M14.0487 3.42789H20.9316L22.8625 5.22351L20.9316 7.01914H20.6454M16.4577 7.01914H14.0494M14.0487 7.01843L12.3034 8.76376C11.6659 9.40126 10.6402 9.40126 10.0034 8.76376L7.61208 6.37456C6.97458 5.73706 6.97458 4.71139 7.61208 4.07389L10.0027 1.68326C10.6402 1.04576 11.6659 1.04576 12.3027 1.68326L14.048 3.4286M11 5.22351C11 5.83551 10.5042 6.33206 9.8915 6.33206C9.2795 6.33206 8.78225 5.83622 8.78225 5.22351C8.78225 4.61151 9.27808 4.11497 9.89079 4.11497C10.5028 4.11497 11 4.61081 11 5.22281V5.22351Z" stroke="url(#paint0_linear_581_16779)" stroke-width="1.2" stroke-linecap="round" stroke-linejoin="round"/>
<defs>
<linearGradient id="paint0_linear_581_16779" x1="-0.321028" y1="28.8457" x2="34.4076" y2="28.5666" gradientUnits="userSpaceOnUse">
<stop stop-color="#8F5E25"/>
<stop offset="0.261057" stop-color="#FBF4A1"/>
<stop offset="0.500202" stop-color="#8F5E25"/>
</linearGradient>
</defs>
</svg>
