<svg width="166" height="57" viewBox="0 0 166 57" fill="none" xmlns="http://www.w3.org/2000/svg">
<path d="M38.0466 38.3067C37.4827 38.3067 36.9609 38.4785 36.517 38.7637L30.5072 33.556C31.3877 32.2361 31.9037 30.6433 31.9037 28.9264C31.9037 27.4589 31.5232 26.0838 30.8624 24.8909L36.3203 20.9148C36.8024 21.2854 37.3962 21.5136 38.0466 21.5136C39.6391 21.5136 40.9295 20.1973 40.9295 18.5727C40.9295 16.9481 39.6391 15.6318 38.0466 15.6318C36.4541 15.6318 35.1637 16.9481 35.1637 18.5727C35.1637 18.8903 35.226 19.1909 35.3177 19.4773L29.8528 23.4581C28.8623 22.3247 27.573 21.4712 26.1062 21.0319L26.5479 18.5356C27.9657 18.3504 29.0646 17.1287 29.0646 15.6318C29.0646 14.0072 27.7742 12.6909 26.1817 12.6909C24.5892 12.6909 23.2988 14.0072 23.2988 15.6318C23.2988 16.7611 23.9302 17.7298 24.8452 18.2227L24.4035 20.7237C24.2133 20.7107 24.0242 20.6943 23.8304 20.6943C22.0511 20.6943 20.4119 21.2889 19.0777 22.2835L11.8404 14.1643C12.0889 13.7296 12.2411 13.2303 12.2411 12.6909C12.2411 11.0663 10.9507 9.75 9.35937 9.75C7.76628 9.75 6.47531 11.0663 6.47531 12.6909C6.47531 14.3155 7.76628 15.6318 9.35937 15.6318C9.79123 15.6318 10.1966 15.5283 10.5639 15.3548L17.7982 23.4711C16.5978 24.8509 15.8482 26.6414 15.775 28.6123L5.64561 29.3264C5.22528 28.2347 4.18801 27.4583 2.96854 27.4583C1.37544 27.4583 0.0844727 28.7759 0.0844727 30.4004C0.0844727 32.0238 1.37544 33.3401 2.96854 33.3401C4.32696 33.3401 5.45937 32.3773 5.76381 31.0862L15.8915 30.3728C16.3083 32.7684 17.7371 34.8012 19.7136 36.0016L17.3491 41.2829C17.2332 41.2682 17.1196 41.2464 16.9997 41.2464C15.4066 41.2464 14.1162 42.5628 14.1162 44.1873C14.1162 45.8119 15.4066 47.1282 16.9997 47.1282C18.5916 47.1282 19.882 45.8119 19.882 44.1873C19.882 43.321 19.5084 42.5504 18.9243 42.0123L21.2854 36.738C22.0868 37.0098 22.9408 37.1627 23.8304 37.1627C25.9834 37.1627 27.9345 36.2969 29.3823 34.8959L35.3903 40.103C35.245 40.4548 35.1637 40.8412 35.1637 41.247C35.1637 42.8716 36.4541 44.1879 38.0466 44.1879C39.6391 44.1879 40.9295 42.8716 40.9295 41.247C40.9295 39.6225 39.6391 38.3067 38.0466 38.3067ZM24.4145 32.9778V34.3265H23.1443V33.0696C22.2748 33.0307 21.4324 32.7925 20.94 32.502L21.3292 30.9533C21.8741 31.2568 22.6386 31.5356 23.481 31.5356C24.2208 31.5356 24.7264 31.245 24.7264 30.7151C24.7264 30.2122 24.3107 29.8957 23.3513 29.564C21.964 29.087 21.0167 28.4265 21.0167 27.1425C21.0167 25.9785 21.821 25.0656 23.2094 24.7886V23.5316H24.4797V24.6956C25.3491 24.7356 25.9326 24.9209 26.3605 25.1321L25.9845 26.6284C25.6467 26.4814 25.051 26.1779 24.1176 26.1779C23.274 26.1779 23.0025 26.549 23.0025 26.919C23.0025 27.3554 23.4551 27.6336 24.5575 28.0565C26.1004 28.6123 26.7231 29.3399 26.7231 30.531C26.7231 31.7085 25.9067 32.7137 24.4145 32.9778Z" fill="url(#paint0_linear_581_16815)"/>
<path d="M51.1409 0.166504H49.0986V56.8332H51.1409V0.166504Z" fill="url(#paint1_linear_581_16815)"/>
<path d="M65.7798 22.3214C67.5683 22.8145 69.2601 24.4417 69.2601 26.8333C69.2601 29.9644 67.3266 31.8875 63.1212 31.8875H56.4507V14.6291H62.7587C66.2632 14.6291 68.0275 16.6508 68.0275 18.9684C68.0275 20.7928 66.8674 21.8283 65.7798 22.3214ZM62.4203 17.7849H59.9793V21.2613H62.4203C63.9188 21.2613 64.523 20.5463 64.523 19.5108C64.523 18.4013 63.8221 17.7849 62.4203 17.7849ZM62.9279 28.7317C64.8614 28.7317 65.7315 27.9181 65.7315 26.3895C65.7315 25.0828 64.8614 24.1705 62.7829 24.1705H59.9793V28.7317H62.9279ZM75.0847 14.6291V31.8875H71.5561V14.6291H75.0847ZM81.5136 28.5837H88.16V31.8875H77.985V14.6291H81.5136V28.5837ZM94.1055 28.5837H100.752V31.8875H90.5769V14.6291H94.1055V28.5837ZM106.697 14.6291V31.8875H103.169V14.6291H106.697ZM118.008 14.3826C122.721 14.3826 126.782 18.0068 126.782 23.2583C126.782 28.5098 122.721 32.134 118.008 32.134C113.295 32.134 109.235 28.5098 109.235 23.2583C109.235 18.0068 113.295 14.3826 118.008 14.3826ZM118.008 28.7563C120.86 28.7563 123.108 26.4634 123.108 23.2583C123.108 20.0532 120.86 17.7603 118.008 17.7603C115.156 17.7603 112.909 20.0532 112.909 23.2583C112.909 26.4634 115.156 28.7563 118.008 28.7563ZM140.389 14.6291H143.917V31.8875H141.234L132.848 21.1873V31.8875H129.319V14.6291H132.05L140.389 25.354V14.6291ZM152.352 14.3333C155.325 14.3333 157.21 16.2317 158.104 17.9082L155.494 19.4861C154.576 18.1794 153.681 17.5137 152.352 17.5137C151.168 17.5137 150.298 18.2287 150.298 19.2149C150.298 20.2011 150.854 20.7189 152.183 21.212L153.343 21.6311C157.089 22.9871 158.563 24.6883 158.563 27.0551C158.563 30.5315 155.325 32.2573 152.449 32.2573C149.403 32.2573 147.035 30.4082 146.213 27.992L148.92 26.5374C149.524 27.7948 150.539 29.0029 152.449 29.0029C153.826 29.0029 154.89 28.3865 154.89 27.1045C154.89 25.8717 154.165 25.3293 152.328 24.6143L151.289 24.2445C148.799 23.3323 146.793 22.0749 146.793 19.067C146.793 16.3056 149.331 14.3333 152.352 14.3333Z" fill="url(#paint2_linear_581_16815)"/>
<path d="M59.0385 42.6025C58.4978 42.6025 58.033 42.5066 57.6442 42.3149C57.2554 42.1231 56.9592 41.846 56.7558 41.4835C56.5524 41.121 56.4507 40.6876 56.4507 40.1832V36.5899H57.285V40.1832C57.285 40.6876 57.4369 41.0737 57.7407 41.3416C58.0446 41.6096 58.4772 41.7435 59.0385 41.7435C59.5998 41.7435 60.0324 41.6096 60.3363 41.3416C60.6401 41.0737 60.792 40.6876 60.792 40.1832V36.5899H61.6263V40.1832C61.6263 40.6876 61.5246 41.121 61.3212 41.4835C61.1178 41.846 60.8217 42.1231 60.4328 42.3149C60.044 42.5066 59.5792 42.6025 59.0385 42.6025ZM63.4185 37.4173L62.7464 36.5899H63.8356L67.5358 41.0816V36.5899H68.3856V42.4685H67.5513L64.245 38.426V42.4685H63.4185V37.4173ZM70.9116 42.4685H70.085V36.5899H70.9116V42.4685ZM77.7867 36.5899L75.3688 42.4685H74.3723L71.9931 36.5899H72.9046L74.8744 41.5071L76.8597 36.5899H77.7867ZM79.7102 40.1123V41.6096H83.2636V42.4685H78.8682V36.5899H82.9237V37.4567H79.7102V39.2376C79.8698 39.1431 80.0475 39.08 80.2432 39.0485C80.3874 39.0222 80.5728 39.0091 80.7994 39.0091H82.0585V39.8838H80.7994C80.5882 39.8838 80.4028 39.8969 80.2432 39.9232C80.0475 39.96 79.8698 40.023 79.7102 40.1123ZM85.4574 37.4488V39.4031C85.6171 39.3085 85.7948 39.2455 85.9905 39.214C86.1347 39.1877 86.3201 39.1746 86.5466 39.1746H87.6436C87.9474 39.1746 88.1843 39.1037 88.3543 38.9618C88.5345 38.8095 88.6246 38.5809 88.6246 38.2762C88.6246 37.9873 88.5294 37.7719 88.3388 37.6301C88.174 37.5092 87.9423 37.4488 87.6436 37.4488H85.4574ZM87.9217 41.5386L87.2187 40.0335H86.5466C86.3355 40.0335 86.1501 40.0467 85.9905 40.0729C85.7948 40.1097 85.6171 40.1727 85.4574 40.2621V42.4685H84.6154V36.5899H87.6436C87.9989 36.5899 88.3131 36.6582 88.586 36.7948C88.8589 36.9313 89.0701 37.1257 89.2194 37.3779C89.3791 37.6458 89.4589 37.961 89.4589 38.3235C89.4589 38.7648 89.343 39.1273 89.1113 39.411C88.8795 39.6947 88.5525 39.8917 88.1302 40.002L88.5783 40.9398C88.707 41.1341 88.8074 41.2707 88.8795 41.3495C88.9671 41.4493 89.0508 41.5163 89.1306 41.5505C89.2104 41.5846 89.3147 41.6017 89.4435 41.6017H89.5284L89.7138 41.5938V42.4685C89.4151 42.4685 89.1937 42.458 89.0495 42.437C88.8074 42.395 88.6015 42.3135 88.4315 42.1927C88.2307 42.0456 88.0607 41.8276 87.9217 41.5386ZM95.5847 40.6797C95.5847 41.0632 95.4714 41.4047 95.2448 41.7041C95.0234 41.9878 94.7182 42.2085 94.3294 42.3661C93.9406 42.5237 93.5016 42.6025 93.0123 42.6025C92.5643 42.6025 92.1291 42.4961 91.7068 42.2833C91.2845 42.0706 90.9292 41.7751 90.6408 41.3968L91.2433 40.8215C91.7429 41.4362 92.3326 41.7435 93.0123 41.7435C93.311 41.7435 93.584 41.7068 93.8312 41.6332C94.1041 41.5492 94.3153 41.431 94.4646 41.2786C94.6345 41.1105 94.7195 40.9109 94.7195 40.6797C94.7195 40.4013 94.6345 40.1911 94.4646 40.0493C94.3204 39.9285 94.1067 39.8497 93.8234 39.8129C93.6586 39.7919 93.3883 39.7814 93.0123 39.7814C92.3223 39.7814 91.7957 39.6526 91.4326 39.3952C91.0695 39.1378 90.888 38.7596 90.888 38.2605C90.888 37.9453 90.9794 37.6458 91.1622 37.3621C91.3451 37.0784 91.5961 36.8525 91.9154 36.6844C92.245 36.5058 92.6106 36.4165 93.0123 36.4165C93.4655 36.4165 93.8749 36.4874 94.2406 36.6293C94.632 36.7816 94.995 37.0207 95.3298 37.3464L94.8045 37.9768C94.4904 37.7194 94.2045 37.5394 93.947 37.437C93.6895 37.3345 93.378 37.2833 93.0123 37.2833C92.8012 37.2833 92.6042 37.328 92.4214 37.4173C92.2386 37.5066 92.0931 37.6261 91.9849 37.7758C91.8768 37.9256 91.8227 38.0845 91.8227 38.2526C91.8227 38.7044 92.2321 38.9303 93.051 38.9303C93.705 38.9303 94.2226 38.9986 94.6037 39.1352C94.9641 39.2665 95.2216 39.4661 95.3761 39.7341C95.5152 39.9705 95.5847 40.2857 95.5847 40.6797ZM97.6627 40.1123V41.6096H101.216V42.4685H96.8207V36.5899H100.876V37.4567H97.6627V39.2376C97.8223 39.1431 98 39.08 98.1957 39.0485C98.3399 39.0222 98.5253 39.0091 98.7519 39.0091H100.011V39.8838H98.7519C98.5407 39.8838 98.3553 39.8969 98.1957 39.9232C98 39.96 97.8223 40.023 97.6627 40.1123ZM111.003 36.5899H111.892L110.053 42.4685H109.142L108.029 38.9933L106.948 42.4685H106.036L104.082 36.5899H104.947L106.477 40.987L107.558 37.5197L107.265 36.5899H108.13L109.582 40.987L111.003 36.5899ZM114.812 37.2124L114.495 36.4874H115.422L118.195 42.4685H117.253L116.874 41.6096H115.121C114.791 41.6096 114.495 41.6411 114.232 41.7041C114.001 41.7619 113.808 41.8381 113.653 41.9327C113.514 42.0167 113.421 42.1034 113.375 42.1927L113.228 42.4685H112.317L114.812 37.2124ZM115.43 40.7427H116.496L115.237 38.2605L113.962 41.0737C114.075 40.9739 114.248 40.8951 114.48 40.8373C114.742 40.7743 115.059 40.7427 115.43 40.7427ZM119.447 37.4173L118.775 36.5899H119.864L123.564 41.0816V36.5899H124.414V42.4685H123.58L120.273 38.426V42.4685H119.447V37.4173ZM130.401 37.4567H128.369V42.4685H127.55V37.4567H125.495V36.5899H130.401V37.4567ZM135.962 40.6797C135.962 41.0632 135.849 41.4047 135.623 41.7041C135.401 41.9878 135.096 42.2085 134.707 42.3661C134.318 42.5237 133.879 42.6025 133.39 42.6025C132.942 42.6025 132.507 42.4961 132.085 42.2833C131.662 42.0706 131.307 41.7751 131.019 41.3968L131.621 40.8215C132.121 41.4362 132.71 41.7435 133.39 41.7435C133.689 41.7435 133.962 41.7068 134.209 41.6332C134.482 41.5492 134.693 41.431 134.842 41.2786C135.012 41.1105 135.097 40.9109 135.097 40.6797C135.097 40.4013 135.012 40.1911 134.842 40.0493C134.698 39.9285 134.484 39.8497 134.201 39.8129C134.036 39.7919 133.766 39.7814 133.39 39.7814C132.7 39.7814 132.173 39.6526 131.81 39.3952C131.447 39.1378 131.266 38.7596 131.266 38.2605C131.266 37.9453 131.357 37.6458 131.54 37.3621C131.723 37.0784 131.974 36.8525 132.293 36.6844C132.623 36.5058 132.988 36.4165 133.39 36.4165C133.843 36.4165 134.253 36.4874 134.618 36.6293C135.01 36.7816 135.373 37.0207 135.708 37.3464L135.182 37.9768C134.868 37.7194 134.582 37.5394 134.325 37.437C134.067 37.3345 133.756 37.2833 133.39 37.2833C133.179 37.2833 132.982 37.328 132.799 37.4173C132.616 37.5066 132.471 37.6261 132.363 37.7758C132.255 37.9256 132.2 38.0845 132.2 38.2526C132.2 38.7044 132.61 38.9303 133.429 38.9303C134.083 38.9303 134.6 38.9986 134.981 39.1352C135.342 39.2665 135.599 39.4661 135.754 39.7341C135.893 39.9705 135.962 40.2857 135.962 40.6797ZM137.979 40.924H137.399C137.384 39.9521 137.345 38.5074 137.283 36.5899H138.094C138.033 38.5074 137.994 39.9521 137.979 40.924ZM137.222 42.0036C137.222 42.1349 137.265 42.2452 137.353 42.3346C137.44 42.4239 137.549 42.4685 137.677 42.4685C137.806 42.4685 137.916 42.4239 138.006 42.3346C138.096 42.2452 138.141 42.1349 138.141 42.0036C138.141 41.8722 138.096 41.7606 138.006 41.6687C137.916 41.5767 137.806 41.5308 137.677 41.5308C137.549 41.5308 137.44 41.5767 137.353 41.6687C137.265 41.7606 137.222 41.8722 137.222 42.0036Z" fill="url(#paint3_linear_581_16815)"/>
<defs>
<linearGradient id="paint0_linear_581_16815" x1="0.0844727" y1="9.75" x2="40.9295" y2="9.75" gradientUnits="userSpaceOnUse">
<stop stop-color="#8F5E25"/>
<stop offset="0.5" stop-color="#FBF4A1"/>
<stop offset="1" stop-color="#8F5E25"/>
</linearGradient>
<linearGradient id="paint1_linear_581_16815" x1="49.0986" y1="0.166504" x2="51.1409" y2="0.166504" gradientUnits="userSpaceOnUse">
<stop stop-color="#8F5E25"/>
<stop offset="0.5" stop-color="#FBF4A1"/>
<stop offset="1" stop-color="#8F5E25"/>
</linearGradient>
<linearGradient id="paint2_linear_581_16815" x1="56.4507" y1="14.3333" x2="158.563" y2="14.3333" gradientUnits="userSpaceOnUse">
<stop stop-color="#8F5E25"/>
<stop offset="0.5" stop-color="#FBF4A1"/>
<stop offset="1" stop-color="#8F5E25"/>
</linearGradient>
<linearGradient id="paint3_linear_581_16815" x1="56.4507" y1="36.4165" x2="138.141" y2="36.4165" gradientUnits="userSpaceOnUse">
<stop stop-color="#8F5E25"/>
<stop offset="0.5" stop-color="#FBF4A1"/>
<stop offset="1" stop-color="#8F5E25"/>
</linearGradient>
</defs>
</svg>
