<svg width="74" height="43" viewBox="0 0 74 43" fill="none" xmlns="http://www.w3.org/2000/svg">
<path d="M2.89078 5.46679C3.67196 2.57523 4.37154 0.18502 4.44149 0.138381C4.51145 0.0917432 5.10609 0.045105 6.95996 0.045105L7.22813 0.41821C7.3797 0.628082 8.67391 2.68016 10.0847 4.96543C11.5072 7.26236 12.7198 9.13955 12.7897 9.13955C12.8597 9.13955 14.1189 7.13411 15.6113 4.67394C17.0921 2.22544 18.363 0.18502 18.4329 0.138381C18.5029 0.0917432 19.0975 0.045105 19.7505 0.045105C20.7765 0.045105 20.9631 0.0800836 21.0563 0.243317C21.103 0.359913 21.8259 2.80842 22.642 5.69998C23.4582 8.57989 24.4493 12.1011 24.8574 13.5119C25.2538 14.9227 25.5569 16.112 25.5103 16.1703C25.4753 16.2169 24.9273 16.2402 23.1317 16.1936L21.2546 10.2705C20.2285 7.01751 19.3307 4.35914 19.2608 4.35914C19.1908 4.35914 18.7827 4.93045 18.328 5.61837C17.8849 6.30628 16.9872 7.68211 16.3459 8.67317C15.693 9.66423 14.8884 10.9118 13.9557 12.4042H11.6821L9.76991 9.46602C8.72055 7.84534 7.54293 6.00313 7.14651 5.38518C6.76174 4.75556 6.41196 4.24254 6.37698 4.24254C6.342 4.24254 5.80566 5.82824 5.16439 7.76372C4.53477 9.71087 3.6603 12.3926 2.44771 16.1936L1.2118 16.2169C0.0691654 16.2519 -0.0357705 16.2285 0.0225272 16.042C0.0458463 15.9371 0.383973 14.6895 0.768738 13.2787C1.14184 11.8679 2.09793 8.3467 2.89078 5.46679Z" fill="white"/>
<path d="M31.8531 1.03617C32.3078 0.814635 33.0657 0.534806 33.5437 0.406551C34.15 0.243317 34.8146 0.17336 35.7007 0.17336C36.5052 0.1617 37.2398 0.231658 37.6829 0.336594C38.0676 0.441529 38.6739 0.651401 39.0237 0.814635C39.3735 0.977868 39.9914 1.33931 40.3879 1.6308C40.796 1.91063 41.3789 2.47029 41.7054 2.86671C42.0202 3.2748 42.4399 3.91607 42.6265 4.30084C42.8131 4.6856 43.0579 5.31522 43.1745 5.69998C43.3261 6.213 43.3844 6.84262 43.396 9.78082L36.8434 9.80414C31.6782 9.82746 30.279 9.8741 30.279 9.97904C30.279 10.0607 30.349 10.3871 30.4423 10.7136C30.5239 11.0284 30.7454 11.5997 30.932 11.9845C31.1185 12.3576 31.515 12.9172 31.8181 13.232C32.1329 13.5585 32.6926 13.9549 33.1007 14.1532C33.5087 14.3397 34.1267 14.5612 34.4765 14.6312C34.8496 14.7128 35.7707 14.7478 36.6918 14.7128C38.1492 14.6662 38.3591 14.6312 39.4901 14.2231C40.1663 13.9899 40.8076 13.7684 40.9125 13.7334C41.0991 13.6868 41.1224 13.8034 41.1341 16.077L40.4578 16.3918C40.0847 16.555 39.3851 16.8232 38.9071 16.9748C38.1492 17.208 37.7878 17.2429 36.1671 17.2429C34.5348 17.2429 34.1967 17.208 33.4271 16.9631C32.9491 16.8115 32.2145 16.5317 31.7948 16.3335C31.2701 16.077 30.7454 15.6689 30.0925 15.0276C29.3113 14.2581 29.0548 13.9083 28.6117 12.9872C28.3086 12.3576 28.0054 11.5064 27.9005 11.0051C27.8072 10.527 27.6906 9.73419 27.6556 9.25614C27.5973 8.67317 27.644 7.97359 27.7606 7.15743C27.8888 6.37624 28.0987 5.57173 28.3669 4.94211C28.5884 4.39411 28.9965 3.63624 29.2763 3.25148C29.5562 2.86671 30.0575 2.30706 30.4073 1.99225C30.7571 1.6891 31.3984 1.2577 31.8531 1.03617Z" fill="white"/>
<path d="M62.2262 1.07114C62.7042 0.837954 63.4971 0.534806 63.9751 0.406551C64.5814 0.243317 65.246 0.17336 66.1321 0.17336C66.9133 0.1617 67.6829 0.231658 68.1143 0.336594C68.499 0.42987 69.2569 0.733018 69.8049 1.00119C70.5628 1.37429 70.9942 1.6891 71.6121 2.31872C72.0669 2.77344 72.6032 3.42637 72.8014 3.77616C73.0113 4.12595 73.2794 4.70892 73.4077 5.05871C73.5359 5.40849 73.6875 6.03811 73.7575 6.45785C73.8274 6.8776 73.8857 7.81036 73.8857 9.83912H67.2981C63.672 9.83912 60.7105 9.8741 60.7105 9.92074C60.7105 9.97904 60.7921 10.3288 60.897 10.7136C61.0019 11.0984 61.2235 11.6697 61.3867 11.9961C61.5499 12.3109 61.9464 12.8589 62.2728 13.2087C62.6343 13.5935 63.1356 13.9666 63.567 14.1648C63.9518 14.3514 64.5581 14.5612 64.9079 14.6312C65.281 14.7128 66.2021 14.7478 67.1232 14.7128C68.5573 14.6662 68.8138 14.6195 69.9215 14.2464C70.5977 14.0132 71.239 13.7917 71.344 13.7567C71.5305 13.6984 71.5538 13.7917 71.5655 16.077L70.8892 16.3918C70.5161 16.555 69.9681 16.7765 69.6533 16.8815C69.3502 16.9864 68.7206 17.1263 68.2658 17.1963C67.7761 17.2779 66.8317 17.3012 66.0738 17.2663C65.3393 17.2313 64.4182 17.1263 64.0334 17.0214C63.6487 16.9165 62.9024 16.625 62.3661 16.3685C61.7598 16.077 61.1535 15.6572 60.6988 15.2258C60.3024 14.8644 59.7427 14.1648 59.4512 13.6868C59.1481 13.2087 58.7633 12.3926 58.6001 11.8795C58.4252 11.3665 58.227 10.4338 58.157 9.80414C58.0637 9.01129 58.0637 8.35836 58.1454 7.58883C58.2153 7.00585 58.4368 6.03811 58.6234 5.46679C58.8216 4.88382 59.1714 4.10263 59.4046 3.71786C59.6378 3.3331 60.1741 2.68016 60.5939 2.26042C61.1185 1.73574 61.6199 1.36263 62.2262 1.07114Z" fill="white"/>
<path d="M29.7777 22.1866C29.9642 22.0117 30.2091 21.8251 30.3373 21.7552C30.4656 21.6852 30.7338 21.6269 30.9203 21.6269C31.1069 21.6269 31.4683 21.7435 31.7132 21.8834C31.958 22.0233 32.2262 22.3148 32.3195 22.513C32.4127 22.7229 32.4944 23.0727 32.4944 23.2709C32.4944 23.4808 32.3894 23.8306 32.2612 24.0288C32.1329 24.2387 31.8881 24.5068 31.7015 24.6118C31.48 24.7517 31.2118 24.7867 30.7804 24.7517C30.349 24.7167 30.1042 24.6234 29.871 24.4135C29.7077 24.2503 29.5095 23.9355 29.4396 23.714C29.3696 23.4924 29.3463 23.1193 29.3929 22.8978C29.4279 22.6763 29.6028 22.3498 29.7777 22.1866Z" fill="white"/>
<path d="M62.8675 26.419C63.1823 26.2907 63.8119 26.1042 64.2666 26.0109C64.7213 25.906 65.5492 25.8244 66.1321 25.8244C66.8434 25.8127 67.4846 25.8827 68.1143 26.0459C68.6273 26.1858 69.4085 26.4773 69.8632 26.7105C70.3995 27.002 70.9825 27.445 71.5538 28.0163C72.1135 28.5877 72.5915 29.194 72.8597 29.7186C73.0929 30.1734 73.3727 30.7913 73.4893 31.1178C73.6176 31.5375 73.6875 32.2488 73.7691 35.4901H67.2631C63.6836 35.4901 60.7221 35.5251 60.6755 35.5717C60.6405 35.63 60.6871 35.9565 60.7921 36.3063C60.8853 36.6561 61.0836 37.2041 61.2351 37.5305C61.3867 37.8453 61.7598 38.405 62.0863 38.7548C62.4011 39.1046 62.9141 39.536 63.2289 39.7109C63.5437 39.8741 64.115 40.1073 64.4998 40.2122C65.0595 40.3755 65.5375 40.4104 66.9483 40.3638C68.6156 40.3172 68.7555 40.2938 69.9798 39.8741C70.6794 39.6293 71.3323 39.4077 71.4023 39.3844C71.5189 39.3494 71.5538 39.6293 71.5655 41.728L70.7377 42.1011C70.2946 42.311 69.4901 42.5908 68.9538 42.719C68.2775 42.8823 67.5896 42.9522 66.6218 42.9522C65.829 42.9522 64.8729 42.8706 64.3482 42.7657C63.8585 42.6607 63.0307 42.3809 62.5177 42.1477C62.0047 41.9029 61.3051 41.4831 60.967 41.2266C60.6405 40.9584 60.1158 40.4104 59.8243 40.0024C59.5212 39.6059 59.1014 38.918 58.8916 38.4633C58.6934 38.0086 58.4252 37.3323 58.3202 36.9476C58.2153 36.5628 58.0987 35.6184 58.0637 34.8488C58.0171 33.7762 58.0404 33.2165 58.192 32.4586C58.3086 31.9106 58.5301 31.1294 58.6934 30.7097C58.8566 30.29 59.1831 29.6603 59.4046 29.3106C59.6261 28.9608 60.0808 28.3895 60.4073 28.0513C60.7338 27.7015 61.2934 27.2468 61.6432 27.0369C61.993 26.8271 62.541 26.5472 62.8675 26.419Z" fill="white"/>
<path d="M1.31674 31.2344C0.628823 28.7276 0.0458463 26.5939 0.0108677 26.4773C-0.04743 26.2907 0.0458462 26.2791 2.44771 26.3374L2.59929 26.8038C2.6809 27.0603 3.08899 28.3195 3.49707 29.602C3.91681 30.8846 4.70966 33.3331 5.25766 35.0587C5.80566 36.7727 6.31868 38.1601 6.38864 38.1485C6.44694 38.1252 7.67119 36.3063 11.6937 30.0684H13.8857L16.5208 34.1143C17.9666 36.3413 19.2025 38.1718 19.2608 38.1718C19.3307 38.1718 20.0303 36.1081 20.8232 33.6013C21.6277 31.0828 22.4671 28.4128 23.1317 26.3374H24.3443C25.487 26.3374 25.5569 26.349 25.5219 26.5706C25.4986 26.6988 24.5309 30.1384 23.3883 34.2076C22.234 38.2767 21.2196 41.7979 20.998 42.4275L19.7855 42.4625C19.1092 42.4742 18.5029 42.4509 18.4446 42.4042C18.3746 42.3459 17.1038 40.3055 15.6113 37.857C14.1189 35.3968 12.8597 33.3914 12.7897 33.3914C12.7314 33.3914 11.4605 35.3502 9.97978 37.7287C8.48736 40.119 7.19315 42.171 7.08821 42.2876C6.92498 42.4625 6.70345 42.4975 4.39486 42.4858L4.27826 42.1011C4.21996 41.9029 3.80022 40.3871 3.35716 38.7548C2.91409 37.1225 1.99299 33.7412 1.31674 31.2344Z" fill="white"/>
<path d="M29.6961 30.0101C29.6961 28.1796 29.6844 26.5939 29.6961 26.4773C29.7077 26.2907 29.8243 26.2791 32.0863 26.3374L32.1446 26.7455C32.1796 26.967 32.1796 28.5643 32.0863 33.4497H30.9553C30.3373 33.4497 29.801 33.4264 29.766 33.3914C29.731 33.3564 29.7077 31.8407 29.6961 30.0101Z" fill="white"/>
<path d="M37.9743 33.0416V29.6603V26.2791L40.3645 26.2674L41.5305 27.5266C42.1718 28.2146 44.2705 30.4882 46.1943 32.5752C48.1181 34.6623 50.0886 36.796 50.5667 37.3207C51.0447 37.8453 51.4761 38.2534 51.5344 38.2301C51.581 38.1951 51.616 35.5368 51.616 32.3187C51.616 29.089 51.651 26.419 51.7093 26.3607C51.7559 26.3141 52.3039 26.2907 52.9335 26.3024C53.5515 26.3257 54.0645 26.3724 54.0645 26.419V42.6024L51.6743 42.6141L47.7684 38.3234C45.623 35.9682 43.1279 33.2398 42.2301 32.2488C41.3323 31.2694 40.5628 30.4998 40.5161 30.5581C40.4695 30.6048 40.4228 31.0711 40.3645 32.5053L39.7233 32.7035C39.3735 32.8084 38.8372 32.9367 37.9743 33.0416Z" fill="white"/>
<path d="M37.9743 35.5484L39.1053 35.3036C39.7349 35.1636 40.2829 35.0471 40.3412 35.0354C40.3879 35.0354 40.4228 36.726 40.4228 42.6024H37.9743V35.5484Z" fill="white"/>
<path d="M29.6961 42.4858L29.7194 39.0346L29.731 35.5834L30.0925 35.6534C30.2907 35.7 30.8154 35.7699 31.2468 35.8166C31.9114 35.8865 32.0513 35.9332 32.0979 36.1314C32.1213 36.2596 32.1329 37.7287 32.0863 42.4275L29.6961 42.4858Z" fill="white"/>
<path d="M48.6074 2.65687C48.9456 2.48198 49.5869 2.24879 50.0416 2.13219C50.5779 1.99228 51.056 1.93398 51.4407 1.98062C51.7672 2.0156 52.2102 2.16717 52.4551 2.3304C52.6999 2.48198 52.9914 2.78513 53.0964 2.995C53.2246 3.22819 53.2946 3.62461 53.2946 4.06768C53.2829 4.53406 53.1896 5.00044 53.0031 5.46682C52.8399 5.85159 52.4201 6.66775 52.0587 7.27405C51.6972 7.88035 51.0909 8.80145 50.7062 9.31447C50.3214 9.82749 50.0183 10.2706 50.0416 10.3055C50.0532 10.3405 50.4613 10.4688 50.9277 10.5854C51.4057 10.7136 52.2102 10.9818 52.7233 11.2033C53.2363 11.4132 53.9125 11.763 54.239 11.9728C54.5538 12.1711 55.0785 12.5791 55.3933 12.8706C55.7081 13.1621 56.1745 13.7101 56.4193 14.0949C56.6642 14.4796 56.979 15.1326 57.1073 15.5523C57.2938 16.1353 57.3521 16.625 57.3521 17.7093C57.3521 18.5721 57.2822 19.4466 57.1539 19.983C57.049 20.461 56.8274 21.2538 56.6642 21.7319C56.501 22.2099 56.0812 23.1544 55.7431 23.8306C55.3933 24.5069 54.9153 25.3347 54.239 26.3141L51.6739 26.3374L51.604 29.2523L50.1815 30.2783C49.4003 30.8497 48.2227 31.6425 46.3688 32.8085L44.5149 30.768L45.5876 30.1384C46.1706 29.8003 47.1617 29.159 47.768 28.7276C48.3743 28.2962 49.3187 27.55 49.8667 27.0603C50.4147 26.5823 51.1259 25.8827 51.4407 25.5096C51.7672 25.1248 52.1986 24.6118 52.3968 24.3553C52.595 24.0988 52.9798 23.5275 53.2479 23.0727C53.5278 22.6297 53.9242 21.8368 54.1457 21.3238C54.3673 20.8108 54.6121 20.0996 54.7054 19.7498C54.787 19.4 54.8803 18.9569 54.9036 18.7587C54.9153 18.5721 54.8803 18.4206 54.822 18.4322C54.752 18.4439 53.3179 18.9569 51.6156 19.5749C49.9133 20.1928 47.7446 20.974 46.7769 21.3238C45.8208 21.6619 43.7687 22.4081 42.2297 22.9561C40.6906 23.5158 39.035 24.1338 38.5569 24.3203C38.0789 24.5069 37.0295 24.9616 36.225 25.3114C35.4205 25.6612 34.2079 26.2441 33.52 26.5823C32.6455 27.0137 32.2491 27.1652 32.2025 27.072C32.1792 26.9903 32.1442 26.7921 32.1209 26.6289C32.0859 26.3607 32.0392 26.3374 31.363 26.3141C30.9549 26.2908 30.6284 26.2441 30.6284 26.1975C30.6284 26.1392 31.293 25.7777 32.1092 25.3813C32.937 24.9849 34.3828 24.3436 35.3505 23.9589C36.3066 23.5858 38.1022 22.9212 39.3148 22.4898C40.539 22.0584 42.6611 21.3471 44.0369 20.8924C45.4127 20.4493 47.4065 19.8314 48.4675 19.5166C49.5286 19.2018 51.1026 18.7704 51.9654 18.5372C52.8282 18.3156 53.8776 18.0591 55.0202 17.8259L54.9386 17.4179C54.9036 17.1963 54.822 16.8232 54.7637 16.6017C54.7054 16.3802 54.4839 15.9371 54.274 15.6223C54.0641 15.3075 53.6327 14.8411 53.3062 14.6079C52.9914 14.3631 52.4085 14.0249 52.0237 13.8617C51.6389 13.6868 51.0093 13.4769 50.6245 13.3953C50.2398 13.3137 49.6102 13.2088 49.2254 13.1738C48.7124 13.1155 48.3976 13.0105 48.0361 12.754C47.7563 12.5558 47.4065 12.2294 47.2433 12.0311C47.0917 11.8213 46.9052 11.4948 46.8469 11.2966C46.7769 11.0867 46.7769 10.7836 46.8352 10.5387C46.9168 10.2239 47.3016 9.79251 48.4326 8.73149C49.2487 7.96196 50.2281 6.93592 50.6012 6.45788C50.986 5.97984 51.4524 5.26861 51.6389 4.88384C51.8138 4.49908 51.9654 4.04436 51.9654 3.86946C51.9654 3.67125 51.8488 3.4264 51.6739 3.25151C51.5107 3.08827 51.1842 2.92504 50.951 2.89006C50.6828 2.84342 50.1232 2.90172 49.5752 3.01832C49.0622 3.13491 48.5142 3.22819 48.3626 3.23985C48.211 3.23985 48.0595 3.18155 48.0361 3.11159C48.0245 3.02998 48.281 2.8201 48.6074 2.65687Z" fill="white"/>
<path d="M27.6552 27.9697C28.11 27.6433 28.7046 27.2352 28.9961 27.0603C29.2876 26.8854 29.5558 26.7455 29.6024 26.7455C29.6607 26.7455 29.6957 27.1769 29.684 28.6693L28.6696 29.3805C28.11 29.7653 27.4804 30.3133 27.2705 30.5698C26.9907 30.9429 26.8974 31.1761 26.8974 31.5259C26.8974 31.899 26.979 32.0739 27.2705 32.377C27.4804 32.5986 27.9467 32.8784 28.2965 33.0067C28.6463 33.1466 29.2293 33.2982 29.5791 33.3448C29.9289 33.4031 31.5845 33.4497 33.2518 33.4497C36.0734 33.4497 36.3882 33.4264 37.8573 33.1349C38.7202 32.96 40.0144 32.6219 41.9965 31.9806L42.836 32.8901C43.3024 33.3914 43.6755 33.8578 43.6871 33.9161C43.6871 33.9744 43.2557 34.1726 42.731 34.3592C42.1947 34.5341 41.157 34.8256 40.4224 35.0121C39.6879 35.1987 38.2888 35.4552 37.3327 35.5951C36.3649 35.7233 34.7792 35.8749 33.8115 35.9216C32.8321 35.9799 32.0276 35.9915 32.0276 35.9565C32.0276 35.9216 31.6195 35.8516 31.1298 35.7933C30.6284 35.7467 30.0921 35.6884 29.9289 35.6767C29.7656 35.6767 29.6141 35.6417 29.5791 35.6067C29.5441 35.5718 29.206 35.4435 28.8212 35.3269C28.4364 35.2103 27.8301 34.9655 27.4804 34.7906C27.1306 34.6157 26.5826 34.2426 26.2678 33.9627C25.9413 33.6596 25.5565 33.1582 25.3583 32.7502C25.0668 32.1672 25.0202 31.9456 25.0552 31.4093C25.0785 31.0479 25.2301 30.5232 25.3933 30.1967C25.5449 29.8819 25.9296 29.3922 26.2561 29.1007C26.5709 28.8092 27.2005 28.3079 27.6552 27.9697Z" fill="white"/>
<path d="M33.4272 3.0766C33.777 2.93668 34.2784 2.77345 34.5349 2.72681C34.7914 2.66851 35.4443 2.63353 35.9923 2.64519C36.8435 2.68017 37.1 2.73847 37.7996 3.06494C38.3009 3.29813 38.8839 3.70621 39.3153 4.12596C39.7467 4.53404 40.1548 5.08204 40.388 5.53676C40.5862 5.94484 40.7844 6.5045 40.8893 7.27403H35.6425C31.5267 7.27403 30.3958 7.23905 30.3958 7.13412C30.3958 7.0525 30.489 6.64442 30.6173 6.22467C30.7455 5.80493 31.0487 5.16366 31.2935 4.80221C31.5384 4.44076 31.9698 3.95106 32.2613 3.72953C32.5528 3.508 33.0774 3.21651 33.4272 3.0766Z" fill="#0E0E0E"/>
<path d="M63.4156 3.29813C63.7887 3.11158 64.395 2.87838 64.7681 2.78511H64.7564C65.1529 2.69183 65.8408 2.63353 66.4237 2.64519C67.2982 2.66851 67.5197 2.72681 68.2893 3.09992C68.8139 3.34477 69.4202 3.77617 69.805 4.14927C70.2014 4.52238 70.5979 5.05872 70.8194 5.5251C71.0293 5.94484 71.2158 6.5045 71.3208 7.27403H66.074C63.1824 7.27403 60.8272 7.23905 60.8272 7.19242C60.8272 7.13412 60.9321 6.73769 61.072 6.28297C61.2119 5.82825 61.3985 5.30357 61.5034 5.11702C61.5967 4.93046 61.9232 4.51072 62.2146 4.19591C62.5061 3.89276 63.0541 3.48468 63.4156 3.29813Z" fill="#0E0E0E"/>
<path d="M63.8353 28.7393C64.1735 28.5993 64.7331 28.4478 65.0596 28.3895C65.3977 28.3312 65.9107 28.2845 66.2022 28.2729C66.4937 28.2729 66.9834 28.3312 67.3099 28.4244C67.6247 28.5061 68.1843 28.7276 68.5341 28.9025C68.8839 29.0774 69.4669 29.5204 69.8167 29.8819C70.1781 30.2433 70.6095 30.8263 70.7844 31.1761C70.9593 31.5259 71.1342 32.0972 71.2741 33.0416L60.7805 32.9833L60.8155 32.6918C60.8388 32.5286 60.9671 32.0855 61.0837 31.7008C61.2119 31.316 61.5151 30.7214 61.7483 30.3716C61.9815 30.0335 62.4129 29.5787 62.7043 29.3689C62.9958 29.159 63.5089 28.8675 63.8353 28.7393Z" fill="#0E0E0E"/>
</svg>
