<svg width="225" height="38" viewBox="0 0 225 38" fill="none" xmlns="http://www.w3.org/2000/svg">
<path d="M38.4331 7.02521C38.5991 5.08434 40.3411 2.40288 42.1752 1.22815C43.2824 0.516727 44.884 0.385407 46.0095 0.976405C47.0872 1.53823 47.3972 2.3627 47.4193 3.42076C47.4488 4.84724 46.3011 5.73005 44.9762 5.11714C42.9429 4.17225 40.5441 4.50424 38.4331 7.02521Z" fill="white"/>
<path d="M11.1718 6.95222C16.5414 6.95222 19.9772 10.8595 19.9772 16.89L7.09018 17.1016C7.64749 20.8812 9.75098 23.8508 14.9508 23.4714C16.0653 23.3875 17.7444 22.4097 19.1615 20.3302L19.848 20.9249C17.6596 25.1277 13.2754 26.7438 10.2713 26.7438C4.34086 26.7439 0.517578 23.2599 0.517578 17.824C0.517578 11.1989 4.64351 6.95222 11.1718 6.95222ZM6.96102 15.7446H11.9431C16.2387 15.5731 15.1242 8.69617 10.8249 8.69617C8.42248 8.69254 6.87617 11.5381 6.96102 15.7446Z" fill="white"/>
<path d="M26.1144 28.1851C24.0958 27.2912 22.8926 25.7225 22.8926 23.7707C22.8926 21.6474 23.8816 20.418 25.4279 19.6518C23.365 18.4625 22.162 16.5946 22.162 14.2598C22.162 10.0569 26.0296 6.95597 31.4397 6.95597C35.8866 6.95597 41.0606 8.98809 41.0606 14.2598C41.0606 18.4188 36.7651 21.0966 31.4397 21.0966C29.9377 21.0966 28.5612 20.885 27.3581 20.502C27.144 20.7573 27.0149 21.1368 27.0149 21.6512C27.0149 22.5413 28.0039 23.1396 29.5059 23.2236C29.5059 23.2236 33.5468 23.2674 34.1041 23.3075C38.8278 23.6467 42.4813 26.1094 42.6954 29.3818C43.0792 35.2408 36.6395 38.1303 30.148 37.9625C26.6237 37.8786 22.114 36.2623 21.8999 32.782C21.7301 30.0091 23.4942 28.6083 26.1144 28.1851ZM30.6204 36.4265C35.2593 36.4265 38.0528 34.938 37.5361 31.9683C37.1931 29.9289 35.0895 29.3343 32.0375 29.1227C30.362 28.995 29.2882 29.1227 27.9559 28.8271C26.7086 29.0825 25.9372 30.0602 25.9372 32.2638C25.9409 34.2558 27.4872 36.4265 30.6204 36.4265ZM27.8304 14.256C27.8304 17.5248 29.4616 19.6919 31.4397 19.6919C33.4178 19.6919 35.4328 17.5285 35.4328 14.256C35.4328 10.9434 33.4141 8.39698 31.4397 8.39698C29.4617 8.39698 27.8304 10.9435 27.8304 14.256Z" fill="white"/>
<path d="M54.5531 15.6132V12.3006C54.5531 10.1372 53.9515 8.7326 53.0067 8.7326C51.1173 8.7326 50.2131 10.772 50.6006 13.7452C49.4381 14.0408 48.5376 14.2122 47.593 14.2122C46.6888 14.2122 45.7478 14.0407 44.5003 13.7452C43.943 9.7541 48.1096 6.82453 54.3796 7.0361C58.3727 7.16379 60.9522 9.6263 60.9522 13.7014V21.0454C60.9522 22.8695 61.2953 24.0625 62.6276 24.0625C63.6166 24.0625 64.1296 23.7232 64.4323 23.1687L65.0744 23.975C64.0448 25.8428 62.3251 27.0322 58.5018 27.0322C56.782 27.0322 55.4499 26.2697 54.9774 24.9528C53.5159 25.8868 51.3276 26.8207 49.0506 26.8207C45.8288 26.8207 43.7217 24.3581 43.7217 21.724C43.7254 16.7624 50.7704 15.7846 54.5531 15.6132ZM52.7891 23.8108C53.3906 23.8108 54.0364 23.6393 54.5937 23.2599L54.5494 16.8061C52.1876 16.8061 49.7813 17.9079 49.7813 20.7536C49.7851 22.7053 51.2428 23.8108 52.7891 23.8108Z" fill="white"/>
<path d="M66.4431 19.9473C66.5723 19.9473 66.7014 19.9911 66.9598 19.9911C67.8159 22.3259 70.0966 25.5547 73.2299 25.5547C75.2928 25.5547 76.625 24.4091 76.625 22.6251C76.625 21.4357 75.2079 20.1188 73.0157 19.2724C69.1481 17.784 66.6128 15.1536 66.6128 12.9427C66.6128 9.2908 70.0486 6.5291 75.6359 6.5291C77.3962 6.5291 80.319 7.16391 81.6476 8.65236L81.4741 13.3221H80.832C79.7175 11.1587 78.341 8.0541 75.8056 7.93004C73.2703 7.80235 71.6833 9.33098 71.6391 10.8158C71.5948 12.2606 73.9604 13.2346 77.6102 14.6793C80.3153 15.7409 81.9908 18.0758 81.9908 20.3705C81.9908 24.4055 78.4258 26.952 72.7979 26.952C70.4361 26.952 68.0741 26.1895 66.6533 25.0439L66.4431 19.9473Z" fill="white"/>
<path d="M83.6853 9.58636V8.90773C85.7483 8.48086 88.8002 5.63891 91.3762 1.64777H92.3652V7.17117H98.078V9.58999H92.3652C92.3652 9.58999 92.3209 17.9555 92.3209 21.651C92.3209 23.5189 92.7932 23.9859 94.4687 23.9859C95.2437 23.9859 96.8305 23.5189 98.1628 21.6072L98.5946 22.1582C96.3582 26.1056 92.9667 26.7441 91.5054 26.7441C87.3831 26.7441 86.1764 25.4708 86.1764 20.5858V9.58636H83.6853Z" fill="white"/>
<path d="M99.1772 26.0618C99.1772 25.551 99.2179 25.2555 99.2179 25.2555L99.6054 25.2117C101.237 25.0402 102.096 22.2384 102.096 18.3748C102.096 13.1068 101.713 12.0889 99.6054 10.9434L99.2179 10.7318C99.2179 10.7318 99.1772 10.5603 99.1772 10.3049L106.953 7.16379H108.156V13.3622C108.972 11.4067 110.691 7.7986 113.271 7.33166C115.722 6.90478 116.836 8.26566 117.22 10.5166C117.478 12.3006 116.017 13.7452 115.072 13.4024C113.998 13.0229 113.009 12.1693 111.806 12.1693C110.776 12.1693 109.618 12.8041 108.156 14.931V18.6704C108.156 22.45 109.101 25.0402 110.651 25.2117L111.083 25.2555C111.083 25.2555 111.123 25.551 111.123 26.0618V26.5287H99.1809L99.1772 26.0618Z" fill="white"/>
<path d="M118.087 16.8463C118.087 10.8158 122.298 6.95235 128.956 6.95235C135.528 6.95235 139.739 10.8158 139.739 16.8463C139.739 22.8769 135.532 26.7403 128.956 26.7403C122.295 26.7439 118.087 22.8769 118.087 16.8463ZM128.956 25.3394C131.532 25.3394 133.207 22.0267 133.207 16.8462C133.207 11.6657 131.532 8.35305 128.956 8.35305C126.376 8.35305 124.704 11.6657 124.704 16.8462C124.704 22.0267 126.376 25.3394 128.956 25.3394Z" fill="white"/>
<path d="M165.42 16.8463C165.42 10.8158 169.628 6.95235 176.289 6.95235C182.861 6.95235 187.072 10.8158 187.072 16.8463C187.072 22.8769 182.861 26.7403 176.289 26.7403C169.628 26.7439 165.42 22.8769 165.42 16.8463ZM176.289 25.3394C178.865 25.3394 180.54 22.0267 180.54 16.8462C180.54 11.6657 178.865 8.35305 176.289 8.35305C173.709 8.35305 172.037 11.6657 172.037 16.8462C172.037 22.0267 173.709 25.3394 176.289 25.3394Z" fill="white"/>
<path d="M224.047 25.2117C222.501 25.0402 221.552 22.45 221.552 18.6704V13.4899C221.552 9.49873 220.305 6.94859 216.913 6.94859C213.732 6.94859 210.252 9.07185 208.75 10.6407C208.233 8.30584 206.901 6.94859 204.41 6.94859C200.934 6.94859 198.225 8.5611 197.107 10.0897V7.16016H195.904L188.128 10.3013C188.128 10.5567 188.172 10.7282 188.172 10.7282L188.556 10.9397C190.66 12.0853 191.091 13.1032 191.091 18.3712C191.091 22.2347 190.187 25.0365 188.556 25.208L188.172 25.2519C188.172 25.2519 188.128 25.5474 188.128 26.0582H188.139V26.5251H199.443V25.1643C198.015 24.7922 197.114 22.275 197.114 18.6669V11.8337C198.277 10.2175 199.306 9.58272 200.166 9.58272C201.927 9.58272 203.001 12.0052 203.001 14.1284V18.6741C203.001 22.326 202.277 24.7412 200.834 25.1716V26.5324H211.643V25.2227L211.551 25.2154C210.005 25.0877 209.056 22.4537 209.056 18.6741V13.4936C209.056 13.1106 209.056 12.7275 209.016 12.3444C210.259 10.4765 211.462 9.79792 212.496 9.79792C214.3 9.79792 215.503 12.0489 215.503 14.1284V18.6741C215.503 22.4318 214.566 25.0549 213.038 25.2118V26.5325H224.483V25.2592L224.047 25.2117Z" fill="white"/>
<path d="M164.705 25.2555L164.273 25.2117C162.727 25.0402 161.778 22.45 161.778 18.6704V13.4899C161.778 9.49873 160.531 6.94859 157.139 6.94859C153.659 6.94859 150.954 8.5611 149.836 10.0897V7.16016H148.633L140.857 10.3013C140.857 10.5567 140.898 10.7282 140.898 10.7282L141.33 10.9397C143.433 12.0014 143.824 13.1032 143.824 18.3712C143.824 22.2347 142.92 25.0365 141.33 25.208L140.898 25.2519C140.898 25.2519 140.857 25.5474 140.857 26.0582V26.5251H152.128V25.1643C150.703 24.7959 149.836 22.2786 149.836 18.6669V11.8337C150.998 10.2175 152.028 9.58272 152.888 9.58272C154.652 9.58272 155.722 12.0052 155.722 14.1284V18.6741C155.722 22.3224 154.962 24.7776 153.519 25.1754V26.5325H164.745V26.0655C164.749 25.551 164.705 25.2555 164.705 25.2555Z" fill="white"/>
</svg>
