<svg width="47" height="47" viewBox="0 0 47 47" fill="none" xmlns="http://www.w3.org/2000/svg">
<path fill-rule="evenodd" clip-rule="evenodd" d="M20.3726 0.1064C15.378 0.688845 10.4969 3.04884 6.88528 6.62781C4.90163 8.59349 3.6449 10.3382 2.38475 12.876C-0.760389 19.2099 -0.796263 26.6348 2.28734 33.024C5.70915 40.1143 12.3724 44.9139 20.2222 45.9429C21.942 46.1683 25.1849 46.1121 26.7499 45.8297C31.7166 44.9333 35.8746 42.7928 39.3236 39.3571C42.2935 36.3985 44.3313 32.8373 45.3661 28.7969C45.9653 26.4575 46.1424 24.8546 46.0711 22.4187C45.9672 18.8688 45.2909 16.0783 43.7857 12.9896C40.3116 5.86076 33.5946 1.08066 25.6744 0.100947C24.5667 -0.0360587 21.5681 -0.0329914 20.3726 0.1064ZM25.2212 1.46464C34.6141 2.42925 42.4333 9.48835 44.2788 18.6698C45.4882 24.6863 44.1761 30.7686 40.5882 35.7782C39.7609 36.9336 37.8486 38.949 36.6962 39.8804C32.6141 43.1795 27.3282 44.9375 22.2032 44.7006C16.7717 44.4495 11.9511 42.3874 8.0915 38.664C5.4133 36.0803 3.65818 33.3179 2.50918 29.8782C-0.0356353 22.26 1.83619 13.8938 7.3722 8.14294C8.10206 7.38475 9.03695 6.49444 9.44962 6.16431C13.9235 2.58671 19.6194 0.889469 25.2212 1.46464ZM20.8019 1.5887C15.3377 2.16024 10.1613 4.91217 6.62213 9.12709C1.10145 15.7018 -0.0497125 24.7932 3.66919 32.4477C4.69842 34.5661 6.60794 37.1816 8.20628 38.6624C14.1939 44.2096 22.2915 46.0047 29.9287 43.478C31.3374 43.0119 33.9182 41.7197 35.1768 40.8503C39.4809 37.8772 42.584 33.4888 43.8725 28.5533C44.4147 26.4762 44.558 25.3113 44.5575 22.9867C44.5568 20.1611 44.1392 17.8209 43.2027 15.394C39.6697 6.23985 30.4801 0.576378 20.8019 1.5887ZM22.1477 3.49553C22.2755 3.73433 22.1964 4.07173 22.0126 4.07173C21.9461 4.07173 21.9571 3.99959 22.0386 3.90133C22.2155 3.68809 22.0087 3.39011 21.6841 3.39011C21.389 3.39011 21.3749 4.06537 21.6696 4.08491C21.8499 4.09684 21.8506 4.10274 21.6765 4.14864C21.5712 4.17647 21.4632 4.31121 21.4367 4.44787C21.4101 4.58465 21.3814 4.3771 21.3729 3.98653L21.3574 3.27651H21.694C21.9102 3.27651 22.0725 3.35489 22.1477 3.49553ZM24.5762 3.52473C24.6631 3.66355 24.6538 3.79511 24.5422 4.00368C24.4456 4.18443 24.4264 4.34733 24.4906 4.44242C24.5469 4.52558 24.4888 4.47627 24.3616 4.33268C24.2344 4.1892 24.0428 4.07173 23.9358 4.07173C23.7887 4.07173 23.7415 3.97335 23.7415 3.66696C23.7415 3.28105 23.7582 3.26378 24.099 3.29775C24.2956 3.31729 24.5104 3.41942 24.5762 3.52473ZM23.855 3.67412C23.855 3.93336 23.8966 3.96847 24.1672 3.93722C24.3918 3.91144 24.4794 3.83748 24.4794 3.67412C24.4794 3.51076 24.3918 3.4368 24.1672 3.41101C23.8966 3.37977 23.855 3.41488 23.855 3.67412ZM27.196 3.79579C27.5892 4.18942 27.2796 4.98056 26.7323 4.98056C26.4179 4.98056 26.012 4.61067 26.012 4.32427C26.012 3.7324 26.7869 3.38659 27.196 3.79579ZM26.2334 3.96869C25.9468 4.50456 26.522 5.10075 27.023 4.78698C27.2504 4.64463 27.3213 4.11115 27.1416 3.89451C26.9336 3.64379 26.3831 3.68877 26.2334 3.96869ZM17.8665 4.03333C17.7885 4.06491 17.7205 4.17591 17.7156 4.27997C17.71 4.39811 17.6851 4.41595 17.6494 4.32734C17.6179 4.24929 17.5069 4.1817 17.403 4.17738C17.252 4.17102 17.2596 4.14966 17.4408 4.07173C17.5656 4.018 17.7444 3.97449 17.8381 3.97505C17.9523 3.97574 17.9616 3.99493 17.8665 4.03333ZM23.7031 4.55455C23.6717 4.6327 23.6459 4.56875 23.6459 4.41254C23.6459 4.25634 23.6717 4.19249 23.7031 4.27054C23.7347 4.3487 23.7347 4.4765 23.7031 4.55455ZM29.5289 4.35449C30.3603 4.78471 29.9454 5.78646 29.0085 5.6106C28.597 5.53335 28.5798 5.50314 28.747 5.15096C28.8493 4.93546 28.8524 4.93659 28.8083 5.17198C28.7301 5.58959 29.3604 5.69865 29.6975 5.32591C29.9618 5.03373 29.8539 4.60612 29.472 4.43197C29.0935 4.2594 29.1137 4.25202 29.0273 4.59635C28.9862 4.75994 28.9282 4.86923 28.8982 4.83935C28.8316 4.77266 29.0459 4.18533 29.1368 4.18533C29.1727 4.18533 29.3491 4.26145 29.5289 4.35449ZM17.9379 4.97795C18.0112 5.19527 18.0225 5.32307 17.9627 5.26195C17.903 5.20095 17.8178 4.9976 17.7734 4.81015C17.6692 4.37051 17.766 4.46923 17.9379 4.97795ZM15.7379 4.75335C15.6993 4.81583 15.5971 4.86696 15.5108 4.86696C15.273 4.86696 15.2172 5.03736 15.3815 5.26218C15.5052 5.43156 15.5727 5.44224 15.8036 5.32944C16.0638 5.20243 16.0666 5.2047 15.8581 5.37192C15.7368 5.46905 15.5946 5.54858 15.5419 5.54858C15.4891 5.54858 15.5031 5.65525 15.5728 5.78555C15.6425 5.91586 15.6768 6.04514 15.649 6.07297C15.6213 6.1008 15.4858 5.86133 15.3481 5.54097C15.0709 4.89627 15.0673 4.92205 15.4582 4.76585C15.8218 4.62066 15.8198 4.62066 15.7379 4.75335ZM31.406 5.65934C31.1473 6.1601 31.2157 6.51421 31.5712 6.51421C31.7796 6.51421 31.9173 6.39765 32.1086 6.05979C32.4281 5.4953 32.4513 5.62435 32.1402 6.23474C31.9742 6.5601 31.8392 6.68461 31.652 6.68461C31.3424 6.68461 31.1207 6.48706 31.1207 6.21134C31.1207 5.98595 31.4773 5.18595 31.5468 5.25548C31.5714 5.28013 31.5081 5.46178 31.406 5.65934ZM13.8782 6.30847C14.1802 6.53886 14.4041 6.75073 14.3758 6.77902C14.3475 6.80742 14.2557 6.77368 14.1719 6.70404C13.9805 6.54511 13.5281 6.83002 13.5161 7.1171C13.5016 7.46677 13.3125 6.88978 13.3185 6.51421L13.3239 6.1734L13.3956 6.49137C13.4626 6.78811 13.4825 6.79799 13.6944 6.63906C13.9188 6.47058 13.9183 6.46638 13.6376 6.26507C13.4815 6.15317 13.3154 6.07399 13.2687 6.0891C13.2219 6.10421 13.1835 6.06547 13.1835 6.00299C13.1835 5.81645 13.3015 5.86837 13.8782 6.30847ZM34.4324 6.87263C34.5466 6.976 34.6392 7.14221 34.6383 7.24184C34.6373 7.35476 34.5828 7.31591 34.4938 7.13903C34.2187 6.59214 33.3912 6.79435 33.3912 7.40838C33.3912 7.73715 33.5918 7.93039 33.9532 7.9497C34.233 7.9647 34.2338 7.96686 33.9779 8.0157C33.6539 8.07739 33.2777 7.76305 33.2777 7.43076C33.2777 6.79856 33.9773 6.46047 34.4324 6.87263ZM24.5929 7.20458C25.0924 7.23366 25.6122 7.28194 25.7478 7.31182C26.1209 7.39407 26.6932 7.92414 26.6932 8.18736C26.6932 8.3155 26.8546 8.68165 27.0519 9.00087C27.4281 9.6099 27.4478 9.72214 27.5263 11.715C27.5677 12.7655 27.5593 12.8164 27.3723 12.647C27.1894 12.4813 27.1688 12.4917 27.0988 12.7856C26.977 13.2969 26.5475 14.336 26.369 14.5512C26.2582 14.6849 26.1615 14.7139 26.0725 14.64C25.9807 14.5637 25.7568 14.7165 25.3366 15.1422C24.9719 15.5118 24.6686 15.7295 24.5709 15.6919C24.4819 15.6577 24.263 15.7698 24.0846 15.9409C23.906 16.1121 23.71 16.2213 23.649 16.1836C23.588 16.1457 23.3959 16.1887 23.2223 16.2789C22.9421 16.4243 22.8915 16.4223 22.7735 16.2609C22.6966 16.1555 22.5817 16.1154 22.5006 16.1655C22.4159 16.218 22.2325 16.1293 22.0361 15.9409C21.8549 15.7672 21.6385 15.6578 21.5462 15.6933C21.4444 15.7323 21.1436 15.5213 20.7636 15.1439C20.3565 14.7399 20.1079 14.5694 20.0339 14.6434C19.9599 14.7175 19.8647 14.6872 19.7543 14.5544C19.5744 14.3376 19.1446 13.301 19.0231 12.7908C18.9371 12.4298 18.8798 12.4076 18.693 12.6633C18.5866 12.8089 18.5643 12.516 18.5883 11.2853L18.6187 9.72237L19.0231 9.06676C19.2455 8.70619 19.4291 8.31664 19.4311 8.20111C19.4414 7.59867 20.1502 7.2532 21.3801 7.25093C21.8984 7.2499 22.399 7.19719 22.4927 7.13369C22.5863 7.07018 22.8929 7.04826 23.1738 7.08495C23.4548 7.12164 24.0934 7.17549 24.5929 7.20458ZM11.8093 7.295C11.8805 7.38089 11.9092 7.52789 11.8732 7.62184C11.8281 7.73919 11.9027 7.81644 12.1116 7.86893C12.2788 7.91096 12.3911 7.96981 12.3612 7.9998C12.3313 8.02968 12.1821 8.00673 12.0296 7.94879C11.8546 7.88211 11.6785 7.88472 11.5515 7.95584C11.3607 8.06274 11.3605 8.07944 11.5474 8.28608C11.6556 8.40571 11.7203 8.52749 11.6911 8.55668C11.6619 8.58588 11.4518 8.36015 11.2242 8.05501L10.8103 7.50029L11.0603 7.32568C11.3754 7.10551 11.643 7.09449 11.8093 7.295ZM11.1353 7.42872C11.0153 7.57345 11.0194 7.63502 11.158 7.77373C11.3481 7.9639 11.6566 7.8904 11.756 7.63116C11.9002 7.25536 11.4114 7.09586 11.1353 7.42872ZM22.6831 7.43962C22.6318 7.49165 22.1445 7.53993 21.6004 7.54686C20.6587 7.55902 20.1611 7.69091 19.9684 7.97969C19.9226 8.04842 19.8773 8.36026 19.8678 8.67267C19.8584 8.98508 19.8273 9.11675 19.7988 8.96532C19.7506 8.70812 19.7264 8.72323 19.4355 9.19252C19.0217 9.86017 18.9533 10.1854 19.0426 11.0583C19.1207 11.8206 19.2429 11.9247 19.3716 11.3384C19.4787 10.8506 19.9585 10.3199 20.2925 10.3199C20.6433 10.3199 20.7417 10.5694 20.5619 11.0036C20.3986 11.3981 19.9951 11.4775 19.9951 11.1151C19.9951 10.7431 19.8054 10.8561 19.6101 11.3446C19.3649 11.9579 19.3836 12.7684 19.657 13.3712C19.7805 13.6436 19.8816 13.9375 19.8816 14.0244C19.8816 14.1113 19.9327 14.1824 19.9951 14.1824C20.1277 14.1824 20.1526 13.9308 20.1146 12.974C20.0704 11.8596 20.555 11.2373 21.0676 11.7502C21.2118 11.8945 21.2334 12.074 21.1754 12.6407C21.0932 13.4436 21.2569 13.9529 21.5256 13.7298C21.7101 13.5766 21.8425 13.7422 21.743 14.0018C21.6369 14.2784 21.1615 14.2219 20.956 13.9081C20.817 13.6959 20.7936 13.4806 20.8528 12.9572C20.9608 12.0025 20.7478 11.9627 20.5139 12.8941C20.2695 13.8681 20.3538 14.2072 21.0008 14.8511L21.5277 15.3753L21.5637 14.9209C21.5835 14.6709 21.6549 14.4153 21.7223 14.3528C21.807 14.2743 21.8189 14.2851 21.7608 14.3877C21.635 14.6096 21.7751 15.0305 22.1054 15.4233C22.4636 15.8493 22.6062 15.8658 22.6062 15.4813C22.6062 15.237 22.5676 15.2018 22.3687 15.265C22.1824 15.3242 22.1396 15.2972 22.17 15.14C22.2409 14.7744 22.4745 14.8442 22.7407 15.3106C22.8853 15.5639 23.0291 15.7712 23.0603 15.7712C23.0915 15.7712 23.2354 15.5639 23.3799 15.3106C23.6475 14.8418 23.8798 14.7747 23.9516 15.1453C23.9826 15.3052 23.9383 15.3371 23.7529 15.2886C23.5594 15.2379 23.5144 15.2777 23.5144 15.4996C23.5144 15.8407 23.6354 15.8458 23.9346 15.5173C24.2959 15.1202 24.4424 14.7652 24.358 14.4905C24.3156 14.3524 24.3223 14.2786 24.3728 14.3266C24.4233 14.3745 24.4939 14.6302 24.5297 14.8946L24.5947 15.3753L25.1272 14.8215C25.42 14.5169 25.6903 14.1281 25.7276 13.9576C25.8132 13.5677 25.46 12.1145 25.3034 12.2114C25.2338 12.2544 25.2171 12.5547 25.2605 12.979C25.3153 13.5149 25.2909 13.7346 25.1547 13.9292C24.9538 14.2161 24.4497 14.2715 24.3522 14.0175C24.2544 13.7625 24.4111 13.5769 24.5951 13.7298C24.8717 13.9596 25.0253 13.4453 24.9397 12.5759C24.8645 11.8114 24.8683 11.7957 25.1671 11.6595C25.444 11.5332 25.4964 11.5504 25.756 11.8524C26.0138 12.1523 26.0357 12.2552 25.9857 12.9276C25.9552 13.3367 25.9672 13.799 26.012 13.9552L26.0936 14.2392L26.2097 13.9552C26.2735 13.799 26.4083 13.4733 26.5094 13.2314C26.7435 12.6712 26.7439 11.9282 26.5105 11.3446C26.3135 10.852 26.1255 10.7438 26.1255 11.1231C26.1255 11.485 25.6588 11.3651 25.5277 10.9694C25.3886 10.5495 25.4914 10.3199 25.8183 10.3199C26.1543 10.3199 26.511 10.704 26.6875 11.2556C26.9009 11.9229 26.9958 11.8538 27.0778 10.9713C27.1493 10.2017 27.1322 10.1096 26.7944 9.44381C26.5968 9.05415 26.3941 8.7606 26.3441 8.7915C26.294 8.82252 26.2371 8.66018 26.2177 8.4307C26.1622 7.77702 25.7731 7.55663 24.6227 7.52698C24.1068 7.51369 23.4804 7.46734 23.2306 7.42394C22.9808 7.38055 22.7345 7.38759 22.6831 7.43962ZM22.2747 8.16611C22.5245 8.29358 22.786 8.52363 22.8561 8.67733C23.018 9.03291 23.076 9.02746 23.2983 8.63643C23.3979 8.46103 23.6611 8.23132 23.883 8.1259C24.3872 7.88654 25.3252 7.8754 25.6214 8.10534C25.8268 8.26484 25.8203 8.2687 25.5221 8.16214C25.1321 8.02263 25.1038 8.02173 25.1038 8.14817C25.1038 8.20338 25.206 8.27529 25.3308 8.30801C25.728 8.41195 25.5775 8.56589 24.9051 8.74345L24.2523 8.91601L24.6213 9.10959C25.2409 9.43484 25.0706 9.86551 24.3225 9.86551C24.1528 9.86551 23.9526 9.92686 23.8777 10.0018C23.6388 10.2409 23.7196 10.9376 24.0411 11.4115C24.5043 12.0946 24.575 12.3927 24.383 12.8526C24.1792 13.3404 23.8352 13.4748 23.4452 13.2191C23.0825 12.9813 23.1221 12.5893 23.5283 12.395C24.217 12.0658 24.1092 11.9672 23.0603 11.9672C22.0114 11.9672 21.9036 12.0658 22.5924 12.395C23.0037 12.5917 23.038 12.9814 22.6652 13.2258C22.2488 13.4988 21.8641 13.3058 21.6954 12.7392C21.5518 12.257 21.6255 12.0035 22.0983 11.3539C22.4027 10.9357 22.4775 10.2365 22.2429 10.0018C22.168 9.92686 21.9679 9.86551 21.7981 9.86551C21.0515 9.86551 20.8786 9.43359 21.4972 9.11345L21.864 8.92374L21.3553 8.77151C21.0755 8.68778 20.7508 8.6186 20.634 8.61758C20.4579 8.61621 20.4457 8.58656 20.5627 8.44547C20.6405 8.35174 20.7745 8.27506 20.8604 8.27506C20.9465 8.27506 21.0168 8.22394 21.0168 8.16146C21.0168 8.0207 20.9939 8.0207 20.5985 8.16214C20.3004 8.2687 20.2938 8.26484 20.4993 8.10534C20.8185 7.85745 21.7314 7.8887 22.2747 8.16611ZM36.2924 8.41707C36.4753 8.62008 36.551 8.72209 36.4605 8.64359C36.3243 8.52533 36.2086 8.58384 35.7858 8.9844L35.2755 9.4679L35.6957 8.98474C36.1562 8.45535 36.1809 8.3856 35.9796 8.18418C35.9047 8.1092 35.8696 8.04785 35.9016 8.04785C35.9337 8.04785 36.1095 8.21406 36.2924 8.41707ZM9.52205 8.8616C8.91241 9.08437 9.02185 9.97911 9.65874 9.97911C9.88102 9.97911 10.0636 9.87903 10.2286 9.6667C10.4581 9.37145 10.4639 9.36986 10.3347 9.6383C10.1611 9.99865 10.0232 10.0889 9.64227 10.091C9.31509 10.0928 8.98303 9.73771 8.98303 9.38576C8.98303 9.12266 9.38196 8.72698 9.6358 8.73845C9.76091 8.74413 9.71879 8.78969 9.52205 8.8616ZM26.5063 9.81109C26.4113 10.0588 25.927 10.0175 25.7837 9.74952C25.6342 9.46994 25.7238 9.29749 26.0187 9.29749C26.1512 9.29749 26.2409 9.2182 26.2435 9.09869C26.2461 8.98474 26.3168 9.05847 26.4093 9.27148C26.498 9.47585 26.5417 9.71873 26.5063 9.81109ZM20.3755 9.4646C20.4551 9.67216 20.1629 9.97911 19.8857 9.97911C19.6519 9.97911 19.5156 9.72305 19.6134 9.4679C19.6978 9.24796 20.2914 9.24535 20.3755 9.4646ZM22.1521 10.6197C22.1521 10.9913 21.9585 11.3424 21.7536 11.3424C21.5691 11.3424 21.2439 10.7807 21.2439 10.4619C21.2439 10.0939 21.4539 9.98809 21.8208 10.1712C22.054 10.2877 22.1521 10.4204 22.1521 10.6197ZM24.8767 10.4531C24.8767 10.7792 24.5539 11.3424 24.367 11.3424C24.1616 11.3424 23.9685 10.9911 23.9685 10.6176C23.9685 10.4202 24.0647 10.284 24.2807 10.1753C24.6365 9.99649 24.8767 10.1084 24.8767 10.4531ZM38.5344 11.0867C39.249 12.0169 39.9926 13.195 40.4864 14.1794C40.9231 15.0498 41.6787 16.9209 41.6787 17.1318C41.6787 17.212 39.4448 17.2497 34.6968 17.2497C30.1179 17.2497 27.7149 17.2107 27.7149 17.1361C27.7149 17.0617 30.0422 17.0225 34.4697 17.0225C40.6352 17.0225 41.2246 17.0064 41.2246 16.8375C41.2246 16.5351 40.3386 14.5417 39.7257 13.465C39.4121 12.9143 38.8548 12.0577 38.4872 11.5616C38.1196 11.0654 37.8188 10.6086 37.8188 10.5464C37.8188 10.2882 38.0619 10.4717 38.5344 11.0867ZM7.57882 11.515C7.54237 11.61 7.31396 11.9806 7.07124 12.3387C6.193 13.6343 4.89607 16.3271 4.89607 16.8551C4.89607 17.0007 5.77533 17.0225 11.6509 17.0225C16.0784 17.0225 18.4057 17.0617 18.4057 17.1361C18.4057 17.2107 16.0027 17.2497 11.4238 17.2497C7.18567 17.2497 4.44196 17.2082 4.44196 17.1439C4.44196 16.9179 5.13153 15.1825 5.58018 14.2795C6.20129 13.0294 7.29682 11.3463 7.49095 11.3442C7.58245 11.343 7.6181 11.4124 7.57882 11.515ZM23.7107 13.6117C24.1613 13.8866 24.1009 14.1748 23.5874 14.1997C22.5921 14.248 22.1812 14.1949 22.1099 14.009C22.0277 13.7946 22.65 13.388 23.0603 13.388C23.2164 13.388 23.5091 13.4887 23.7107 13.6117ZM5.85174 19.7206C5.88625 19.83 5.906 20.5472 5.89567 21.3144C5.87774 22.6301 5.89079 22.7192 6.12431 22.8829C6.43731 23.1023 6.43583 23.1982 6.11648 23.3688C5.87751 23.4965 5.86343 23.5671 5.89772 24.4672C5.93938 25.5567 5.89635 25.5156 7.05308 25.5702L7.67747 25.5996V26.1108V26.622L6.17324 26.6537L4.66902 26.6854V25.0482C4.66902 23.5063 4.65574 23.4074 4.44196 23.3514C4.31709 23.3188 4.21491 23.2139 4.21491 23.1186C4.21491 23.0233 4.31709 22.9128 4.44196 22.8731C4.65449 22.8056 4.66902 22.7012 4.66902 21.2371C4.66902 20.377 4.70308 19.6392 4.74474 19.5976C4.78629 19.5559 5.03832 19.5218 5.30465 19.5218C5.66635 19.5218 5.80485 19.5721 5.85174 19.7206ZM12.6854 19.6671C12.8105 19.7922 12.852 20.1031 12.7836 20.4022C12.7295 20.6385 12.6626 20.6578 11.8985 20.6578C11.4069 20.6578 11.0167 20.7131 10.9357 20.7942C10.7639 20.9661 10.7546 22.3208 10.9244 22.4259C10.9932 22.4683 11.3125 22.5353 11.634 22.5746L12.2185 22.6459V23.1571V23.6683L11.6537 23.704C11.3431 23.7237 11.0239 23.7938 10.9442 23.8599C10.7521 24.0195 10.7497 25.27 10.9414 25.3941C11.0195 25.4446 11.4664 25.5116 11.9347 25.5428L12.7862 25.5996V26.1108V26.622L11.2624 26.6538C10.1745 26.6766 9.71459 26.6469 9.65488 26.5501C9.60878 26.4756 9.56621 25.7711 9.56019 24.9847C9.55009 23.6524 9.53215 23.5404 9.29693 23.345C9.05012 23.14 9.04933 23.1318 9.26253 22.9758C9.38241 22.8881 9.50911 22.8161 9.54396 22.8159C9.57893 22.8155 9.6081 22.1231 9.6089 21.2771C9.60992 20.2154 9.65204 19.7131 9.7449 19.6557C9.92496 19.5443 12.5728 19.5546 12.6854 19.6671ZM16.4089 19.6489C16.4301 19.6728 16.6125 20.5102 16.8143 21.5099C17.0161 22.5096 17.2043 23.3659 17.2325 23.4127C17.3827 23.662 17.4997 23.3871 17.6789 22.3619C17.7883 21.7371 17.9113 21.2259 17.9524 21.2259C17.9935 21.2259 18.0187 21.1112 18.0085 20.9712C17.9856 20.6609 18.1747 19.8539 18.3116 19.6772C18.4213 19.5358 19.5925 19.5356 19.7339 19.677C19.782 19.725 19.8313 20.4375 19.8434 21.2602C19.8642 22.6639 19.8813 22.7686 20.1229 22.9643C20.3309 23.1328 20.3498 23.1918 20.2215 23.2711C20.1342 23.3251 20.0305 23.3495 19.991 23.325C19.8886 23.2618 19.8706 23.4885 19.8464 25.1364L19.8248 26.6044L19.5256 26.6852C19.3609 26.7295 19.0927 26.7403 18.9295 26.7092C18.6336 26.6525 18.6328 26.6495 18.6328 25.5362C18.6328 24.4164 18.5236 24.0879 18.2939 24.5172C18.2261 24.6439 18.1925 24.7476 18.2191 24.7476C18.272 24.7476 17.8849 26.5563 17.8175 26.6236C17.7331 26.7081 17.1376 26.7779 16.9887 26.7208C16.8992 26.6863 16.7081 26.1171 16.533 25.3638C16.367 24.65 16.1841 24.066 16.1265 24.066C16.007 24.066 16.0033 24.1128 16.016 25.4292C16.0212 25.9603 15.9863 26.4519 15.9383 26.5215C15.8068 26.7131 15.3952 26.8105 15.0663 26.7279L14.7729 26.6542V25.1227C14.7729 23.6745 14.759 23.5794 14.5174 23.3741L14.262 23.1571L14.5174 22.9401C14.759 22.7349 14.7729 22.6399 14.7729 21.1887C14.7729 20.0694 14.8113 19.6379 14.9148 19.5936C15.066 19.5287 16.3441 19.5762 16.4089 19.6489ZM24.9469 19.8129C25.7819 20.4373 26.0221 21.4837 25.558 22.4753L25.3013 23.0238L25.5715 23.4028C25.802 23.7263 25.8417 23.9154 25.8417 24.6908C25.8417 25.4604 25.8012 25.6564 25.5773 25.9705C25.1514 26.5682 24.7559 26.7077 23.4994 26.7039C22.8908 26.7022 22.3386 26.6672 22.2724 26.6262C22.1974 26.5799 22.1521 25.9822 22.1521 25.0387C22.1521 23.5999 22.1396 23.5166 21.8967 23.3414L21.6412 23.1571L21.8967 22.9729C22.1403 22.7971 22.1521 22.7163 22.1521 21.2214C22.1521 20.0768 22.1904 19.6376 22.294 19.5919C22.3721 19.5576 22.9304 19.5406 23.5349 19.5541C24.4432 19.5744 24.6881 19.6193 24.9469 19.8129ZM30.8963 19.7062C30.9663 19.7763 31.0072 20.0063 30.9871 20.2174L30.9504 20.601L30.099 20.633C29.4654 20.6568 29.2112 20.7133 29.1056 20.8536C28.9304 21.0862 28.9173 22.3198 29.0887 22.4259C29.1575 22.4683 29.4767 22.5353 29.7982 22.5746L30.3828 22.6459V23.1571V23.6683L29.8151 23.7016C29.1128 23.743 28.9637 23.9187 28.9637 24.7058C28.9637 25.0582 29.0217 25.3398 29.1056 25.3941C29.1837 25.4446 29.6307 25.5116 30.099 25.5428L30.9504 25.5996V26.1108V26.622L29.3894 26.6536L27.8284 26.6852V25.1429C27.8284 23.6019 27.8282 23.6004 27.5167 23.3323L27.2051 23.0641L27.5167 22.922L27.8284 22.7798V21.2171C27.8284 20.184 27.8707 19.6403 27.953 19.6128C28.2659 19.5084 30.7783 19.5882 30.8963 19.7062ZM35.1534 19.636C35.5549 19.7194 35.8447 19.8659 36.0667 20.0978C36.3715 20.4162 36.3948 20.5081 36.4371 21.5642C36.4762 22.5373 36.4496 22.7586 36.2423 23.1871C35.9392 23.8138 35.9383 23.7911 36.3319 25.2924C36.5132 25.9838 36.6324 26.5785 36.5968 26.6141C36.4843 26.7268 35.4513 26.6839 35.3769 26.5636C35.3378 26.5002 35.1877 25.9593 35.0433 25.3616C34.761 24.1934 34.667 24.0191 34.3789 24.1298C34.2262 24.1884 34.1877 24.4155 34.1613 25.4115L34.1292 26.622H33.5615H32.9939L32.9628 25.0884C32.9337 23.6572 32.9148 23.5414 32.679 23.3559L32.4263 23.1571L32.6838 22.9562C32.9277 22.766 32.9417 22.6764 32.9452 21.285C32.9472 20.4765 32.9973 19.7566 33.0563 19.6854C33.1997 19.5125 34.4207 19.4838 35.1534 19.636ZM41.1021 19.7825C41.2584 19.8578 41.5054 20.0963 41.6509 20.3126C41.8686 20.6363 41.9095 20.8269 41.8821 21.3918L41.849 22.0779L41.4082 22.114C40.8819 22.1572 40.7995 22.0879 40.7577 21.5667C40.6987 20.8296 40.1631 20.5223 39.812 21.024C39.6691 21.2279 39.6352 21.6401 39.6352 23.1698C39.6352 24.8546 39.6587 25.0924 39.849 25.3273C40.0349 25.5571 40.0999 25.5745 40.3492 25.4608C40.8574 25.229 40.9108 23.8838 40.4167 23.7547C40.2264 23.7048 40.1968 23.6145 40.2256 23.1708L40.2596 22.6459H41.0543H41.849V24.1796C41.849 25.6044 41.8301 25.7396 41.5841 26.0848C40.8631 27.0963 39.2139 26.9573 38.6842 25.8403C38.5608 25.5801 38.4999 25.1444 38.4999 24.5214C38.4999 23.6976 38.4706 23.566 38.2445 23.371L37.9891 23.1509L38.2445 22.9698C38.4757 22.8057 38.4999 22.6956 38.4999 21.8066C38.4999 20.5859 38.6981 20.1456 39.4165 19.7709C39.9491 19.4933 40.5091 19.4972 41.1021 19.7825ZM23.5024 21.0839C23.3732 21.4205 23.4377 22.1033 23.6155 22.2812C23.8197 22.4856 24.2808 22.2658 24.4069 21.904C24.6907 21.0893 23.8077 20.2886 23.5024 21.0839ZM34.2341 20.9235C34.2019 21.0072 34.1908 21.48 34.2092 21.9743C34.242 22.8557 34.2486 22.8738 34.548 22.9084C35.0474 22.9662 35.3212 22.5915 35.3212 21.8507C35.3212 21.3773 35.2661 21.1708 35.0941 20.9987C34.8361 20.7404 34.3215 20.6954 34.2341 20.9235ZM46.923 21.7371C46.9253 21.9245 46.9507 21.9875 46.9796 21.8769C47.0084 21.7664 47.0065 21.613 46.9754 21.5361C46.9443 21.4592 46.9208 21.5496 46.923 21.7371ZM23.562 23.7648C23.5298 23.8491 23.5185 24.2709 23.5372 24.702L23.5712 25.486L23.911 25.4609C24.3592 25.4276 24.5362 25.1602 24.5362 24.5163C24.5362 24.1483 24.473 23.9304 24.3285 23.7996C24.078 23.5727 23.6433 23.5529 23.562 23.7648ZM46.923 24.35C46.9253 24.5374 46.9507 24.6003 46.9796 24.4898C47.0084 24.3793 47.0065 24.2259 46.9754 24.149C46.9443 24.0721 46.9208 24.1625 46.923 24.35ZM8.38701 28.8361C10.2972 28.8368 11.3671 28.8781 11.3671 28.9509C11.3671 29.0239 10.2129 29.0645 8.13158 29.0645C5.22734 29.0645 4.89607 29.0834 4.89607 29.2482C4.89607 29.6101 5.9337 31.8826 6.59341 32.9653C8.46784 36.0417 10.9907 38.418 14.1757 40.107C14.8476 40.4633 15.4203 40.7571 15.4484 40.7602C15.4765 40.7632 15.4446 40.8205 15.3775 40.8877C15.2908 40.9745 14.95 40.856 14.193 40.4755C9.93438 38.3352 6.57388 34.597 4.81762 30.0464C4.35784 28.855 4.38236 28.6653 4.98326 28.7647C5.21622 28.8032 6.74803 28.8354 8.38701 28.8361ZM41.6787 28.9594C41.6787 29.0267 41.4749 29.6017 41.2259 30.2375C40.6817 31.6267 39.7983 33.2503 38.8868 34.5366C37.9892 35.8034 35.7434 38.0311 34.413 38.9747C32.9948 39.9805 30.6825 41.1711 30.5085 40.9851C30.4162 40.8865 30.4208 40.8369 30.5258 40.7984C30.9609 40.6389 32.8796 39.6042 33.5625 39.1608C36.0987 37.5142 38.2896 35.171 39.794 32.496C40.4295 31.366 41.2246 29.5572 41.2246 29.2414C41.2246 29.0854 40.8416 29.0645 37.9891 29.0645C35.9078 29.0645 34.7536 29.0239 34.7536 28.9509C34.7536 28.8776 35.9834 28.8373 38.2161 28.8373C40.6106 28.8373 41.6787 28.875 41.6787 28.9594ZM29.2816 30.8012C29.4156 30.9441 29.5395 31.1868 29.5568 31.3408C29.5836 31.5799 29.5359 31.6257 29.2288 31.6555C28.9486 31.6826 28.8532 31.639 28.7955 31.4567C28.7076 31.1795 28.481 31.1541 28.278 31.3988C28.078 31.6401 28.41 32.359 28.7215 32.359C28.8402 32.359 28.9693 32.4485 29.0083 32.5578C29.0475 32.6671 29.2058 32.9611 29.3604 33.211C29.6813 33.7305 29.7174 34.1611 29.4788 34.6229C29.2812 35.0051 29.1048 35.0855 28.4634 35.0855C27.9044 35.0855 27.5338 34.776 27.4219 34.2157C27.3624 33.9183 27.3909 33.8578 27.6187 33.7968C28.0159 33.6903 28.0235 33.6943 28.1549 34.0714C28.2497 34.3435 28.3335 34.4124 28.5349 34.3838C29.0958 34.3041 28.7522 33.2207 28.1384 33.1334C27.9992 33.1137 27.8852 33.0207 27.8852 32.927C27.8852 32.8333 27.783 32.6055 27.6581 32.4208C27.5167 32.2117 27.4311 31.8973 27.4311 31.5873C27.4311 31.183 27.4908 31.0384 27.7496 30.8155C28.1841 30.4415 28.9372 30.4344 29.2816 30.8012ZM15.6294 30.9338C15.8437 31.1481 15.9081 31.3323 15.9081 31.7291C15.9081 32.227 15.896 32.2454 15.5676 32.2454C15.2826 32.2454 15.227 32.2003 15.227 31.9695C15.227 31.8178 15.1431 31.6097 15.0405 31.507C14.8858 31.3523 14.8283 31.346 14.7039 31.4705C14.5075 31.667 14.4614 34.1376 14.6505 34.3268C14.8526 34.5291 15.1648 34.2655 15.2054 33.8583C15.2405 33.5062 15.5485 33.286 15.7936 33.4376C15.9192 33.5153 15.9501 34.3894 15.8376 34.6828C15.7467 34.92 15.2059 35.1991 14.837 35.1991C14.6789 35.1991 14.3864 35.0533 14.1871 34.8752C13.8669 34.5888 13.8188 34.4668 13.7734 33.8244C13.745 33.4245 13.6666 33.0622 13.5991 33.0192C13.517 32.9668 13.5416 32.8689 13.6729 32.7234C13.8201 32.5609 13.8626 32.3412 13.8422 31.8518C13.8174 31.2606 13.8453 31.1712 14.1299 30.9261C14.566 30.5508 15.2501 30.5542 15.6294 30.9338ZM17.9752 31.5354C18.0078 32.4021 18.0133 32.4164 18.3206 32.4517C18.6328 32.4877 18.6328 32.4876 18.6328 31.751C18.6328 30.8009 18.6949 30.655 19.099 30.655H19.4275V31.6652C19.4275 32.4958 19.4605 32.6882 19.6132 32.7468C19.7852 32.8129 19.7852 32.8334 19.6132 33.0236C19.473 33.1785 19.4275 33.4574 19.4275 34.1608C19.4275 35.1642 19.325 35.3346 18.8687 35.0903C18.6618 34.9795 18.6328 34.8584 18.6328 34.1083V33.2527L18.3206 33.2887C18.0135 33.3241 18.0078 33.339 17.9753 34.1989C17.947 34.9496 17.911 35.0831 17.7209 35.1434C17.3416 35.264 17.2705 35.1021 17.2705 34.1188C17.2705 33.3334 17.2358 33.1462 17.0742 33.0556C16.8881 32.9513 16.8881 32.9343 17.0742 32.7286C17.2265 32.5601 17.2705 32.3037 17.2705 31.5832V30.655H17.6063H17.9421L17.9752 31.5354ZM22.9468 30.9958C22.9468 31.3288 22.934 31.3366 22.3813 31.3366C21.8728 31.3366 21.8087 31.3652 21.7447 31.6206C21.6147 32.1388 21.7722 32.4544 22.1808 32.4939C22.5048 32.5251 22.5538 32.5741 22.585 32.8986C22.6189 33.2508 22.6025 33.2678 22.2282 33.2678C21.8187 33.2678 21.698 33.407 21.698 33.8792C21.698 34.2546 21.9145 34.4039 22.4586 34.4039C22.9253 34.4039 22.9468 34.4189 22.9468 34.7447V35.0855H21.9818H21.0168V34.1572C21.0168 33.4572 20.9712 33.1784 20.8311 33.0236C20.6591 32.8334 20.6591 32.8129 20.8311 32.7468C20.9838 32.6882 21.0168 32.4958 21.0168 31.6652V30.655H21.9818H22.9468V30.9958ZM26.2391 30.9899C26.2391 31.3137 26.2195 31.3258 25.643 31.3591L25.047 31.3934L25.0127 31.9258L24.9785 32.4582L25.4101 32.4939C25.8061 32.5265 25.8417 32.5576 25.8417 32.8702C25.8417 33.1732 25.7976 33.2174 25.4444 33.2678C25.0576 33.3232 25.047 33.3382 25.047 33.8358V34.3471L25.643 34.3814C26.2213 34.4148 26.2391 34.4258 26.2391 34.755V35.0944L25.2457 35.0615L24.2523 35.0287L24.219 34.0667C24.1984 33.4755 24.1331 33.0722 24.0496 33.0205C23.9447 32.9557 23.9458 32.9043 24.0546 32.7955C24.1438 32.7062 24.1956 32.3148 24.1956 31.7304C24.1956 31.2222 24.2296 30.7723 24.2713 30.7307C24.3129 30.689 24.7726 30.655 25.293 30.655H26.2391V30.9899ZM32.8236 30.9899C32.8236 31.3137 32.8041 31.3258 32.2276 31.3591L31.6316 31.3934V31.9046C31.6316 32.4023 31.6421 32.4173 32.0289 32.4726C32.3781 32.5225 32.4305 32.5733 32.4613 32.8914C32.4946 33.2359 32.4755 33.255 32.064 33.289C31.6504 33.323 31.63 33.3439 31.5954 33.7675C31.5522 34.2945 31.6758 34.3998 32.3411 34.4022C32.8011 34.4038 32.8236 34.4198 32.8236 34.7447V35.0855H31.8586H30.8936V34.1572C30.8936 33.4847 30.846 33.1762 30.7205 33.0374C30.5653 32.8659 30.5653 32.831 30.7205 32.7022C30.8505 32.5943 30.8936 32.3211 30.8936 31.6067V30.655H31.8586H32.8236V30.9899ZM21.0022 38.3778C22.2426 38.564 23.3407 38.7484 23.4427 38.7876C23.6443 38.865 23.6981 39.1665 23.5144 39.1894C23.3771 39.2066 23.4008 39.2018 22.5211 39.3929C21.8875 39.5306 21.681 39.6882 21.877 39.8846C21.9131 39.9207 22.2254 39.825 22.5712 39.672L23.1998 39.3938L22.8462 39.8749C22.533 40.3011 22.4927 40.4434 22.4927 41.1222C22.4927 41.5435 22.5438 41.9199 22.6062 41.9585C22.852 42.1105 22.697 42.3774 22.2454 42.5797L21.7712 42.7922L20.5575 42.1831C19.7304 41.768 19.3244 41.4998 19.2829 41.3408C19.2088 41.0574 18.8703 40.9056 18.7493 41.1017C18.6792 41.2151 18.6075 41.215 18.3918 41.1013C18.2434 41.0229 18.0843 40.9026 18.0385 40.8338C17.9033 40.6312 17.9398 39.8005 18.0907 39.6495C18.2005 39.5397 18.2005 39.4633 18.0907 39.2876C17.9087 38.996 17.9106 38.1882 18.0935 38.1144C18.3641 38.0052 18.7582 38.0409 21.0022 38.3778ZM18.0651 38.5139C18.0651 38.65 18.1272 38.9334 18.2031 39.1433C18.3114 39.443 18.3114 39.5727 18.2031 39.7463C18.0151 40.0476 18.029 40.7078 18.2268 40.8721C18.3266 40.9549 18.5407 40.9779 18.7858 40.9318C19.1419 40.865 19.2005 40.8907 19.3508 41.1807C19.4671 41.4048 19.8362 41.6697 20.5537 42.0437C21.1231 42.3406 21.6134 42.5833 21.6434 42.5833C21.6735 42.5833 21.698 41.9755 21.698 41.2327C21.698 40.1113 21.6643 39.8422 21.4993 39.6477C21.3076 39.4215 18.5766 38.2664 18.2336 38.2664C18.1362 38.2664 18.0651 38.3708 18.0651 38.5139ZM24.5997 38.3857C24.2449 38.4918 24.0395 38.7527 24.0306 39.1084C24.0277 39.2279 23.964 39.3463 23.8892 39.3716C23.6653 39.4471 23.929 38.694 24.2066 38.4652C24.3393 38.3559 24.5571 38.2708 24.6907 38.2762C24.8804 38.2838 24.8605 38.3077 24.5997 38.3857ZM25.9552 38.5472C26.5573 38.7458 26.3384 38.7501 25.5579 38.5553C25.2145 38.4695 25.0612 38.3988 25.2173 38.3984C25.3734 38.3978 25.7055 38.4649 25.9552 38.5472ZM18.7463 38.8344C18.7463 39.0696 18.4724 39.148 18.349 38.948C18.2539 38.7942 18.3821 38.6072 18.5827 38.6072C18.6727 38.6072 18.7463 38.7094 18.7463 38.8344ZM27.2924 39.0016C27.5124 39.0935 27.7741 39.2505 27.8738 39.3505C28.0785 39.5552 28.1226 40.37 27.9353 40.4857C27.8654 40.5289 27.8461 40.7016 27.8893 40.8978C27.9594 41.2178 27.9509 41.2276 27.7256 41.0868C27.4217 40.8969 27.4195 40.5755 27.7215 40.4795C27.8803 40.4292 27.944 40.3265 27.9202 40.1595C27.8877 39.9316 27.8272 39.9153 27.0905 39.9366L26.2958 39.9594L26.8009 39.7094C27.4208 39.4023 27.4832 39.2412 27.0692 39.0166C26.6594 38.7944 26.7777 38.7865 27.2924 39.0016ZM25.6714 38.991C25.6714 39.0145 25.5937 39.0984 25.4985 39.1774C25.354 39.2975 25.3373 39.2904 25.3971 39.1344C25.4582 38.9753 25.6714 38.8636 25.6714 38.991ZM23.2255 39.942L22.8126 40.4817L23.1762 40.5182L23.5397 40.5547L23.1581 40.7454C22.6886 40.9799 22.6096 41.3561 22.9369 41.799C23.2323 42.1988 23.2304 42.2237 22.8739 42.6401L22.5821 42.9809L22.7855 42.6175C22.9813 42.2676 22.9812 42.2399 22.7804 41.8669C22.4938 41.3345 22.5991 40.6635 23.0796 39.9579C23.2875 39.6527 23.4983 39.4028 23.548 39.4027C23.5978 39.4025 23.4526 39.6452 23.2255 39.942ZM25.5579 40.8158C25.5579 40.9059 25.5024 41.0138 25.4345 41.0558C25.2742 41.155 25.0553 40.936 25.1544 40.7756C25.2657 40.5954 25.5579 40.6245 25.5579 40.8158ZM20.2006 40.9495C20.0868 41.0633 19.9591 41.0976 19.8652 41.0396C19.7291 40.9554 19.8695 40.8763 20.3316 40.777C20.3607 40.7708 20.3016 40.8484 20.2006 40.9495ZM24.1225 41.048C24.2022 41.2559 23.8444 41.4675 23.6336 41.3372C23.5498 41.2854 23.5127 41.1611 23.5511 41.0611C23.6388 40.8322 24.0362 40.823 24.1225 41.048ZM26.7397 41.4049C26.8366 41.6572 26.6095 41.9017 26.2783 41.9017C25.9863 41.9017 25.8325 41.6696 25.9396 41.3905C26.0293 41.1566 26.6488 41.1677 26.7397 41.4049ZM20.8465 41.4473C20.8851 41.5098 20.8626 41.5609 20.7965 41.5609C20.7304 41.5609 20.6763 41.5098 20.6763 41.4473C20.6763 41.3848 20.6987 41.3337 20.7263 41.3337C20.7539 41.3337 20.808 41.3848 20.8465 41.4473ZM27.9042 42.0636C27.8507 42.203 26.4962 42.5377 26.395 42.4364C26.3681 42.4095 26.5795 42.322 26.8648 42.2422C27.1643 42.1582 27.4897 41.9674 27.6344 41.7909C27.8598 41.516 27.8889 41.507 27.9225 41.7016C27.9431 41.8208 27.9348 41.9836 27.9042 42.0636ZM25.4264 42.4852L25.7282 42.7277L25.3909 42.6665C25.2054 42.6329 24.8623 42.6818 24.6286 42.7754C24.3947 42.869 24.1378 42.9193 24.0575 42.8871C23.9774 42.8548 24.0209 42.8244 24.1541 42.8195C24.2874 42.8146 24.4802 42.6827 24.5825 42.5265C24.8102 42.1788 25.0319 42.1679 25.4264 42.4852ZM26.1539 42.5449C26.0759 42.5765 25.9482 42.5765 25.8701 42.5449C25.7921 42.5135 25.8559 42.4877 26.012 42.4877C26.1681 42.4877 26.232 42.5135 26.1539 42.5449ZM23.7699 42.9993C23.6919 43.0309 23.5641 43.0309 23.486 42.9993C23.408 42.9679 23.4719 42.9421 23.628 42.9421C23.784 42.9421 23.848 42.9679 23.7699 42.9993ZM23.2044 43.1123C23.1275 43.1434 22.9743 43.1453 22.8638 43.1165C22.7533 43.0876 22.8162 43.0622 23.0036 43.0599C23.1909 43.0576 23.2812 43.0811 23.2044 43.1123ZM21.4993 46.9785C21.6087 47.0072 21.7873 47.0072 21.8967 46.9785C22.006 46.95 21.9165 46.9266 21.698 46.9266C21.4795 46.9266 21.39 46.95 21.4993 46.9785ZM24.2261 46.979C24.3366 47.0078 24.4898 47.0059 24.5667 46.9748C24.6436 46.9437 24.5532 46.9201 24.3659 46.9224C24.1786 46.9247 24.1157 46.9501 24.2261 46.979Z" fill="white"/>
</svg>
