<svg width="35" height="50" viewBox="0 0 35 50" fill="none" xmlns="http://www.w3.org/2000/svg">
<path fill-rule="evenodd" clip-rule="evenodd" d="M16.0596 0.1132C15.0496 0.2586 13.6127 0.657499 12.4989 1.1017C11.2443 1.6021 9.87512 2.3935 9.90248 2.6026C9.91297 2.6837 10.2212 4.25969 10.5872 6.10489L11.2528 9.45978L10.5052 10.9549L9.75758 12.45L9.88571 13.3821C9.95621 13.8948 10.0319 14.3323 10.054 14.3544C10.1005 14.4009 10.3448 14.0316 12.5036 10.65C13.3815 9.27498 14.4634 7.58749 14.9077 6.89999C17.0631 3.56519 16.8825 3.93949 17.2734 1.9998C17.4657 1.0463 17.623 0.2063 17.623 0.1331C17.623 -0.0203998 17.0392 -0.0279 16.0596 0.1132ZM18.7828 2.1706L18.4093 4.34119L16.4015 7.64559C12.125 14.6838 10.4325 17.509 10.4325 17.6091C10.4325 17.7168 11.1871 20.4156 12.4254 24.7367L13.1381 27.2234L12.9138 28.6082C12.7904 29.3699 12.722 30.0257 12.7617 30.0656C12.98 30.2841 13.1826 29.5082 14.0324 25.2014L14.9495 20.5528L14.8775 18.2449L14.8055 15.9369L16.389 15.2099C17.26 14.81 18.2962 14.3405 18.6918 14.1664L19.4111 13.85L19.7303 13C19.9058 12.5325 20.6059 10.6875 21.2861 8.89998C22.4184 5.92409 22.565 5.46019 23.0238 3.39999C23.2994 2.1625 23.534 1.0854 23.545 1.0065C23.5825 0.739599 20.5944 0 19.4783 0H19.1564L18.7828 2.1706ZM24.4124 3.67499C24.0579 5.47239 23.8543 6.21459 23.2402 7.94999C22.5553 9.88518 20.9312 14.396 20.7592 14.8406C20.7122 14.9624 19.9482 15.3886 18.6429 16.0211L16.6003 17.0109L16.6706 18.9304C16.7364 20.7268 16.7245 20.9399 16.4863 22.25C16.3464 23.02 15.9822 25.0675 15.6772 26.7999C15.3724 28.5324 15.1002 30.0511 15.0726 30.1749C15.0452 30.2987 15.0605 30.3999 15.1066 30.3999C15.1528 30.3999 15.7616 29.6652 16.4595 28.7673L17.7282 27.1347L19.1986 26.3044C20.0073 25.8477 20.6798 25.4652 20.6931 25.4545C20.7177 25.4346 20.9921 24.0212 21.5194 21.2C21.6787 20.3475 21.948 18.9075 22.1176 18C22.2874 17.0925 22.4483 16.2754 22.4753 16.1841C22.5249 16.0157 22.6925 15.9103 25.3788 14.3573C26.6303 13.6338 27.2178 13.206 28.7657 11.891C29.7959 11.0159 30.6762 10.3 30.7221 10.3C31.0146 10.3 30.5938 10.7628 28.9902 12.2049C27.3496 13.6803 26.9823 13.9557 25.171 15.0685C24.0688 15.7456 23.1344 16.3109 23.0946 16.3248C23.0346 16.3457 22.4179 19.9344 22.0076 22.65C21.9495 23.035 21.8042 23.9346 21.6849 24.6491L21.4679 25.9481L19.9105 26.899L18.3531 27.8499L17.2407 29.3483C16.1829 30.7732 16.1392 30.851 16.3514 30.9338C16.6833 31.0634 19.7641 31.0472 20.5691 30.9117C22.6886 30.5547 24.9595 29.7339 26.3179 28.8338C26.6621 28.6057 26.6822 28.5654 26.61 28.245C26.5675 28.0559 26.0358 27.0982 25.4286 26.1168C24.8214 25.1353 24.2779 24.2237 24.2209 24.0911C24.1639 23.9585 23.9779 22.9725 23.8074 21.9C23.3567 19.0642 23.3078 18.6934 23.3705 18.5917C23.4706 18.4295 23.8984 18.4906 23.9534 18.675C23.9821 18.7713 24.2845 19.9071 24.6253 21.1991L25.245 23.5483L26.6685 25.4235C27.4515 26.4548 28.1117 27.3552 28.1358 27.4242C28.1796 27.5503 28.999 26.8388 29.6924 26.0728C30.0848 25.6393 30.0875 25.8806 29.6578 23.05C29.5158 22.115 29.2654 20.45 29.1014 19.35C28.9373 18.25 28.7675 17.1228 28.7241 16.8451C28.641 16.3148 28.6666 16.1 28.8127 16.1C28.9365 16.1 29.0022 16.3881 29.8614 20.7C30.2832 22.8175 30.6628 24.6133 30.7048 24.6906C30.7589 24.7905 30.9306 24.6023 31.2976 24.0406C32.3871 22.3733 33.1344 20.517 33.5642 18.4102C33.8043 17.2334 33.818 17.0177 33.7708 15.15C33.7071 12.6237 33.4292 11.3123 32.5161 9.22918C31.4958 6.90139 29.6142 4.53669 27.5986 3.04899C26.8017 2.4609 25.1818 1.5 24.9871 1.5C24.877 1.5 24.7366 2.0313 24.4124 3.67499ZM8.8319 3.20269C7.70569 4.07559 5.73869 6.16919 5.73869 6.49499C5.73869 6.55919 6.29366 7.34029 6.97186 8.23078C8.12024 9.73858 8.2277 9.91828 8.53369 10.842C8.91619 11.9964 8.81432 12.0361 9.75188 10.3666L10.3603 9.28308L10.0869 7.46659C9.93654 6.46749 9.71563 5.00399 9.59599 4.21449L9.37838 2.779L8.8319 3.20269ZM4.34853 8.71708C3.80575 9.87318 3.34755 11.2348 3.07481 12.5024C2.79249 13.8146 2.81406 17.3947 3.11226 18.7C3.88414 22.0798 5.53506 24.9365 7.95047 27.0721C9.01286 28.0114 10.4045 28.9692 10.5248 28.8437C10.5742 28.7921 10.6695 28.4124 10.7365 27.9999L10.8583 27.25L9.5851 22.4C8.43153 18.0062 8.02407 16.3442 7.02269 11.95C6.711 10.5822 6.68444 10.5184 5.86642 9.17768C5.40593 8.42288 4.98519 7.77809 4.93136 7.74479C4.87743 7.71149 4.61518 8.14899 4.34853 8.71708ZM0.0653916 36.1799C0.0201514 36.2734 -0.00831131 36.4062 0.00217483 36.4749C0.012661 36.5437 0.0268424 36.6899 0.0337333 36.7999C0.0455177 36.9881 0.116923 36.9999 1.24323 36.9999H2.44035L2.46662 40.2749L2.49298 43.5499L3.21702 43.5793L3.94107 43.6087V40.3075V37.0062L5.11062 36.9781L6.28007 36.9499L6.35547 36.5999C6.39702 36.4074 6.4111 36.1927 6.38673 36.1228C6.35218 36.0234 5.66639 35.9972 3.24509 36.0028C0.433305 36.0093 0.140193 36.0256 0.0653916 36.1799ZM7.46011 36.0808C7.36164 36.1453 7.33977 36.9693 7.36025 39.8566L7.38651 43.5499L10.2577 43.5764L13.1289 43.603V43.1534V42.7039L11.0067 42.6769L8.88453 42.6499V41.3999V40.1499L10.2468 40.1221C11.559 40.0954 11.6112 40.0862 11.6685 39.8721C11.7013 39.7499 11.7287 39.5487 11.7294 39.4249C11.7308 39.2018 11.7182 39.1999 10.2827 39.1999H8.8346V38.0999V36.9999H10.7851C12.9218 36.9999 12.8347 37.026 12.8644 36.3765L12.8792 36.0499L10.2327 36.0241C8.77717 36.0099 7.52952 36.0354 7.46011 36.0808ZM14.2275 39.7999V43.5999H14.9765H15.7255V42.1957V40.7915L16.4993 40.8207L17.273 40.8499L18.2183 42.2249L19.1634 43.5999H19.9518C20.5418 43.5999 20.7281 43.5684 20.6918 43.4749C20.6653 43.4062 20.211 42.7239 19.6825 41.9588C19.154 41.1937 18.7215 40.5367 18.7215 40.4988C18.7215 40.4608 18.9435 40.2916 19.2148 40.1227C19.841 39.7329 20.1197 39.2181 20.1197 38.4507C20.1197 38.1442 20.0575 37.7487 19.9815 37.5717C19.8007 37.1507 19.1674 36.5499 18.6983 36.3541C18.221 36.1551 16.7852 36.0038 15.351 36.0016L14.2275 35.9999V39.7999ZM21.8424 36.064C21.7457 36.1047 21.7176 36.9599 21.7176 39.8598V43.603L24.5888 43.5764L27.46 43.5499L27.4906 43.1249L27.5214 42.6999H25.3684H23.2156V41.3999V40.0999H24.6137C25.7335 40.0999 26.0119 40.0725 26.0119 39.9624C26.0119 39.8868 26.0399 39.6843 26.0743 39.5124L26.1367 39.1999H24.6762H23.2156V38.0999V36.9999H25.1571C26.225 36.9999 27.1192 36.9662 27.1443 36.9249C27.1694 36.8836 27.2057 36.6699 27.2251 36.4499L27.2602 36.0499L24.6137 36.0307C23.1582 36.0201 21.9111 36.0351 21.8424 36.064ZM28.56 36.215C28.5286 36.3442 28.5154 38.0474 28.5307 39.9999L28.5585 43.5499L29.0329 43.5804L29.5073 43.6109V40.9054C29.5073 39.4174 29.5409 38.2032 29.5822 38.2071C29.6234 38.2111 30.5559 39.4241 31.6544 40.9025L33.6518 43.5907L34.3259 43.5953L35 43.5999V39.7999V35.9999L34.6255 36.0014C34.4196 36.0023 34.1956 36.0382 34.1279 36.0813C34.0365 36.1394 33.9978 36.8408 33.9781 38.801L33.9514 41.4424L31.9629 38.7962C30.8693 37.3407 29.9599 36.1318 29.942 36.1096C29.9241 36.0874 29.6187 36.0492 29.2634 36.0246C28.6512 35.9823 28.6142 35.9923 28.56 36.215ZM17.7029 37.1404C18.238 37.4192 18.4566 37.7597 18.496 38.3763C18.5662 39.4717 17.9235 39.9937 16.4995 39.9977L15.7255 39.9999V38.4999V36.9999H16.5794C17.118 36.9999 17.5327 37.0517 17.7029 37.1404ZM15.5258 47.1999C15.5258 47.3144 15.4591 47.3999 15.3701 47.3999C15.2845 47.3999 15.2426 47.4456 15.2771 47.5015C15.3116 47.5574 15.3816 47.5773 15.4328 47.5456C15.4867 47.5123 15.5258 47.7753 15.5258 48.1717C15.5258 48.9898 15.692 49.2999 16.1307 49.2999C16.2923 49.2999 16.4246 49.254 16.4246 49.198C16.4246 49.1402 16.3202 49.1223 16.1831 49.1568C15.8433 49.2422 15.7092 48.9403 15.7458 48.1727C15.7726 47.6081 15.7959 47.5496 15.9948 47.5469C16.1155 47.5452 16.2465 47.5115 16.286 47.4719C16.3256 47.4323 16.2156 47.3999 16.0418 47.3999C15.7921 47.3999 15.7255 47.3578 15.7255 47.1999C15.7255 47.0899 15.6805 46.9999 15.6256 46.9999C15.5707 46.9999 15.5258 47.0899 15.5258 47.1999ZM17.0374 47.1281C17.0299 47.2261 16.9227 47.347 16.7991 47.3968C16.5807 47.4847 16.5902 47.5115 16.849 47.5374C16.9346 47.546 16.9831 47.8003 17.0034 48.3468C17.0213 48.829 17.0805 49.174 17.1532 49.2203C17.3337 49.3351 17.8227 49.3153 17.8227 49.1932C17.8227 49.1339 17.7385 49.1132 17.6335 49.1466C17.297 49.2535 17.1236 48.9497 17.1236 48.2535C17.1236 47.7678 17.1605 47.6072 17.2824 47.5603C17.3698 47.5267 17.4791 47.5226 17.5252 47.5512C17.5714 47.5798 17.6374 47.5574 17.6719 47.5015C17.7091 47.4413 17.6129 47.3999 17.4361 47.3999C17.2058 47.3999 17.1276 47.3484 17.0943 47.1749C17.0643 47.0191 17.0467 47.0047 17.0374 47.1281ZM11.3619 47.6412C11.1292 47.8416 11.0816 47.9619 11.0816 48.3499C11.0816 48.7379 11.1292 48.8582 11.3619 49.0586C11.6837 49.3358 12.2767 49.384 12.5853 49.1581C12.8766 48.9449 12.7072 48.8765 12.341 49.0594C11.9453 49.257 11.5175 49.1193 11.3443 48.7384C11.2016 48.4248 11.2024 48.2732 11.3484 47.9522C11.5119 47.5929 12.2 47.444 12.4748 47.7085C12.6636 47.8904 12.7558 47.7948 12.5796 47.5999C12.3194 47.3119 11.7206 47.3322 11.3619 47.6412ZM13.3592 47.6412C13.1265 47.8416 13.079 47.9619 13.079 48.3499C13.079 48.7379 13.1265 48.8582 13.3592 49.0586C14.0131 49.6217 14.9299 49.2124 14.9233 48.3603C14.92 47.9163 14.7998 47.6981 14.4588 47.5162C14.1066 47.3284 13.6639 47.3788 13.3592 47.6412ZM18.4968 47.5079C18.1844 47.6901 18.3125 47.7937 18.6668 47.6455C19.1628 47.4379 19.6203 47.6537 19.6203 48.0952C19.6203 48.1386 19.3511 48.2046 19.022 48.2418C18.4208 48.31 18.2222 48.4576 18.2222 48.8362C18.2222 49.2346 19.0889 49.4811 19.4131 49.1749C19.519 49.0749 19.5546 49.0749 19.5912 49.1749C19.6163 49.2437 19.6831 49.2999 19.7395 49.2999C19.8036 49.2999 19.828 49.023 19.8045 48.5587C19.7595 47.6649 19.581 47.3983 19.0306 47.4029C18.8332 47.4046 18.593 47.4518 18.4968 47.5079ZM20.6113 47.6922C20.2392 48.0649 20.2277 48.4755 20.578 48.8922C20.7862 49.1401 20.9131 49.1999 21.2306 49.1999C21.4474 49.1999 21.741 49.1236 21.8831 49.0304L22.1415 48.8609L22.0713 49.2054C21.942 49.8407 21.4247 50.0636 20.8138 49.7473C20.6518 49.6634 20.5191 49.6393 20.5191 49.6938C20.5191 50.0359 21.6981 50.1194 22.0172 49.7999C22.1948 49.622 22.2156 49.4756 22.2053 48.4749C22.1989 47.8562 22.1732 47.4287 22.1481 47.5249C22.0931 47.7355 22.0278 47.7393 21.7734 47.5467C21.4463 47.299 20.9408 47.3623 20.6113 47.6922ZM23.1463 47.6412C22.9136 47.8416 22.866 47.9619 22.866 48.3499C22.866 48.7379 22.9136 48.8582 23.1463 49.0586C23.4706 49.338 24.0652 49.3839 24.37 49.1531C24.5928 48.9843 24.4438 48.9555 24.0747 49.096C23.6288 49.2657 23.0158 48.9244 23.0158 48.5065C23.0158 48.4399 23.3158 48.3999 23.8148 48.3999C24.6042 48.3999 24.6137 48.3969 24.6137 48.1454C24.6137 47.484 23.6951 47.1685 23.1463 47.6412ZM14.562 47.7981C14.8513 48.0758 14.8093 48.6892 14.4815 48.9715C14.171 49.2389 14.0206 49.2531 13.6317 49.0516C13.4474 48.9563 13.3212 48.7934 13.2776 48.595C13.0937 47.7562 13.9589 47.2193 14.562 47.7981ZM21.8591 47.8048C22.1467 48.0813 22.1088 48.5813 21.7786 48.8657C21.4286 49.1671 21.0725 49.1631 20.7643 48.8544C20.3579 48.4475 20.4516 47.8631 20.9586 47.6435C21.3114 47.4907 21.5828 47.5393 21.8591 47.8048ZM24.2392 47.7772C24.3353 47.8617 24.414 48.0139 24.414 48.1154C24.414 48.2772 24.3278 48.2999 23.7149 48.2999C22.993 48.2999 22.9266 48.2537 23.1222 47.8877C23.3312 47.4966 23.8606 47.4443 24.2392 47.7772ZM19.6203 48.5928C19.6203 49.0005 19.018 49.3123 18.6309 49.1049C18.3994 48.9808 18.3572 48.7047 18.5418 48.5199C18.6077 48.4539 18.8773 48.3999 19.141 48.3999C19.5478 48.3999 19.6203 48.4291 19.6203 48.5928Z" fill="white"/>
</svg>
