<svg width="48" height="51" viewBox="0 0 48 51" fill="none" xmlns="http://www.w3.org/2000/svg">
<path fill-rule="evenodd" clip-rule="evenodd" d="M22.9742 0.0560152C23.016 0.0930346 23.9073 0.166355 24.9552 0.219008C26.2905 0.286218 26.562 0.271483 25.8625 0.169589C24.8185 0.0175581 22.8438 -0.0602545 22.9742 0.0560152ZM21.5554 0.29736C21.8312 0.338513 22.2395 0.337435 22.4627 0.294844C22.6859 0.252254 22.4602 0.218469 21.9612 0.219727C21.4622 0.221165 21.2796 0.256028 21.5554 0.29736ZM19.4003 0.477426C19.5306 0.606455 20.8044 0.56009 20.9481 0.421178C20.9897 0.380923 20.6289 0.348037 20.1466 0.348037C19.6643 0.348037 19.3284 0.406262 19.4003 0.477426ZM28.1306 0.610049C28.8292 0.729194 29.6866 0.89021 30.0359 0.967663C30.3852 1.0453 30.6142 1.04979 30.5447 0.977727C30.3537 0.779511 28.217 0.35846 27.4956 0.37697C27.067 0.387932 27.2736 0.463768 28.1306 0.610049ZM17.8784 0.761181C17.3653 0.883741 17.1967 0.979164 17.4248 1.01798C17.6244 1.05195 18.1143 0.961194 18.5135 0.816351C19.3602 0.509234 19.0474 0.482098 17.8784 0.761181ZM15.8824 1.42627C15.4333 1.61299 15.1883 1.76807 15.338 1.77095C15.4878 1.77382 15.9369 1.62323 16.3361 1.43616C17.2791 0.99408 16.9399 0.986712 15.8824 1.42627ZM31.1247 1.2162C31.2744 1.30785 31.601 1.43688 31.8505 1.50301C32.1657 1.58657 32.221 1.57237 32.0319 1.45664C31.8822 1.36499 31.5556 1.23596 31.3061 1.16983C30.9909 1.08627 30.9356 1.10047 31.1247 1.2162ZM33.6355 2.24304C37.7623 4.14558 40.9454 6.80505 44.0671 10.959C44.3945 11.3946 44.3947 11.3933 44.0867 10.8608C42.9837 8.95451 39.5999 5.59635 37.2197 4.04639C35.7258 3.07328 32.8189 1.59052 32.4589 1.61766C32.3738 1.62413 32.9033 1.90555 33.6355 2.24304ZM13.705 2.3248C13.1561 2.61197 12.7886 2.84703 12.8884 2.84703C12.9882 2.84703 13.519 2.61197 14.0679 2.3248C14.6168 2.03763 14.9842 1.80258 14.8844 1.80258C14.7846 1.80258 14.2539 2.03763 13.705 2.3248ZM19.9022 2.1566C15.5175 3.01362 11.6155 5.02057 8.52586 8.008C6.93232 9.5488 6.39231 10.1853 5.3386 11.7646C2.97768 15.303 1.73072 19.4612 1.72945 23.8007L1.72891 25.7786L2.22791 25.9901C2.50245 26.1065 3.54346 26.5213 4.54146 26.9118C6.683 27.75 13.2105 30.3715 15.7917 31.43C18.5239 32.5506 20.4395 33.2772 20.4765 33.2071C20.4946 33.1726 20.6728 32.8209 20.8724 32.4255C21.2408 31.6959 21.6355 31.2799 24.9203 28.1586C25.9339 27.1956 26.9891 26.0695 27.2655 25.6564C27.7637 24.9113 27.7683 24.8786 27.8265 21.4691L27.8853 18.0325L27.1143 17.6814C26.1406 17.2381 25.6659 16.6012 25.5502 15.5835C25.4094 14.3473 26.1822 13.1878 27.4048 12.8009L27.9492 12.6286L28.0004 10.4083C28.0296 9.1477 28.1372 8.086 28.2495 7.95211C28.3979 7.77492 29.1813 7.71598 31.3899 7.71598H34.3326L34.5431 8.17369C34.6618 8.43139 34.7538 9.48483 34.7538 10.5837V12.5361L35.5634 12.9242C37.7501 13.9724 37.6227 17.0494 35.3622 17.7883L34.7538 17.9871V20.9057C34.7538 25.3241 34.6701 25.1433 38.3791 28.7416C40.0601 30.3724 41.5621 31.9597 41.7171 32.2692C42.3713 33.5755 42.5511 34.4296 42.5536 36.2443C42.5552 37.2877 42.6311 38.0863 42.7289 38.0863C42.8238 38.0863 43.3718 37.965 43.9465 37.8167C44.5213 37.6685 45.2602 37.5472 45.5885 37.5472H46.1854V29.5335C46.1854 22.1568 46.1557 21.3749 45.8122 19.6946C44.4045 12.8119 40.1023 7.1907 33.9133 4.14774C29.5175 1.98642 24.4547 1.26687 19.9022 2.1566ZM11.3288 3.60125C10.2607 4.27857 9.39811 4.94006 10.0758 4.56178C10.4907 4.33032 12.4912 3.04758 12.5899 2.95C12.8467 2.69554 12.3611 2.94641 11.3288 3.60125ZM7.59935 6.52741C5.51297 8.49573 3.74233 10.7624 2.70858 12.7882C2.36926 13.4529 2.09581 14.0594 2.10053 14.136C2.10543 14.2125 2.35837 13.79 2.66267 13.197C4.02704 10.5388 7.03393 6.89724 9.16313 5.32463C9.50934 5.06891 9.74596 4.81337 9.6888 4.75694C9.63183 4.70034 8.69153 5.49715 7.59935 6.52741ZM17.8804 6.86238C18.3522 7.62864 18.3351 8.43355 17.8138 10.0096C17.5787 10.7203 17.4177 11.3329 17.456 11.3708C17.4941 11.4088 17.8703 11.3737 18.2916 11.2928C19.4291 11.0749 21.0891 11.1119 22.3691 11.384C24.1998 11.7728 24.3988 12.1299 23.5358 13.4763C22.4799 15.1235 20.5164 16.1388 18.0448 16.3156L16.4206 16.4317L16.8657 17.0794C17.266 17.6614 17.4139 17.7375 18.3292 17.8309C20.0746 18.0094 21.517 19.1034 22.431 20.9425C22.7953 21.6757 22.8684 22.0939 22.8684 23.444C22.8684 24.8296 22.8011 25.1949 22.4048 25.9583C21.8683 26.992 20.8967 27.732 19.6554 28.0524C18.9256 28.2407 18.6558 28.2274 17.8029 27.9613C15.4736 27.234 14.0524 25.3284 13.9194 22.7538C13.8331 21.0823 14.1593 20.0548 15.106 19.0171C15.8566 18.1941 15.8184 18.0038 14.6574 16.7857C13.4017 15.4683 12.6224 14.9305 10.3687 13.826C8.47069 12.8958 8.35202 12.8058 8.35202 12.2985C8.35202 11.5078 8.998 11.5105 10.695 12.3082C11.4643 12.6699 12.1176 12.937 12.147 12.9018C12.1762 12.8664 12.3003 12.312 12.4226 11.6695C12.9024 9.14967 13.9907 7.62775 15.9731 6.70442C17.1742 6.14499 17.4529 6.16799 17.8804 6.86238ZM15.4832 8.84184C14.6153 9.59319 14.1107 10.6035 13.9584 11.8941C13.8097 13.1542 13.9802 13.2038 14.8864 12.1637C15.7264 11.1996 16.3834 9.93517 16.5362 8.98884C16.685 8.06695 16.4206 8.03011 15.4832 8.84184ZM29.4916 10.9507V12.568H31.3061H33.1207V10.9507V9.33333H31.3061H29.4916V10.9507ZM44.3709 11.623C44.3709 11.7358 44.4455 11.8737 44.5366 11.9295C44.6278 11.9853 44.8821 12.3986 45.1018 12.848C45.3214 13.2973 45.5331 13.6333 45.5723 13.5947C45.6523 13.5155 44.7942 11.8525 44.5373 11.5886C44.4329 11.4815 44.3709 11.4943 44.3709 11.623ZM17.5611 13.0254C16.5342 13.2993 15.2482 13.893 15.0728 14.1744C14.9022 14.4476 16.3943 14.7644 17.7545 14.7439C19.6215 14.7159 20.3745 14.4729 21.4985 13.5365C21.9354 13.1724 22.0185 13.0171 21.8378 12.9037C21.458 12.6651 18.6075 12.7463 17.5611 13.0254ZM45.6621 13.9158C45.6723 14.2296 46.3397 15.5452 46.3458 15.2636C46.3491 15.1154 46.1952 14.711 46.004 14.3651C45.8127 14.0192 45.6589 13.817 45.6621 13.9158ZM27.4329 14.5141C26.9926 14.9959 27.0466 15.9023 27.536 16.2418C27.8663 16.4709 28.5571 16.5216 31.3547 16.5216C34.7391 16.5216 34.7743 16.5176 35.2156 16.0804C35.7556 15.5458 35.7835 15.0255 35.2981 14.5448C34.9595 14.2095 34.6933 14.1854 31.3342 14.1854C28.076 14.1854 27.7046 14.2167 27.4329 14.5141ZM1.73399 14.8011C1.46434 15.5035 1.51769 15.6141 1.84105 15.0232C1.99456 14.7425 2.0753 14.4686 2.02032 14.4142C1.96552 14.3597 1.83651 14.5338 1.73399 14.8011ZM10.3992 15.5427C11.3968 15.9553 12.047 16.665 12.3484 17.6701C12.8942 19.4909 12.532 21.1637 11.3068 22.4797C8.91254 25.0519 5.65959 24.409 4.80838 21.1957C3.9227 17.8516 7.42352 14.3117 10.3992 15.5427ZM1.21648 16.1489C0.91526 17.0043 0.964072 17.2718 1.28688 16.535C1.43531 16.1967 1.52803 15.8349 1.4932 15.7312C1.45836 15.6277 1.3337 15.8155 1.21648 16.1489ZM46.3669 15.668C46.3669 15.6928 46.5698 16.3598 46.8178 17.1505C47.0659 17.9412 47.2794 18.7499 47.2925 18.9476C47.3112 19.2299 47.3335 19.2427 47.3963 19.0074C47.4741 18.7161 46.6062 15.623 46.4466 15.623C46.4028 15.623 46.3669 15.6432 46.3669 15.668ZM8.30993 16.9638C6.50771 17.7522 5.67011 20.108 6.63963 21.6615C7.80584 23.5303 10.7253 22.1516 11.0548 19.5766C11.2996 17.6634 9.85465 16.288 8.30993 16.9638ZM0.581564 18.361C0.414262 19.0207 0.284703 19.6653 0.293595 19.7933C0.302667 19.9211 0.463981 19.4598 0.65215 18.7679C0.840319 18.076 0.969878 17.4316 0.94012 17.3356C0.910179 17.2399 0.748866 17.7012 0.581564 18.361ZM29.4916 20.8866C29.4916 22.9207 29.4077 24.1327 29.2168 24.8583C28.9007 26.0607 27.9503 27.5701 26.9842 28.4043C24.7371 30.3444 22.6298 32.4227 22.2698 33.0538L21.8527 33.7852L22.8142 34.2089C23.3431 34.442 24.7148 35.0083 25.8625 35.4672C27.0102 35.9262 28.0717 36.3769 28.2214 36.4688C28.4545 36.6116 28.4952 37.5324 28.505 42.8868L28.5164 49.1382L31.3584 49.1876L34.2001 49.2372L34.2969 48.7383C34.35 48.4641 34.5262 47.6736 34.6886 46.9817C35.3939 43.9742 37.366 41.2435 40.1584 39.4078L41.147 38.7582L41.0673 36.5802C40.9584 33.6041 40.6997 33.0493 38.4123 30.8889C37.448 29.9781 36.1907 28.7878 35.6184 28.2438C33.6024 26.3279 33.0811 24.7819 33.1236 20.8464C33.1379 19.5056 33.1432 18.3075 33.1352 18.1839C33.1247 18.0201 32.6291 17.9592 31.3061 17.9592H29.4916V20.8866ZM17.2622 19.4037C16.5237 19.6228 15.7937 20.3711 15.5211 21.1889C15.0205 22.6912 15.7209 24.8844 17.0385 25.9405C17.6489 26.4297 17.8663 26.4953 18.8786 26.4953C19.8376 26.4953 20.1023 26.425 20.4858 26.0683C20.9804 25.6079 21.5075 24.2989 21.5075 23.5306C21.5075 21.9839 20.3807 20.1466 19.0708 19.5573C18.2584 19.192 18.0397 19.1733 17.2622 19.4037ZM47.4843 19.936C47.4843 20.1831 47.5255 20.2843 47.5758 20.1606C47.6262 20.0372 47.6262 19.835 47.5758 19.7114C47.5255 19.5879 47.4843 19.6889 47.4843 19.936ZM0.150245 21.3736C0.150245 21.9172 0.184177 22.1395 0.22573 21.8678C0.267283 21.5961 0.267283 21.1513 0.22573 20.8794C0.184177 20.6075 0.150245 20.83 0.150245 21.3736ZM47.689 21.2838C47.6904 21.778 47.7256 21.9588 47.7674 21.6856C47.8089 21.4124 47.8078 21.0081 47.7648 20.7871C47.7218 20.566 47.6877 20.7896 47.689 21.2838ZM47.8991 27.6633C47.8991 30.6779 47.924 31.911 47.9543 30.4039C47.9846 28.8967 47.9846 26.43 47.9543 24.9228C47.924 23.4156 47.8991 24.6488 47.8991 27.6633ZM0 34.2226C0 40.7459 0.0226819 43.3885 0.0504445 40.0949C0.0780257 36.8014 0.0780257 31.4641 0.050263 28.2343C0.0226818 25.0046 0 27.6993 0 34.2226ZM1.72891 31.8864V36.2892H12.5618C19.1078 36.2892 23.3264 36.2242 23.2223 36.125C23.0677 35.9778 18.9408 34.2555 17.3341 33.6679C16.9848 33.5399 15.6783 33.0177 14.4308 32.5071C13.1833 31.9964 11.5502 31.343 10.8017 31.0549C10.0532 30.7667 9.27744 30.4536 9.07784 30.3589C8.87824 30.2642 8.10252 29.9537 7.35402 29.6687C6.60552 29.3835 5.07222 28.7754 3.94665 28.3169C2.8209 27.8587 1.86155 27.4836 1.81455 27.4836C1.76737 27.4836 1.72891 29.4649 1.72891 31.8864ZM47.8643 35.3008C47.8663 35.6962 47.9035 35.8367 47.9468 35.6132C47.9902 35.3896 47.9886 35.0661 47.9432 34.8943C47.8978 34.7225 47.8623 34.9055 47.8643 35.3008ZM47.8973 41.0514C47.8971 43.5224 47.9227 44.5582 47.9541 43.3531C47.9853 42.1482 47.9855 40.1265 47.9543 38.8605C47.9231 37.5946 47.8973 38.5805 47.8973 41.0514ZM1.865 37.8309C1.79006 37.9055 1.72891 39.8627 1.72891 42.1802C1.72891 46.393 1.72909 46.3941 2.20722 47.2644C3.14353 48.9682 4.27418 49.3628 7.94375 49.2669C9.7583 49.2194 9.89439 49.1907 9.89439 48.8553C9.89439 48.3955 10.4698 47.286 10.9931 46.7373C11.8392 45.8498 13.7543 45.529 15.0374 46.0598C15.8748 46.4063 16.9546 47.7151 17.0889 48.5459C17.1493 48.9211 17.2702 49.2295 17.3573 49.2313C17.4444 49.2331 19.6182 49.236 22.188 49.2378L26.8605 49.2408V43.54V37.8392L19.5115 37.8599L12.1626 37.8805L11.7768 38.9814C11.3097 40.3141 10.8169 40.875 9.62221 41.4329C8.43894 41.9855 7.47723 41.9753 6.30684 41.3977C5.17075 40.837 4.32916 39.7728 4.16512 38.6896C4.06786 38.0473 3.97695 37.9062 3.65886 37.9046C3.44565 37.9035 2.98548 37.8559 2.63618 37.7989C2.28688 37.742 1.93994 37.7563 1.865 37.8309ZM5.59971 38.0104C5.4237 38.4642 6.2074 39.6476 6.94139 40.0366C7.53402 40.3509 8.64816 40.2817 9.29577 39.8905C10.1504 39.3746 10.8102 37.9339 10.2119 37.8899C8.65179 37.7752 5.66068 37.8534 5.59971 38.0104ZM44.1894 39.3331C42.6717 39.7534 41.8811 40.0997 40.8194 40.8094C38.2462 42.5293 36.3654 45.4382 35.9283 48.3744L35.8013 49.2281H37.6364C38.6458 49.2281 39.5302 49.2311 39.6019 49.2347C39.6736 49.2383 39.8365 48.6291 39.9642 47.8808C40.2468 46.2244 40.6502 45.4151 41.6794 44.4398C42.7184 43.4554 43.7002 42.9906 45.0648 42.8377L46.1854 42.7123V40.8485C46.1854 38.6899 46.2727 38.756 44.1894 39.3331ZM22.5298 39.6891C24.0434 40.6029 24.5983 42.3683 23.8336 43.8354C23.0931 45.2558 21.6636 45.8749 20.115 45.4454C17.3315 44.6736 16.9659 40.9052 19.552 39.6427C20.3774 39.2396 21.8231 39.2623 22.5298 39.6891ZM19.8605 41.3072C19.0111 42.1484 19.2119 43.3901 20.2784 43.8913C22.1321 44.7625 23.5391 42.4026 21.9185 41.1402C21.2499 40.6192 20.493 40.6807 19.8605 41.3072ZM43.5113 44.9191C42.1865 45.6715 41.4427 46.9393 41.5103 48.3295L41.5583 49.3179L42.4271 49.2609C44.6805 49.1132 46.172 47.5473 46.1814 45.3194L46.1854 44.376L45.3235 44.3776C44.6997 44.3789 44.1991 44.5284 43.5113 44.9191ZM47.7356 45.8012C47.6781 45.8932 47.7142 46.0192 47.8156 46.0814C47.9171 46.1434 48 46.0681 48 45.9141C48 45.5984 47.8911 45.552 47.7356 45.8012ZM0.124478 46.5325C0.124478 46.7796 0.165669 46.8807 0.215932 46.7571C0.266376 46.6336 0.266376 46.4315 0.215932 46.3078C0.165669 46.1844 0.124478 46.2854 0.124478 46.5325ZM47.569 46.9143C47.4177 47.6634 47.5643 47.8086 47.7278 47.0716C47.7968 46.7609 47.8153 46.4694 47.769 46.4236C47.7227 46.3777 47.6327 46.5986 47.569 46.9143ZM0.277264 47.3144C0.277264 47.6161 0.882054 48.5743 1.49991 49.2518C2.13972 49.9532 3.28996 50.6697 3.76302 50.6617C3.89185 50.6596 3.66177 50.507 3.25204 50.3226C2.2123 49.855 1.79985 49.4777 0.985665 48.2488C0.59608 47.6608 0.277264 47.2403 0.277264 47.3144ZM12.174 47.8353C11.8338 48.1566 11.5028 48.6012 11.4386 48.8237C11.3219 49.2272 11.3268 49.2281 13.5113 49.2281C14.7157 49.2281 15.701 49.1797 15.701 49.1204C15.701 48.7378 15.0666 47.8152 14.6267 47.5579C13.773 47.0585 12.8908 47.1582 12.174 47.8353ZM47.2742 47.9363C47.2742 48.0494 46.8047 48.6079 46.2308 49.1772C45.6302 49.7731 45.4324 50.0401 45.7646 49.8065C46.454 49.3222 47.546 47.9996 47.3869 47.842C47.3248 47.7807 47.2742 47.8231 47.2742 47.9363ZM44.3709 50.4111C44.0882 50.5665 44.0239 50.6614 44.2001 50.663C44.3556 50.6644 44.6414 50.5469 44.8352 50.4019C45.2756 50.072 44.9773 50.0779 44.3709 50.4111ZM4.22392 50.7847C4.34876 50.8346 4.55289 50.8346 4.67755 50.7847C4.80239 50.7349 4.70024 50.6941 4.45073 50.6941C4.20123 50.6941 4.09926 50.7349 4.22392 50.7847ZM43.2368 50.7847C43.3616 50.8346 43.5658 50.8346 43.6904 50.7847C43.8153 50.7349 43.7131 50.6941 43.4636 50.6941C43.2141 50.6941 43.1121 50.7349 43.2368 50.7847ZM14.4901 50.9802C19.7621 51.0066 28.3359 51.0066 33.5429 50.9802C38.7498 50.9536 34.4362 50.932 23.9572 50.932C13.4781 50.932 9.21793 50.9536 14.4901 50.9802Z" fill="white"/>
</svg>
