<svg width="111" height="38" viewBox="0 0 111 38" fill="none" xmlns="http://www.w3.org/2000/svg">
<path fill-rule="evenodd" clip-rule="evenodd" d="M65.9159 0.154659C65.6067 0.234895 65.2294 0.413186 65.0776 0.550848C64.5487 1.03011 64.612 2.53929 65.1826 3.05645C65.3539 3.21159 65.7359 3.34766 66.2299 3.42926C67.1388 3.57941 67.1759 3.6677 66.6478 4.41957C65.9504 5.41237 65.6876 6.00988 65.7676 6.42105C65.8084 6.63101 65.894 6.80283 65.9578 6.80283C66.2778 6.80283 66.9024 6.43592 67.4358 5.93464C68.3308 5.09381 68.5705 4.39721 68.5847 2.59716L68.5958 1.17209L68.1305 0.582735C67.6756 0.00677961 67.6517 -0.00627162 67.0717 0.00110515C66.7452 0.00541773 66.2252 0.074422 65.9159 0.154659ZM46.4779 1.13531C45.8719 1.2143 44.863 1.61401 44.6809 1.84746C44.3903 2.21993 44.3315 3.05032 44.3696 6.23539C44.3916 8.07675 44.4324 12.3156 44.4603 15.655C44.4882 18.9944 44.5502 21.945 44.5982 22.2119C44.7207 22.8934 45.1636 23.183 46.0834 23.183C46.6463 23.183 46.8282 23.1338 47.0684 22.9162C47.6874 22.3552 47.6986 22.1918 47.6975 13.6689C47.6965 4.78807 47.6955 4.84799 47.8403 4.51115C48.0331 4.06196 48.4441 3.97957 50.8897 3.89956C53.1827 3.82466 53.6167 3.81887 55.583 3.83771L56.8056 3.84929L57.2556 4.31947L57.7056 4.78965L57.6927 7.52701C57.6712 12.088 57.6812 14.2022 57.7276 14.9173C57.7519 15.2918 57.7529 16.0068 57.7299 16.5061C57.6329 18.6092 57.7576 21.7663 57.9636 22.4222C58.1458 23.0023 58.4056 23.1426 59.4411 23.2196C60.3773 23.2892 60.3814 23.2883 60.6175 22.9621C61.0122 22.4166 61.1356 21.1815 61.0282 18.8499C60.9755 17.7047 60.9726 16.482 61.0217 16.1327C61.0708 15.7834 61.0896 15.4644 61.0635 15.4237C61.0151 15.3481 60.9978 11.235 61.0269 6.74609C61.0363 5.30319 60.979 3.73693 60.8914 3.03546C60.7536 1.93484 60.7074 1.79185 60.3953 1.50336L60.0509 1.18514L53.6915 1.16369C50.1938 1.15188 47.2722 1.12351 47.1991 1.10047C47.126 1.07755 46.8014 1.09321 46.4779 1.13531ZM105.739 1.19036C105.462 1.26912 105.162 1.39237 105.073 1.46421C104.652 1.8007 104.598 3.48998 104.645 14.7207C104.658 17.8739 104.623 19.3085 104.524 19.6259C104.284 20.3994 104.221 20.4055 97.361 20.3247C95.1387 20.2985 94.9645 20.2683 94.7727 19.8769C94.5817 19.4873 94.5572 18.9315 94.5559 14.974C94.5553 13.1951 94.5509 11.4332 94.5462 11.0587C94.5414 10.6842 94.5243 8.56475 94.5081 6.34888C94.4793 2.40957 94.4726 2.30833 94.2095 1.79321C93.9642 1.31292 93.8946 1.25981 93.4209 1.19126C92.7815 1.09877 92.0484 1.29556 91.7001 1.65328C91.4625 1.89705 91.4348 2.08385 91.3431 4.04812C91.2884 5.21989 91.2396 6.22971 91.2346 6.29213C91.2297 6.35455 91.2545 9.69736 91.2899 13.7205C91.3322 18.522 91.4004 21.2518 91.4886 21.6648C91.6272 22.3137 91.8907 22.9145 92.0404 22.9232C92.0872 22.926 92.6815 22.9791 93.3609 23.0413C94.8526 23.1778 93.6983 23.1668 101.067 23.1142C108.762 23.0594 108.171 22.8871 108.187 25.188C108.201 27.0353 108.399 27.5918 109.082 27.7003C109.817 27.8171 110.393 27.531 110.689 26.9019C110.913 26.426 110.934 26.1787 110.928 24.1099C110.923 22.775 110.864 21.6439 110.785 21.3639C110.619 20.7814 110.239 20.4752 109.572 20.387C109.294 20.3502 108.872 20.2417 108.635 20.1458C107.949 19.8694 107.931 19.7039 107.923 13.2717C107.921 11.8673 107.925 10.2586 107.931 9.6968C107.957 7.32851 107.829 3.36548 107.7 2.58945C107.541 1.62434 107.404 1.42948 106.73 1.20806C106.326 1.07516 106.154 1.0721 105.739 1.19036ZM0.947802 1.20318C0.564149 1.30328 0.187555 1.70979 0.0777887 2.14241C0.0211997 2.36497 -0.0119772 6.78967 0.00402306 11.9752C0.0301411 20.4805 0.0524948 21.4601 0.232027 21.9816C0.630856 23.1399 0.888625 23.1795 8.00673 23.1769C10.8379 23.1758 11.5682 23.0981 12.1538 22.7362C12.3889 22.5908 12.4181 22.4809 12.4149 21.7524C12.4094 20.5429 12.3488 20.5131 9.72122 20.4243C8.58415 20.386 7.07142 20.3824 6.35964 20.4166C5.64787 20.4507 4.90668 20.4451 4.71256 20.4042C4.51844 20.3634 4.21832 20.2996 4.04561 20.2624C3.79502 20.2085 3.69208 20.08 3.53596 19.6267C3.36466 19.1293 3.33325 18.1744 3.28278 11.9377C3.25101 8.02125 3.2156 4.1666 3.20407 3.37206L3.18313 1.92735L2.82159 1.57849C2.52559 1.29295 2.34418 1.22168 1.82158 1.1857C1.4704 1.16153 1.07722 1.16936 0.947802 1.20318ZM22.8258 1.24914C22.2452 1.412 21.5193 2.09214 21.2879 2.69011C21.1733 2.98586 21.0084 3.33654 20.9215 3.46944C20.8346 3.60222 20.6368 4.18952 20.4821 4.77456C20.3273 5.35948 20.0345 6.27227 19.8315 6.80283C19.6283 7.33339 19.422 7.94623 19.3728 8.1647C19.3236 8.38316 19.2247 8.66723 19.1528 8.79593C19.081 8.92462 18.8297 9.66514 18.5945 10.4415C18.3592 11.2179 18.0432 12.134 17.8922 12.4773C17.7411 12.8206 17.5023 13.4845 17.3613 13.9526C17.2204 14.4208 16.9209 15.34 16.6957 15.9954C16.4705 16.6508 16.1325 17.6722 15.9447 18.2652C15.757 18.8582 15.4981 19.6373 15.3697 19.9967C15.2412 20.356 15.0722 20.9628 14.9942 21.3452C14.8688 21.9602 14.8766 22.0835 15.0612 22.4144C15.3667 22.9616 16.1994 23.2882 16.8702 23.124C17.2709 23.0258 17.4222 22.9111 17.6464 22.5347C17.7996 22.2775 17.9628 21.8883 18.0089 21.6699C18.055 21.4514 18.2171 20.9848 18.3691 20.6331C18.6934 19.8831 19.1245 18.3833 19.1245 18.0059C19.1245 17.7058 19.694 17.1372 20.2796 16.8524C20.6128 16.6904 21.1122 16.6614 23.6914 16.6546C27.682 16.6439 28.0037 16.7524 28.5776 18.302C28.7435 18.7499 28.9126 19.3207 28.9534 19.5703C29.0563 20.2006 29.5574 21.4951 29.9794 22.2211C30.3795 22.9093 30.8021 23.1452 31.6345 23.1452C33.1312 23.1452 33.3309 21.6581 32.2147 18.8228C31.5786 17.2069 30.8407 15.0775 29.9176 12.1936C29.8177 11.8815 29.6315 11.3708 29.5037 11.0587C29.3761 10.7466 29.1914 10.2614 29.0935 9.98052C28.9956 9.69963 28.8567 9.3039 28.7848 9.10098C28.4434 8.13769 28.3846 7.95701 28.2395 7.42702C28.1541 7.11493 27.92 6.42548 27.7194 5.89492C27.5187 5.36436 27.2484 4.53328 27.1188 4.04812C26.7152 2.53849 25.8755 1.56703 24.7021 1.25278C24.1638 1.10865 23.3325 1.10705 22.8258 1.24914ZM78.6548 1.19728C77.7977 1.29851 76.0997 1.74702 75.377 2.06308C73.9559 2.68466 72.3105 4.22312 71.6385 5.55843C70.6639 7.49489 70.672 7.46935 70.2899 9.81029C70.0502 11.2777 70.2366 15.2041 70.5837 16.0077C70.6753 16.2195 70.8072 16.6905 70.8767 17.0547C70.9548 17.4633 71.1184 17.8486 71.3038 18.0613C71.4691 18.2507 71.6686 18.6385 71.7472 18.923C71.8633 19.3436 72.121 19.67 73.1253 20.6687C73.8047 21.3442 74.443 21.8968 74.5437 21.8968C74.6443 21.8968 74.9079 22.0259 75.1295 22.1835C76.0196 22.817 78.9959 23.3286 81.1254 23.2141C84.4962 23.033 85.646 22.6422 85.9434 21.5767C86.108 20.9869 85.85 20.4126 85.3083 20.1635C84.8904 19.9713 84.6494 19.9984 83.0078 20.4222C82.4578 20.5641 81.8114 20.7039 81.5713 20.7327C80.9525 20.8068 78.0841 20.436 77.6672 20.2281C75.9491 19.371 74.1975 17.1017 73.943 15.4032C73.8843 15.0111 73.7822 14.5119 73.716 14.2939C73.65 14.0758 73.5959 13.7693 73.5959 13.613L73.5958 13.3284L76.3901 13.3556C77.9268 13.3705 79.2426 13.4044 79.3139 13.4307C79.4496 13.4809 80.9205 13.2323 81.2669 13.1008C81.377 13.0589 81.5254 12.8537 81.597 12.6449C81.7597 12.1692 81.5686 11.383 81.2699 11.2988C80.494 11.0802 79.3665 10.9953 77.4783 11.0134C75.3112 11.034 73.5637 11.0082 73.5077 10.9545C73.4916 10.939 73.6091 10.2922 73.7687 9.51714C74.1343 7.74388 74.7031 6.5821 75.785 5.39966C76.5934 4.51614 76.7756 4.4114 78.3915 3.90002C79.3598 3.59371 79.3699 3.59303 81.0386 3.7173C82.2353 3.8065 82.9753 3.92464 83.6299 4.13085C84.6838 4.46292 85.0069 4.4846 85.4694 4.25387C86.025 3.97662 86.0962 3.3404 85.6566 2.58139C85.3226 2.00498 84.7838 1.72409 83.4196 1.41506C82.6148 1.23269 79.5433 1.0923 78.6548 1.19728ZM66.8581 1.53741C66.819 1.57508 66.7175 1.57917 66.6326 1.54637C66.5388 1.51017 66.5666 1.48327 66.7037 1.47782C66.8277 1.47294 66.8971 1.49973 66.8581 1.53741ZM81.8387 1.87469C81.9663 2.02302 81.9638 2.07126 81.8238 2.15671C81.627 2.27679 81.3147 2.29449 81.208 2.19167C81.0964 2.08385 81.3459 1.69584 81.527 1.69584C81.6138 1.69584 81.7542 1.7763 81.8387 1.87469ZM48.0661 2.02961C48.0661 2.15081 48.0132 2.28144 47.9485 2.32002C47.8838 2.35861 47.8308 2.53372 47.8308 2.70918C47.8308 3.0055 47.7911 3.03251 47.272 3.08936C46.9647 3.12307 46.6933 3.13181 46.6689 3.10877C46.6447 3.08585 46.7902 2.93275 46.9925 2.76853C47.2105 2.59172 47.3602 2.36247 47.3602 2.20585C47.3602 1.93677 47.4925 1.83429 47.8602 1.81829C47.9888 1.81273 48.0661 1.89206 48.0661 2.02961ZM49.3603 1.97956C49.3603 2.07409 49.2557 2.14979 49.125 2.14979C48.8352 2.14979 48.8137 1.95856 49.0956 1.88752C49.2087 1.85903 49.3146 1.82975 49.3309 1.82249C49.3471 1.81523 49.3603 1.88593 49.3603 1.97956ZM51.0074 1.92281C51.0074 1.98523 50.9544 2.0363 50.8897 2.0363C50.825 2.0363 50.7721 1.98523 50.7721 1.92281C50.7721 1.86039 50.825 1.80932 50.8897 1.80932C50.9544 1.80932 51.0074 1.86039 51.0074 1.92281ZM80.2431 1.92281C80.2031 1.98523 80.1206 2.0363 80.0597 2.0363C79.9987 2.0363 79.949 1.98523 79.949 1.92281C79.949 1.86039 80.0315 1.80932 80.1324 1.80932C80.2332 1.80932 80.2831 1.86039 80.2431 1.92281ZM48.5367 2.0363C48.5367 2.09872 48.4838 2.14979 48.4191 2.14979C48.3544 2.14979 48.3014 2.09872 48.3014 2.0363C48.3014 1.97388 48.3544 1.92281 48.4191 1.92281C48.4838 1.92281 48.5367 1.97388 48.5367 2.0363ZM67.3605 2.02246C67.3605 2.07716 67.2811 2.18554 67.1841 2.26328C67.0366 2.38131 67.0076 2.36497 67.0076 2.16364C67.0076 2.02518 67.0826 1.92281 67.1841 1.92281C67.2811 1.92281 67.3605 1.96764 67.3605 2.02246ZM77.3607 2.19939C77.3607 2.28167 77.2813 2.41252 77.1842 2.49026C77.0403 2.60545 77.0077 2.59921 77.0077 2.45667C77.0077 2.17351 77.1417 1.91918 77.2554 1.98693C77.3133 2.02144 77.3607 2.11699 77.3607 2.19939ZM57.655 2.15058C57.6953 2.21346 57.6432 2.29642 57.5392 2.33489C57.314 2.41819 57.1885 2.32638 57.2967 2.15739C57.3944 2.00486 57.5597 2.0018 57.655 2.15058ZM59.3102 2.12312C59.5541 2.28428 59.5879 2.57923 59.369 2.6345C58.947 2.74095 58.5345 2.26124 58.9192 2.11143C59.1308 2.02915 59.1696 2.03029 59.3102 2.12312ZM56.8898 2.25522C56.8898 2.38051 56.5571 2.71724 56.4333 2.71724C56.3855 2.71724 56.2438 2.64165 56.1181 2.54916C55.9205 2.40367 55.9135 2.36576 56.0662 2.26714C56.289 2.12346 56.8898 2.11472 56.8898 2.25522ZM46.5367 2.37552C46.5367 2.43726 46.4043 2.47709 46.2426 2.46427C46.0808 2.45133 45.9485 2.40083 45.9485 2.35203C45.9485 2.30323 46.0808 2.26328 46.2426 2.26328C46.4043 2.26328 46.5367 2.31378 46.5367 2.37552ZM78.1469 2.51159C78.1094 2.60204 78.0815 2.57515 78.0759 2.44293C78.0708 2.32332 78.0986 2.25636 78.1376 2.29403C78.1767 2.33171 78.1809 2.42965 78.1469 2.51159ZM24.962 2.51193C25.0097 2.58627 24.9863 2.66719 24.9102 2.69159C24.834 2.7161 24.7717 2.84298 24.7717 2.97349C24.7717 3.20671 24.7667 3.20626 24.479 2.94557C24.2553 2.74277 24.2171 2.6446 24.317 2.5285C24.4788 2.34034 24.846 2.33081 24.962 2.51193ZM55.4486 2.66991C55.3365 2.77807 55.1116 2.60295 55.1953 2.47255C55.2449 2.39504 55.3107 2.39697 55.3952 2.47845C55.4645 2.5453 55.4885 2.63144 55.4486 2.66991ZM76.3018 2.49026C76.3018 2.55268 76.2489 2.60375 76.1842 2.60375C76.1195 2.60375 76.0665 2.55268 76.0665 2.49026C76.0665 2.42784 76.1195 2.37677 76.1842 2.37677C76.2489 2.37677 76.3018 2.42784 76.3018 2.49026ZM45.4779 2.60375C45.4779 2.66617 45.4217 2.71724 45.3533 2.71724C45.2848 2.71724 45.2614 2.66617 45.3014 2.60375C45.3414 2.54133 45.3974 2.49026 45.426 2.49026C45.4546 2.49026 45.4779 2.54133 45.4779 2.60375ZM23.7128 2.71054C23.7128 2.76933 23.6599 2.84888 23.5952 2.88747C23.5305 2.92605 23.4775 2.87793 23.4775 2.78067C23.4775 2.68341 23.5305 2.60375 23.5952 2.60375C23.6599 2.60375 23.7128 2.65175 23.7128 2.71054ZM25.4187 2.71724C25.4587 2.77965 25.4353 2.83072 25.3669 2.83072C25.2984 2.83072 25.2423 2.77965 25.2423 2.71724C25.2423 2.65482 25.2656 2.60375 25.2942 2.60375C25.3227 2.60375 25.3787 2.65482 25.4187 2.71724ZM84.8522 2.78544C84.9303 2.98167 84.7137 3.16665 84.4028 3.16949C84.1551 3.17164 84.0111 2.82119 84.2097 2.69964C84.4568 2.54848 84.7748 2.59092 84.8522 2.78544ZM92.7208 2.77182C92.9184 2.91731 92.9254 2.95522 92.7727 3.05384C92.5171 3.21874 92.3375 3.19684 92.2555 2.99074C92.1084 2.621 92.357 2.5041 92.7208 2.77182ZM81.949 2.76728C81.949 2.79486 81.896 2.84888 81.8313 2.88747C81.7666 2.92605 81.7137 2.90347 81.7137 2.83742C81.7137 2.77137 81.7666 2.71724 81.8313 2.71724C81.896 2.71724 81.949 2.73971 81.949 2.76728ZM83.7137 2.83072C83.7137 2.89314 83.6375 2.94421 83.5442 2.94421C83.4509 2.94421 83.3419 2.89314 83.3019 2.83072C83.2619 2.76831 83.3383 2.71724 83.4715 2.71724C83.6046 2.71724 83.7137 2.76831 83.7137 2.83072ZM22.7045 3.07064C22.6228 3.19809 22.0658 3.20331 22.0658 3.07665C22.0658 2.90767 22.1833 2.86216 22.4789 2.91675C22.6385 2.94614 22.7399 3.01537 22.7045 3.07064ZM24.0658 3.00096C24.0658 3.09459 24.0128 3.17119 23.9481 3.17119C23.8834 3.17119 23.8305 3.09459 23.8305 3.00096C23.8305 2.90733 23.8834 2.83072 23.9481 2.83072C24.0128 2.83072 24.0658 2.90733 24.0658 3.00096ZM52.0662 2.93752C52.0662 2.99631 52.0132 3.07586 51.9485 3.11445C51.8838 3.15303 51.8309 3.10491 51.8309 3.00765C51.8309 2.91039 51.8838 2.83072 51.9485 2.83072C52.0132 2.83072 52.0662 2.87873 52.0662 2.93752ZM58.7133 2.94421C58.6733 3.00663 58.5675 3.0577 58.4781 3.0577C58.3886 3.0577 58.2828 3.00663 58.2428 2.94421C58.2013 2.87964 58.3026 2.83072 58.4781 2.83072C58.6535 2.83072 58.7548 2.87964 58.7133 2.94421ZM2.18311 3.18447C2.18311 3.23951 2.05076 3.28468 1.88899 3.28468C1.71934 3.28468 1.59487 3.21931 1.59487 3.13022C1.59487 3.02661 1.69181 2.99358 1.88899 3.0299C2.05076 3.05974 2.18311 3.12931 2.18311 3.18447ZM75.5439 3.46093C75.5517 3.6761 75.5079 3.85212 75.4468 3.85212C75.3856 3.85212 75.3688 3.93588 75.4096 4.03836C75.4588 4.16217 75.3574 4.3332 75.1068 4.54906C74.6286 4.96079 74.3018 4.97737 74.3018 4.5898C74.3018 4.26057 74.4724 4.21824 74.6453 4.50468C74.7816 4.7303 74.7923 4.69251 74.8149 3.90887C74.8292 3.41247 74.8644 3.33688 75.0959 3.30511C75.2443 3.28479 75.3606 3.18924 75.3606 3.08766C75.3606 2.73199 75.5302 3.07711 75.5439 3.46093ZM106.655 3.0577C106.655 3.12012 106.602 3.17119 106.538 3.17119C106.473 3.17119 106.42 3.12012 106.42 3.0577C106.42 2.99528 106.473 2.94421 106.538 2.94421C106.602 2.94421 106.655 2.99528 106.655 3.0577ZM46.5367 3.28468C46.5367 3.3471 46.4087 3.39817 46.2522 3.39817C46.0957 3.39817 45.884 3.42915 45.7816 3.46706C45.6793 3.50496 45.5955 3.48294 45.5955 3.41826C45.5955 3.30704 45.8674 3.22146 46.3308 3.18662C46.444 3.17811 46.5367 3.22226 46.5367 3.28468ZM59.6738 3.34903C59.7128 3.44685 59.6831 3.58622 59.6081 3.65863C59.4397 3.82103 59.0852 3.63706 59.0283 3.35765C58.9775 3.10866 59.575 3.10071 59.6738 3.34903ZM76.9851 3.40668C76.962 3.47375 76.8928 3.52868 76.8313 3.52868C76.7697 3.52868 76.7006 3.47375 76.6774 3.40668C76.6542 3.33961 76.7234 3.28468 76.8313 3.28468C76.9391 3.28468 77.0083 3.33961 76.9851 3.40668ZM58.1962 3.65874C58.0451 3.80446 57.892 3.69188 58.0038 3.51733C58.0471 3.4498 58.1364 3.42665 58.2023 3.46592C58.2826 3.51381 58.2806 3.57725 58.1962 3.65874ZM24.7717 3.68189C24.7717 3.77552 24.7187 3.85212 24.654 3.85212C24.5893 3.85212 24.5364 3.77552 24.5364 3.68189C24.5364 3.58826 24.5893 3.51166 24.654 3.51166C24.7187 3.51166 24.7717 3.58826 24.7717 3.68189ZM25.5429 3.74556C25.7307 3.94575 25.7376 3.99455 25.5905 4.08432C25.2905 4.26738 24.8893 4.21245 24.8893 3.98831C24.8893 3.78823 25.0972 3.51166 25.2476 3.51166C25.2893 3.51166 25.4222 3.61686 25.5429 3.74556ZM58.8898 3.68189C58.8898 3.77552 58.9692 3.85212 59.0663 3.85212C59.1634 3.85212 59.2428 3.90319 59.2428 3.96561C59.2428 4.12677 59.1003 4.10645 58.7984 3.9024C58.4973 3.69903 58.4565 3.51166 58.7133 3.51166C58.8104 3.51166 58.8898 3.58826 58.8898 3.68189ZM2.12723 4.04313C2.04535 4.23719 2.03488 4.23606 1.94993 4.02236C1.84029 3.74669 1.92899 3.56159 2.09441 3.72116C2.16041 3.78483 2.17523 3.92964 2.12723 4.04313ZM22.4187 3.98389C22.4187 4.0362 22.3526 4.07751 22.2716 4.07547C22.0714 4.07059 21.7 3.78891 21.7852 3.70663C21.8742 3.62083 22.4187 3.85905 22.4187 3.98389ZM74.0136 4.25841C73.9202 4.56551 73.8542 4.89338 73.8669 4.98701C73.8796 5.08064 73.8389 5.17007 73.7764 5.18585C73.7138 5.20151 73.6609 5.09244 73.6587 4.94321C73.6565 4.79408 73.5272 4.57244 73.3713 4.45066C73.0473 4.19758 73.123 3.96561 73.5297 3.96561C73.6797 3.96561 73.8693 3.88776 73.9512 3.79266C74.1816 3.52482 74.1984 3.65057 74.0136 4.25841ZM23.9935 4.2381C24.098 4.45044 24.1834 4.69716 24.1834 4.78636C24.1834 4.94048 24.955 7.25055 25.4719 8.64419C25.6044 9.00157 25.7129 9.45484 25.7129 9.65152C25.7129 9.84819 25.9015 10.4639 26.132 11.0197C26.9432 12.9757 27.007 13.6489 26.4099 13.9572C26.246 14.0418 25.2747 14.1007 23.6968 14.1218L21.239 14.1548L20.9957 13.8564C20.7448 13.5486 20.7436 13.3881 20.986 12.4205C21.0484 12.1709 21.236 11.6417 21.4027 11.2444C21.5694 10.8472 21.8139 10.0301 21.9461 9.42862C22.0782 8.82713 22.2572 8.15619 22.3435 7.93772C22.5896 7.31546 22.9626 6.16525 23.3093 4.95864C23.4842 4.35 23.667 3.85212 23.7155 3.85212C23.764 3.85212 23.8891 4.02587 23.9935 4.2381ZM46.576 4.01407C46.6114 4.10316 46.5641 4.23708 46.4709 4.31164C46.3307 4.42388 46.3014 4.39596 46.3014 4.14969C46.3014 3.83079 46.4699 3.74749 46.576 4.01407ZM105.585 4.74346C105.411 4.80112 105.323 4.68422 105.423 4.52852C105.486 4.42978 105.534 4.43512 105.607 4.54929C105.666 4.63974 105.657 4.71986 105.585 4.74346ZM21.8119 4.67401C21.9281 4.78614 21.9782 4.78319 22.0575 4.65948C22.1154 4.56915 22.2194 4.54111 22.3058 4.59264C22.422 4.66187 22.4159 4.7084 22.2778 4.80577C22.1807 4.87421 22.096 4.98134 22.0898 5.04376C22.0702 5.23601 21.7128 5.24395 21.7128 5.05204C21.7128 4.95387 21.6334 4.87352 21.5363 4.87352C21.3526 4.87352 21.3029 4.73926 21.4383 4.60875C21.5525 4.49855 21.6472 4.51513 21.8119 4.67401ZM92.655 4.87352C92.655 5.06078 92.6021 5.21399 92.5374 5.21399C92.4065 5.21399 92.375 4.72758 92.4982 4.60875C92.631 4.48051 92.655 4.52091 92.655 4.87352ZM25.5052 5.16292C25.475 5.3159 25.3769 5.44097 25.2873 5.44097C25.1074 5.44097 25.0956 5.38661 25.1966 5.02321C25.2912 4.68309 25.5749 4.81156 25.5052 5.16292ZM26.1577 5.1005C26.1458 5.50373 25.8305 5.57659 25.8305 5.1762C25.8305 5.03048 25.8658 4.87727 25.909 4.83573C26.0751 4.67537 26.1673 4.77354 26.1577 5.1005ZM45.8308 4.98701C45.8308 5.04943 45.7779 5.1005 45.7132 5.1005C45.6485 5.1005 45.5955 5.04943 45.5955 4.98701C45.5955 4.92459 45.6485 4.87352 45.7132 4.87352C45.7779 4.87352 45.8308 4.92459 45.8308 4.98701ZM46.8308 4.98701C46.7908 5.04943 46.6554 5.1005 46.5298 5.1005C46.4041 5.1005 46.3014 5.04943 46.3014 4.98701C46.3014 4.92459 46.4369 4.87352 46.6025 4.87352C46.7732 4.87352 46.8721 4.92266 46.8308 4.98701ZM21.601 5.38717C21.7919 5.48239 21.9481 5.60587 21.9481 5.66159C21.9481 5.71731 21.9802 5.84363 22.0195 5.94236C22.0588 6.0411 22.0323 6.1219 21.9607 6.1219C21.889 6.1219 21.8305 6.01976 21.8305 5.89492C21.8305 5.5994 21.6632 5.60711 21.3645 5.91637C21.1546 6.13359 21.1246 6.13972 21.1246 5.96495C21.1246 5.85509 21.0413 5.68485 20.9394 5.58657C20.789 5.44153 20.7835 5.39001 20.91 5.31272C21.1257 5.18074 21.2042 5.18914 21.601 5.38717ZM105.596 5.44097C105.596 5.5658 105.548 5.66794 105.489 5.66794C105.404 5.66794 105.395 5.47717 105.47 5.24236C105.508 5.12047 105.596 5.25848 105.596 5.44097ZM59.5957 5.55446C59.5957 5.61687 59.5428 5.66794 59.4781 5.66794C59.4134 5.66794 59.3604 5.61687 59.3604 5.55446C59.3604 5.49204 59.4134 5.44097 59.4781 5.44097C59.5428 5.44097 59.5957 5.49204 59.5957 5.55446ZM25.8093 5.8754C25.8342 6.03849 25.7849 6.1219 25.6636 6.1219C25.5397 6.1219 25.4882 6.02941 25.5046 5.83704C25.5338 5.49714 25.7558 5.52518 25.8093 5.8754ZM72.5371 5.73138C72.5371 5.82864 72.4841 5.87676 72.4194 5.83818C72.3547 5.79959 72.3018 5.72004 72.3018 5.66125C72.3018 5.60246 72.3547 5.55446 72.4194 5.55446C72.4841 5.55446 72.5371 5.63412 72.5371 5.73138ZM74.0033 5.80981C73.9598 5.9503 73.8245 6.16525 73.7026 6.28771C73.5226 6.46838 73.453 6.48291 73.3325 6.36477C73.2129 6.24742 73.2353 6.17899 73.4489 6.01057C73.5944 5.89572 73.7136 5.74614 73.7136 5.67816C73.7136 5.61006 73.7965 5.55446 73.8979 5.55446C74.0342 5.55446 74.0617 5.62119 74.0033 5.80981ZM1.7797 6.00841C1.7797 6.27545 1.64428 6.29917 1.41004 6.07322C1.17628 5.84771 1.1991 5.78143 1.51087 5.78143C1.70134 5.78143 1.7797 5.8476 1.7797 6.00841ZM45.8308 6.00841C45.8308 6.07083 45.7779 6.1219 45.7132 6.1219C45.6485 6.1219 45.5955 6.07083 45.5955 6.00841C45.5955 5.94599 45.6485 5.89492 45.7132 5.89492C45.7779 5.89492 45.8308 5.94599 45.8308 6.00841ZM106.939 6.07957C107.04 6.33322 106.813 6.56473 106.533 6.49414C106.385 6.45681 106.302 6.33878 106.302 6.16537C106.302 5.95575 106.366 5.89492 106.584 5.89492C106.739 5.89492 106.898 5.978 106.939 6.07957ZM21.7128 6.22869C21.7128 6.36261 21.4834 6.50583 21.399 6.42457C21.3148 6.3432 21.4633 6.1219 21.6021 6.1219C21.663 6.1219 21.7128 6.16991 21.7128 6.22869ZM45.3817 6.37351C45.2974 6.45488 45.2426 6.46157 45.2426 6.39053C45.2426 6.23902 45.3817 6.10476 45.4602 6.18057C45.4936 6.2128 45.4583 6.29962 45.3817 6.37351ZM46.3995 6.22132C46.5246 6.29781 46.5165 6.33208 46.3595 6.39019C46.1423 6.47054 45.9485 6.39439 45.9485 6.22869C45.9485 6.09671 46.1893 6.09273 46.3995 6.22132ZM59.5369 6.23539C59.5769 6.29781 59.5535 6.34888 59.485 6.34888C59.4165 6.34888 59.3604 6.29781 59.3604 6.23539C59.3604 6.17297 59.3837 6.1219 59.4123 6.1219C59.4409 6.1219 59.4969 6.17297 59.5369 6.23539ZM59.3021 6.46316C59.3424 6.52603 59.2903 6.609 59.1863 6.64747C58.9611 6.73077 58.8356 6.63895 58.9438 6.46997C59.0415 6.31744 59.2068 6.31438 59.3021 6.46316ZM21.3599 6.70274C21.3599 6.76516 21.3069 6.78467 21.2422 6.74609C21.1775 6.7075 21.1246 6.62488 21.1246 6.56246C21.1246 6.50004 21.1775 6.48052 21.2422 6.51911C21.3069 6.5577 21.3599 6.64032 21.3599 6.70274ZM26.7717 6.69604C26.7717 6.76209 26.7248 6.78831 26.6675 6.75403C26.6101 6.71987 26.5324 6.80533 26.4948 6.94401C26.4464 7.12242 26.3898 7.16078 26.3011 7.07521C26.1226 6.90304 26.285 6.57586 26.549 6.57586C26.6715 6.57586 26.7717 6.62999 26.7717 6.69604ZM72.5371 6.76027C72.5371 6.84607 72.6165 6.91632 72.7135 6.91632C72.8106 6.91632 72.89 6.96739 72.89 7.02981C72.89 7.23829 72.4814 7.14262 72.2153 6.87183L71.9525 6.60423H72.2447C72.4144 6.60423 72.5371 6.66971 72.5371 6.76027ZM106.067 6.68934C106.067 6.75176 106.279 6.80283 106.538 6.80283C106.796 6.80283 107.008 6.8539 107.008 6.91632C107.008 6.97874 106.856 7.02981 106.67 7.02981C106.483 7.02981 106.265 7.10642 106.185 7.20004C106.104 7.29367 105.937 7.37028 105.814 7.37028C105.56 7.37028 105.36 7.0112 105.575 6.94208C105.652 6.91746 105.714 6.82508 105.714 6.73667C105.714 6.64815 105.793 6.57586 105.891 6.57586C105.988 6.57586 106.067 6.62693 106.067 6.68934ZM27.1835 7.02981C27.149 7.0836 27.1789 7.16225 27.2499 7.20458C27.3209 7.24692 27.3483 7.39944 27.3109 7.54346C27.2695 7.70234 27.3005 7.82537 27.3896 7.85601C27.4703 7.88393 27.4938 7.95043 27.4418 8.004C27.3897 8.05757 27.3024 8.03158 27.2478 7.94623C27.1123 7.7348 26.7519 7.88495 26.7956 8.13485C26.8165 8.25481 26.7668 8.32199 26.6711 8.30259C26.5833 8.28477 26.4378 8.32937 26.3476 8.40155C26.2186 8.50483 26.1835 8.49348 26.1835 8.34878C26.1835 8.2404 26.2802 8.1647 26.4188 8.1647C26.6097 8.1647 26.6541 8.089 26.6541 7.76351C26.6541 7.33373 26.9634 6.76345 27.1395 6.86843C27.1982 6.90338 27.2179 6.97602 27.1835 7.02981ZM45.8308 6.95729C45.8308 7.06091 45.7339 7.09393 45.5367 7.05761C45.3749 7.02777 45.2426 6.9582 45.2426 6.90304C45.2426 6.848 45.3749 6.80283 45.5367 6.80283C45.7063 6.80283 45.8308 6.8682 45.8308 6.95729ZM59.3604 7.1433C59.3604 7.20572 59.3075 7.25679 59.2428 7.25679C59.1781 7.25679 59.1251 7.20572 59.1251 7.1433C59.1251 7.08088 59.1781 7.02981 59.2428 7.02981C59.3075 7.02981 59.3604 7.08088 59.3604 7.1433ZM1.77134 7.48377C1.73134 7.54618 1.64887 7.59725 1.58793 7.59725C1.52699 7.59725 1.47722 7.54618 1.47722 7.48377C1.47722 7.42135 1.55981 7.37028 1.66064 7.37028C1.76146 7.37028 1.81134 7.42135 1.77134 7.48377ZM26.4188 7.66069C26.4188 7.75795 26.3658 7.80607 26.3011 7.76749C26.2364 7.7289 26.1835 7.64935 26.1835 7.59056C26.1835 7.53177 26.2364 7.48377 26.3011 7.48377C26.3658 7.48377 26.4188 7.56343 26.4188 7.66069ZM46.2535 7.57059C46.3242 7.61644 46.4155 7.81992 46.4565 8.02284C46.5474 8.47407 46.2841 8.53218 45.9419 8.13633C45.6829 7.83694 45.6549 7.63879 45.8602 7.55889C46.0718 7.47661 46.1102 7.47775 46.2535 7.57059ZM72.89 7.59056C72.89 7.64935 72.8371 7.7289 72.7724 7.76749C72.7077 7.80607 72.6547 7.75795 72.6547 7.66069C72.6547 7.56343 72.7077 7.48377 72.7724 7.48377C72.8371 7.48377 72.89 7.53177 72.89 7.59056ZM106.589 7.79586C106.55 7.96745 106.487 8.18456 106.45 8.27819C106.412 8.37182 106.377 8.48667 106.371 8.53354C106.366 8.58041 106.315 8.6216 106.26 8.62535C106.135 8.63352 105.804 8.04031 105.888 7.95951C105.95 7.89959 106.572 7.5068 106.628 7.49205C106.645 7.48751 106.628 7.62426 106.589 7.79586ZM2.18311 8.09468C2.18311 8.38328 2.24159 8.49348 2.41841 8.53808C2.70736 8.61094 2.72406 8.79524 2.45088 8.89636C2.23911 8.97478 1.94782 8.70298 1.94782 8.42674C1.94782 8.23245 1.85405 8.23892 1.63687 8.44842C1.38498 8.6914 1.16263 8.65883 1.08357 8.36739C1.00227 8.06721 1.19722 7.92251 1.56334 8.01126C1.74217 8.0545 1.85146 8.01614 1.90052 7.893C2.02488 7.58023 2.18311 7.69315 2.18311 8.09468ZM21.3599 7.95111C21.3599 8.01353 21.3069 8.03305 21.2422 7.99447C21.1775 7.95588 21.1246 7.87326 21.1246 7.81084C21.1246 7.74842 21.1775 7.7289 21.2422 7.76749C21.3069 7.80607 21.3599 7.88869 21.3599 7.95111ZM73.243 8.00116C73.243 8.18842 73.0571 8.22008 72.9488 8.05121C72.8528 7.9014 72.9936 7.68895 73.1334 7.77237C73.1937 7.80823 73.243 7.91116 73.243 8.00116ZM93.2433 7.89289C93.2433 7.90322 93.1634 8.05802 93.0657 8.23688C92.892 8.55499 92.8867 8.55646 92.8167 8.30656C92.7321 8.00434 92.5909 7.97903 92.4401 8.23892C92.3665 8.3658 92.2596 8.39985 92.1108 8.34401C91.8988 8.26445 91.8996 8.25401 92.132 8.07118C92.2648 7.96655 92.5693 7.87939 92.8084 7.87746C93.0476 7.87553 93.2433 7.88245 93.2433 7.89289ZM72.1413 8.10716C72.186 8.21974 72.3 8.25447 72.4808 8.21066C72.6825 8.16186 72.7885 8.20873 72.8899 8.39145C73.0654 8.70797 72.9217 8.85573 72.7099 8.57632C72.4954 8.29328 72.0332 8.40654 71.8539 8.78617C71.7145 9.08135 71.5339 9.13911 71.2649 8.97467C71.1418 8.89931 71.1621 8.78446 71.3651 8.40893C71.6275 7.92319 72.0091 7.77487 72.1413 8.10716ZM59.5584 8.29952C59.5209 8.38997 59.493 8.36308 59.4874 8.23086C59.4823 8.11125 59.5101 8.04429 59.5491 8.08196C59.5882 8.11964 59.5924 8.21758 59.5584 8.29952ZM59.0075 8.27819C59.0075 8.34061 58.9577 8.39168 58.8968 8.39168C58.8358 8.39168 58.7533 8.34061 58.7133 8.27819C58.6733 8.21577 58.7232 8.1647 58.8241 8.1647C58.9249 8.1647 59.0075 8.21577 59.0075 8.27819ZM45.4779 8.61865C45.4779 8.68107 45.4281 8.73214 45.3672 8.73214C45.3062 8.73214 45.2237 8.68107 45.1837 8.61865C45.1437 8.55624 45.1936 8.50517 45.2944 8.50517C45.3953 8.50517 45.4779 8.55624 45.4779 8.61865ZM93.3609 8.61865C93.3609 8.68107 93.308 8.73214 93.2433 8.73214C93.1786 8.73214 93.1256 8.68107 93.1256 8.61865C93.1256 8.55624 93.1786 8.50517 93.2433 8.50517C93.308 8.50517 93.3609 8.55624 93.3609 8.61865ZM105.714 8.61865C105.714 8.68107 105.621 8.73135 105.508 8.73044C105.332 8.72896 105.328 8.71262 105.479 8.61865C105.701 8.4802 105.714 8.4802 105.714 8.61865ZM20.0657 8.96581C20.0657 9.0246 19.988 9.07261 19.8929 9.07261C19.788 9.07261 19.7467 9.00599 19.7876 8.90306C19.857 8.7284 20.0657 8.77561 20.0657 8.96581ZM72.5911 9.29959C72.5523 9.45563 72.4634 9.63438 72.3938 9.6968C72.3059 9.77556 72.2878 9.75331 72.3346 9.62416C72.3725 9.51964 72.3 9.33227 72.1695 9.1971C71.8705 8.88751 71.9784 8.71466 72.3643 8.88467C72.6031 8.98999 72.6479 9.07181 72.5911 9.29959ZM27.5181 9.09599C27.5554 9.23376 27.5587 9.37267 27.5254 9.40479C27.4492 9.47822 27.2465 9.17736 27.2441 8.98749C27.2411 8.74883 27.4459 8.82997 27.5181 9.09599ZM1.76534 9.21697C1.73381 9.2963 1.60558 9.42295 1.4804 9.49831C1.16945 9.68568 1.00851 9.43498 1.30522 9.22559C1.57922 9.03232 1.84076 9.02744 1.76534 9.21697ZM46.8896 9.1861C46.8896 9.24852 46.7969 9.29879 46.6838 9.29788C46.5078 9.29641 46.5035 9.28007 46.6544 9.1861C46.8764 9.04764 46.8896 9.04764 46.8896 9.1861ZM106.771 9.27121C106.77 9.38039 106.72 9.54495 106.66 9.63687C106.566 9.77998 106.539 9.7759 106.473 9.6085C106.38 9.37574 106.481 9.07261 106.652 9.07261C106.718 9.07261 106.772 9.16204 106.771 9.27121ZM46.0687 9.53247C46.1585 9.74163 46.2792 9.85602 46.3734 9.82107C46.5928 9.73992 47.0944 10.0123 47.036 10.1811C46.9695 10.3734 46.7139 10.3566 46.5343 10.148C46.3619 9.9475 46.2645 10.0055 46.2402 10.3233C46.2285 10.4778 46.2966 10.548 46.4583 10.548C46.7578 10.548 46.6853 10.6088 46.272 10.7044C45.9734 10.7735 45.9485 10.7529 45.9485 10.4366C45.9485 10.2482 45.8942 10.094 45.8279 10.094C45.6642 10.094 45.4682 9.56946 45.5526 9.35735C45.6636 9.07806 45.9093 9.16147 46.0687 9.53247ZM93.4477 9.6724C93.3667 9.90709 93.184 9.78237 93.1788 9.48877C93.1737 9.19608 93.1871 9.18542 93.3275 9.37063C93.4123 9.48253 93.4664 9.61838 93.4477 9.6724ZM71.8312 9.79701C71.8312 10.0754 72.0785 10.2027 72.6253 10.2059C72.7708 10.2068 72.89 10.2575 72.89 10.3188C72.89 10.4902 72.3184 10.589 72.1424 10.4481C71.8662 10.227 71.8199 10.465 72.0859 10.7382C72.3038 10.9619 72.3128 11.0019 72.1458 11.0019C72.0374 11.0019 71.9488 10.9253 71.9488 10.8317C71.9488 10.7381 71.9092 10.6675 71.8606 10.6748C71.812 10.6823 71.6796 10.6823 71.5665 10.6748C71.316 10.6585 71.2886 10.4345 71.5371 10.4345C71.7998 10.4345 71.7506 10.0072 71.4782 9.92378C71.1064 9.80995 71.2042 9.52656 71.6155 9.52656C71.7644 9.52656 71.8312 9.61043 71.8312 9.79701ZM1.8184 10.4628C1.83487 10.7416 1.63581 10.7112 1.55769 10.423C1.52205 10.2918 1.43663 10.2183 1.36746 10.2595C1.2984 10.3007 1.24192 10.2547 1.24192 10.1574C1.24192 10.0602 1.32134 9.98052 1.4184 9.98052C1.51546 9.98052 1.60017 9.91674 1.60664 9.83866C1.62134 9.66037 1.80264 10.1944 1.8184 10.4628ZM19.9982 10.1318C19.9568 10.2359 19.8773 10.321 19.8215 10.321C19.7658 10.321 19.7542 10.2355 19.7957 10.131C19.853 9.9871 19.8236 9.95873 19.6744 10.014C19.5661 10.0541 19.4775 10.0411 19.4775 9.98529C19.4775 9.85682 19.8587 9.76784 19.9814 9.8676C20.032 9.90891 20.0396 10.0277 19.9982 10.1318ZM27.3815 10.2321C27.2971 10.3135 27.2423 10.3202 27.2423 10.2491C27.2423 10.1846 27.2776 10.0978 27.3208 10.0562C27.3638 10.0146 27.4265 10.007 27.46 10.0392C27.4934 10.0714 27.4581 10.1582 27.3815 10.2321ZM28.1835 10.1982C28.1835 10.2555 28.2156 10.3832 28.2549 10.4819C28.3017 10.5997 28.2614 10.6615 28.1373 10.6615C28.0141 10.6615 27.9482 10.5627 27.9482 10.3777C27.9482 10.2217 28.0011 10.094 28.0658 10.094C28.1305 10.094 28.1835 10.1409 28.1835 10.1982ZM93.2926 10.4109C93.2236 10.455 93.1317 10.5839 93.0883 10.6972C93.0244 10.8643 93.0538 10.8897 93.244 10.8315C93.5202 10.7469 93.5649 10.9456 93.2924 11.0465C93.1901 11.0844 92.8953 11.1154 92.6373 11.1154C92.2199 11.1154 92.1722 11.0876 92.2056 10.8639C92.2334 10.6782 92.3588 10.5861 92.6844 10.5121C92.9673 10.4479 93.1256 10.3467 93.1256 10.2303C93.1256 10.0856 93.1554 10.0773 93.2717 10.1896C93.3723 10.2866 93.3788 10.3554 93.2926 10.4109ZM106.361 10.2075C106.401 10.2699 106.378 10.321 106.309 10.321C106.241 10.321 106.185 10.2699 106.185 10.2075C106.185 10.1451 106.208 10.094 106.237 10.094C106.265 10.094 106.321 10.1451 106.361 10.2075ZM107.105 10.4972C107.084 10.5942 107.027 10.6708 106.979 10.6675C106.93 10.6642 106.785 10.6615 106.655 10.6615C106.526 10.6615 106.42 10.6139 106.42 10.5559C106.42 10.4653 106.572 10.4121 107.046 10.3364C107.099 10.3279 107.126 10.4003 107.105 10.4972ZM45.5316 10.5401C45.6187 10.676 45.3974 10.8105 45.2407 10.7171C45.109 10.6386 45.1955 10.4345 45.3602 10.4345C45.4173 10.4345 45.4944 10.482 45.5316 10.5401ZM27.2592 10.9168C27.4607 11.0314 27.519 11.0302 27.564 10.9099C27.607 10.7949 27.6704 10.8054 27.8428 10.9558C27.9655 11.063 28.0658 11.1142 28.0658 11.0696C28.0658 11.025 28.1244 11.0235 28.1961 11.0662C28.2868 11.1203 28.278 11.1733 28.1667 11.2414C27.8867 11.4125 27.3676 11.3498 27.1247 11.1154C26.7581 10.7618 26.8218 10.6677 27.2592 10.9168ZM106.302 10.8955C106.302 10.954 106.223 11.0019 106.126 11.0019C105.889 11.0019 105.901 11.1867 106.143 11.2762C106.249 11.3156 106.425 11.27 106.534 11.1749C106.8 10.9431 106.975 10.957 107.122 11.2214C107.31 11.5611 107.278 11.612 106.742 11.8247C106.177 12.0489 106.074 12.0601 105.849 11.9225C105.726 11.8475 105.72 11.7711 105.82 11.5899C105.926 11.3997 105.912 11.3336 105.75 11.2459C105.594 11.1619 105.579 11.1019 105.683 10.9808C105.838 10.8007 106.302 10.7367 106.302 10.8955ZM1.78887 11.314C1.8157 11.4857 1.76887 11.5694 1.64605 11.5694C1.54558 11.5694 1.49628 11.518 1.53652 11.4551C1.57687 11.3922 1.52699 11.3102 1.42581 11.2727C1.15098 11.171 1.20392 10.9807 1.49546 11.0223C1.65299 11.0449 1.76417 11.1554 1.78887 11.314ZM19.3151 11.2802C19.4111 11.5216 19.2409 11.7499 19.1116 11.5531C18.9729 11.3419 18.9815 11.1154 19.1282 11.1154C19.195 11.1154 19.2791 11.1895 19.3151 11.2802ZM46.2426 11.3956C46.2426 11.6407 45.818 11.818 45.585 11.6701C45.4495 11.5841 45.4709 11.5228 45.7015 11.3364C46.0252 11.0748 46.2426 11.0985 46.2426 11.3956ZM59.6999 11.5977C59.6869 11.6758 59.7151 11.8251 59.7628 11.9295C59.8676 12.1597 59.4211 12.6375 59.1832 12.5495C59.027 12.4917 59.0422 12.3882 59.3142 11.6545C59.3976 11.4295 59.7364 11.3797 59.6999 11.5977ZM71.7093 11.7396C71.7764 11.7396 71.8259 11.7907 71.8194 11.8531C71.813 11.9155 71.76 11.9537 71.7018 11.9382C71.6435 11.9227 71.5959 11.9864 71.5959 12.0801C71.5959 12.1737 71.5429 12.2503 71.4782 12.2503C71.4135 12.2503 71.3614 12.0588 71.3624 11.8247C71.3638 11.5121 71.3938 11.4443 71.4758 11.5694C71.5371 11.663 71.6421 11.7396 71.7093 11.7396ZM1.35957 11.7963C1.35957 11.8588 1.30663 11.9098 1.24192 11.9098C1.17722 11.9098 1.12427 11.8588 1.12427 11.7963C1.12427 11.7339 1.17722 11.6829 1.24192 11.6829C1.30663 11.6829 1.35957 11.7339 1.35957 11.7963ZM79.8313 11.8598C79.8313 11.957 79.7784 12.0052 79.7137 11.9666C79.6489 11.928 79.596 11.8484 79.596 11.7896C79.596 11.7309 79.6489 11.6829 79.7137 11.6829C79.7784 11.6829 79.8313 11.7625 79.8313 11.8598ZM75.7136 11.9098C75.7136 11.9722 75.6903 12.0233 75.6617 12.0233C75.6331 12.0233 75.5771 11.9722 75.5371 11.9098C75.4971 11.8474 75.5205 11.7963 75.589 11.7963C75.6575 11.7963 75.7136 11.8474 75.7136 11.9098ZM79.4784 12.1368C79.4784 12.1992 79.4222 12.2503 79.3538 12.2503C79.2853 12.2503 79.2619 12.1992 79.3019 12.1368C79.3419 12.0744 79.3979 12.0233 79.4265 12.0233C79.4551 12.0233 79.4784 12.0744 79.4784 12.1368ZM92.3021 12.1936C92.3021 12.2872 92.2491 12.3638 92.1844 12.3638C92.1197 12.3638 92.0668 12.2872 92.0668 12.1936C92.0668 12.0999 92.1197 12.0233 92.1844 12.0233C92.2491 12.0233 92.3021 12.0999 92.3021 12.1936ZM28.5364 12.2503C28.5364 12.3127 28.4835 12.3638 28.4188 12.3638C28.3541 12.3638 28.3011 12.3127 28.3011 12.2503C28.3011 12.1879 28.3541 12.1368 28.4188 12.1368C28.4835 12.1368 28.5364 12.1879 28.5364 12.2503ZM45.5367 12.2503C45.4967 12.3127 45.4142 12.3638 45.3533 12.3638C45.2923 12.3638 45.2426 12.3127 45.2426 12.2503C45.2426 12.1879 45.3252 12.1368 45.426 12.1368C45.5268 12.1368 45.5767 12.1879 45.5367 12.2503ZM93.1243 12.3056C93.2042 12.3984 93.2395 12.55 93.2028 12.6424C93.166 12.7349 93.1866 12.8407 93.2484 12.8776C93.4009 12.9685 93.3916 13.2717 93.2363 13.2717C93.1678 13.2717 93.1444 13.2206 93.1844 13.1582C93.2995 12.9787 93.0527 13.0263 92.8903 13.215C92.8097 13.3086 92.6222 13.3852 92.4735 13.3852C92.2668 13.3852 92.1843 13.3023 92.123 13.0335C92.0756 12.8249 92.0957 12.6309 92.1725 12.5568C92.2668 12.4659 92.3021 12.469 92.3021 12.5681C92.3021 12.643 92.3815 12.7043 92.4785 12.7043C92.5883 12.7043 92.655 12.5971 92.655 12.4205C92.655 12.1024 92.8983 12.0428 93.1243 12.3056ZM28.1163 12.6291C28.212 12.7772 28.1998 12.8503 28.0658 12.9327C27.8313 13.0769 27.7961 13.0732 27.5295 12.8745C27.3036 12.7061 27.3036 12.7024 27.5317 12.5325C27.7988 12.3335 27.9403 12.3569 28.1163 12.6291ZM105.714 12.5462C105.714 12.5707 105.635 12.5908 105.538 12.5908C105.44 12.5908 105.361 12.5413 105.361 12.4808C105.361 12.4204 105.44 12.4003 105.538 12.4362C105.635 12.4722 105.714 12.5216 105.714 12.5462ZM107.008 12.5151C107.008 12.6046 106.9 12.6548 106.743 12.638C106.351 12.596 106.34 12.5837 106.596 12.4773C106.934 12.3375 107.008 12.3443 107.008 12.5151ZM1.53099 12.8256C1.49381 12.8837 1.54593 12.9312 1.64675 12.9312C1.74758 12.9312 1.83017 13.0078 1.83017 13.1015C1.83017 13.3272 1.7144 13.3128 1.35957 13.043C1.11627 12.858 1.09498 12.8009 1.23628 12.7125C1.43169 12.5904 1.6324 12.6674 1.53099 12.8256ZM106.328 12.952C106.148 13.1254 106.015 12.9975 106.115 12.7469C106.174 12.5989 106.225 12.5843 106.33 12.6853C106.434 12.7862 106.434 12.8496 106.328 12.952ZM19.3598 12.8177C19.3598 12.8802 19.2804 12.9312 19.1834 12.9312C19.0863 12.9312 19.0069 12.8802 19.0069 12.8177C19.0069 12.7553 19.0863 12.7043 19.1834 12.7043C19.2804 12.7043 19.3598 12.7553 19.3598 12.8177ZM45.4779 12.9312C45.4779 12.9936 45.4249 13.0447 45.3602 13.0447C45.2955 13.0447 45.2426 12.9936 45.2426 12.9312C45.2426 12.8688 45.2955 12.8177 45.3602 12.8177C45.4249 12.8177 45.4779 12.8688 45.4779 12.9312ZM46.5367 12.8678C46.5367 12.8954 46.4838 12.9494 46.4191 12.988C46.3543 13.0266 46.3014 13.004 46.3014 12.9379C46.3014 12.8719 46.3543 12.8177 46.4191 12.8177C46.4838 12.8177 46.5367 12.8402 46.5367 12.8678ZM46.1838 13.1582C46.1838 13.2206 46.1276 13.2717 46.0592 13.2717C45.9907 13.2717 45.9673 13.2206 46.0073 13.1582C46.0473 13.0958 46.1033 13.0447 46.1319 13.0447C46.1605 13.0447 46.1838 13.0958 46.1838 13.1582ZM71.5959 13.1582C71.5959 13.2206 71.49 13.2717 71.3606 13.2717C71.2312 13.2717 71.1253 13.2206 71.1253 13.1582C71.1253 13.0958 71.2312 13.0447 71.3606 13.0447C71.49 13.0447 71.5959 13.0958 71.5959 13.1582ZM72.1841 13.1582C72.1841 13.2206 72.1312 13.2717 72.0665 13.2717C72.0018 13.2717 71.9488 13.2206 71.9488 13.1582C71.9488 13.0958 72.0018 13.0447 72.0665 13.0447C72.1312 13.0447 72.1841 13.0958 72.1841 13.1582ZM106.664 13.1894C106.649 13.3251 106.488 13.2988 106.438 13.1525C106.412 13.0776 106.454 13.0368 106.532 13.0617C106.609 13.0867 106.669 13.1441 106.664 13.1894ZM105.714 13.2083C105.714 13.2358 105.661 13.2899 105.596 13.3284C105.532 13.367 105.479 13.3444 105.479 13.2784C105.479 13.2123 105.532 13.1582 105.596 13.1582C105.661 13.1582 105.714 13.1807 105.714 13.2083ZM2.18311 13.7257C2.18311 13.7881 2.12699 13.8391 2.05852 13.8391C1.99005 13.8391 1.96664 13.7881 2.00664 13.7257C2.04664 13.6632 2.10264 13.6122 2.13123 13.6122C2.15982 13.6122 2.18311 13.6632 2.18311 13.7257ZM19.0069 13.8458C19.0069 13.9046 18.9539 13.9526 18.8892 13.9526C18.8245 13.9526 18.7716 13.873 18.7716 13.7757C18.7716 13.6784 18.8245 13.6303 18.8892 13.6689C18.9539 13.7075 19.0069 13.787 19.0069 13.8458ZM29.1835 13.8391C29.1435 13.9016 29.061 13.9526 29.0001 13.9526C28.9391 13.9526 28.8894 13.9016 28.8894 13.8391C28.8894 13.7767 28.972 13.7257 29.0728 13.7257C29.1736 13.7257 29.2235 13.7767 29.1835 13.8391ZM93.0618 14.0377C93.115 14.1714 93.0597 14.2884 92.8924 14.3956C92.6449 14.5542 92.6454 14.5564 93.0255 14.9346C93.2354 15.1436 93.3503 15.3145 93.281 15.3145C93.2117 15.3145 93.1226 15.4711 93.0829 15.6625C92.9736 16.1897 92.7585 15.9501 92.8494 15.4022C92.9135 15.0155 92.8966 14.9475 92.7496 15.0018C92.6175 15.0507 92.5701 14.9815 92.5627 14.7291C92.5571 14.5431 92.4975 14.3268 92.4302 14.2485C92.3444 14.1489 92.3492 14.066 92.4461 13.9726C92.6497 13.7762 92.9713 13.8102 93.0618 14.0377ZM72.2478 14.0737C72.3744 14.2713 72.2303 14.3132 72.0688 14.1256C71.976 14.0178 71.9671 13.9526 72.0452 13.9526C72.1139 13.9526 72.2052 14.0071 72.2478 14.0737ZM28.5364 14.4133C28.5364 14.5345 28.4835 14.6336 28.4188 14.6336C28.3541 14.6336 28.3011 14.5028 28.3011 14.3431C28.3011 14.1785 28.3521 14.083 28.4188 14.1229C28.4835 14.1614 28.5364 14.2921 28.5364 14.4133ZM59.6545 14.1796C59.6945 14.242 59.6743 14.2931 59.6096 14.2931C59.5449 14.2931 59.4592 14.242 59.4192 14.1796C59.3792 14.1172 59.3995 14.0661 59.4642 14.0661C59.5289 14.0661 59.6145 14.1172 59.6545 14.1796ZM71.2429 14.4066C71.2429 14.469 71.19 14.5201 71.1253 14.5201C71.0606 14.5201 71.0076 14.469 71.0076 14.4066C71.0076 14.3442 71.0606 14.2931 71.1253 14.2931C71.19 14.2931 71.2429 14.3442 71.2429 14.4066ZM93.3609 14.5201C93.3609 14.5825 93.308 14.6336 93.2433 14.6336C93.1786 14.6336 93.1256 14.5825 93.1256 14.5201C93.1256 14.4577 93.1786 14.4066 93.2433 14.4066C93.308 14.4066 93.3609 14.4577 93.3609 14.5201ZM1.77417 15.1726C1.80134 15.5299 1.76758 15.655 1.64405 15.655C1.54146 15.655 1.47557 15.7753 1.4731 15.9671L1.46887 16.2792L1.30581 15.9954C1.15628 15.7354 1.16404 15.704 1.39816 15.6188C1.67334 15.5187 1.67499 15.521 1.04627 15.1199C0.838036 14.9871 0.838623 14.9756 1.06463 14.8036C1.47287 14.4926 1.73287 14.6278 1.77417 15.1726ZM106.067 14.7971C106.067 14.8871 106.014 14.9922 105.949 15.0308C105.885 15.0694 105.832 14.9957 105.832 14.8672C105.832 14.7388 105.885 14.6336 105.949 14.6336C106.014 14.6336 106.067 14.7071 106.067 14.7971ZM106.751 14.8535C106.78 14.9386 106.736 14.9812 106.648 14.9528C106.563 14.9255 106.47 14.836 106.442 14.7542C106.413 14.6691 106.457 14.6265 106.545 14.6549C106.63 14.6821 106.723 14.7716 106.751 14.8535ZM18.0069 14.8605C17.9669 14.923 17.8812 14.974 17.8165 14.974C17.7518 14.974 17.7316 14.923 17.7716 14.8605C17.8116 14.7981 17.8972 14.7471 17.9619 14.7471C18.0266 14.7471 18.0469 14.7981 18.0069 14.8605ZM20.0069 14.8605C20.0469 14.923 20.0235 14.974 19.955 14.974C19.8865 14.974 19.8304 14.923 19.8304 14.8605C19.8304 14.7981 19.8537 14.7471 19.8823 14.7471C19.9109 14.7471 19.9669 14.7981 20.0069 14.8605ZM28.5209 15.1623C28.4324 15.2651 28.3408 15.2846 28.2694 15.2158C28.1123 15.0643 28.2716 14.8567 28.4844 14.9354C28.6223 14.9865 28.6302 15.0353 28.5209 15.1623ZM29.9482 15.0308C29.9482 15.1244 29.8688 15.201 29.7717 15.201C29.588 15.201 29.5383 15.0667 29.6737 14.9362C29.809 14.8056 29.9482 14.8535 29.9482 15.0308ZM22.9697 15.2223C22.9321 15.3128 22.9042 15.2859 22.8986 15.1537C22.8935 15.0341 22.9213 14.9671 22.9604 15.0048C22.9994 15.0425 23.0037 15.1404 22.9697 15.2223ZM29.1247 15.0875C29.1247 15.1499 29.0717 15.201 29.007 15.201C28.9423 15.201 28.8894 15.1499 28.8894 15.0875C28.8894 15.0251 28.9423 14.974 29.007 14.974C29.0717 14.974 29.1247 15.0251 29.1247 15.0875ZM71.7638 15.332C72.0385 15.8631 71.9966 15.9101 71.476 15.6538C71.064 15.4511 71.0191 15.3923 71.1272 15.1976C71.3079 14.8719 71.5525 14.9235 71.7638 15.332ZM73.243 15.0875C73.243 15.1499 73.2197 15.201 73.1911 15.201C73.1625 15.201 73.1065 15.1499 73.0665 15.0875C73.0265 15.0251 73.0499 14.974 73.1184 14.974C73.1869 14.974 73.243 15.0251 73.243 15.0875ZM18.3917 15.2223C18.319 15.4327 18.0657 15.4676 18.0657 15.2672C18.0657 15.1683 18.1495 15.0875 18.2519 15.0875C18.3544 15.0875 18.4173 15.1481 18.3917 15.2223ZM19.0069 15.201C19.0069 15.2634 18.9508 15.3145 18.8823 15.3145C18.8138 15.3145 18.7904 15.2634 18.8304 15.201C18.8704 15.1386 18.9264 15.0875 18.955 15.0875C18.9836 15.0875 19.0069 15.1386 19.0069 15.201ZM92.4785 15.201C92.5191 15.2643 92.4311 15.3137 92.2796 15.3128C92.061 15.3113 92.0424 15.2895 92.1844 15.201C92.4034 15.0646 92.3911 15.0646 92.4785 15.201ZM2.53606 15.3779C2.53606 15.4752 2.48312 15.5233 2.41841 15.4847C2.3537 15.4461 2.30076 15.3666 2.30076 15.3078C2.30076 15.249 2.3537 15.201 2.41841 15.201C2.48312 15.201 2.53606 15.2807 2.53606 15.3779ZM20.4693 15.3017C20.5047 15.3569 20.4509 15.4686 20.3496 15.5496C20.1978 15.6712 20.1476 15.6694 20.0645 15.5395C20.009 15.453 19.9897 15.3414 20.0216 15.2916C20.0996 15.1699 20.389 15.1764 20.4693 15.3017ZM72.9807 15.3358C72.908 15.5462 72.6547 15.5811 72.6547 15.3807C72.6547 15.2818 72.7385 15.201 72.841 15.201C72.9434 15.201 73.0064 15.2616 72.9807 15.3358ZM106.366 15.5341C106.334 15.5838 106.161 15.5964 105.982 15.562L105.655 15.4996L105.949 15.4249C106.271 15.3433 106.457 15.3921 106.366 15.5341ZM21.7128 15.5415C21.7128 15.6039 21.6895 15.655 21.6609 15.655C21.6323 15.655 21.5763 15.6039 21.5363 15.5415C21.4963 15.4791 21.5197 15.428 21.5882 15.428C21.6567 15.428 21.7128 15.4791 21.7128 15.5415ZM2.30076 15.7684C2.30076 15.8309 2.22135 15.8819 2.12429 15.8819C2.02723 15.8819 1.94782 15.8309 1.94782 15.7684C1.94782 15.706 2.02723 15.655 2.12429 15.655C2.22135 15.655 2.30076 15.706 2.30076 15.7684ZM29.5365 15.7684C29.5765 15.8309 29.553 15.8819 29.4846 15.8819C29.4161 15.8819 29.36 15.8309 29.36 15.7684C29.36 15.706 29.3833 15.655 29.4119 15.655C29.4405 15.655 29.4965 15.706 29.5365 15.7684ZM59.3604 15.8217C59.3604 15.9231 59.2915 15.9627 59.1839 15.923C59.0869 15.887 59.0075 15.812 59.0075 15.7563C59.0075 15.7006 59.0869 15.655 59.1839 15.655C59.281 15.655 59.3604 15.73 59.3604 15.8217ZM72.243 15.9954C72.283 16.0578 72.2595 16.1089 72.1911 16.1089C72.1226 16.1089 72.0665 16.0578 72.0665 15.9954C72.0665 15.933 72.0898 15.8819 72.1184 15.8819C72.1469 15.8819 72.203 15.933 72.243 15.9954ZM92.8058 16.1373C92.8701 16.3101 92.6881 16.6764 92.538 16.6764C92.4782 16.6764 92.4403 16.5233 92.4538 16.3361C92.4784 15.9967 92.7058 15.8683 92.8058 16.1373ZM106.593 16.2856C106.787 16.427 106.802 16.4911 106.684 16.6739C106.526 16.9183 106.653 17.0542 106.94 16.9478C107.078 16.8968 107.109 16.9268 107.056 17.0603C107.016 17.1605 106.933 17.2121 106.87 17.175C106.808 17.1378 106.728 17.2148 106.692 17.3458C106.6 17.6856 106.381 17.6423 106.449 17.2978C106.52 16.9411 106.337 16.8139 106.136 17.0796C105.985 17.2786 105.714 17.2244 105.714 16.9951C105.714 16.8342 106.182 16.1079 106.283 16.1125C106.326 16.1145 106.466 16.1923 106.593 16.2856ZM92.3609 16.7899C92.4009 16.8523 92.3775 16.9033 92.309 16.9033C92.2405 16.9033 92.1844 16.8523 92.1844 16.7899C92.1844 16.7274 92.2077 16.6764 92.2363 16.6764C92.2649 16.6764 92.3209 16.7274 92.3609 16.7899ZM1.9184 16.9885C1.94723 17.0716 1.86605 17.1303 1.72228 17.1303C1.57781 17.1303 1.47722 17.057 1.47722 16.9518C1.47722 16.7432 1.84429 16.7737 1.9184 16.9885ZM45.5955 16.9695C45.5955 17.0684 45.5327 17.1291 45.4559 17.1043C45.2376 17.0342 45.2015 16.7899 45.4093 16.7899C45.5117 16.7899 45.5955 16.8707 45.5955 16.9695ZM46.3014 17.1965C46.3014 17.2953 46.2386 17.356 46.1618 17.3313C45.9435 17.2612 45.9074 17.0168 46.1152 17.0168C46.2176 17.0168 46.3014 17.0976 46.3014 17.1965ZM72.7018 17.3119C72.8427 17.3641 72.8578 17.4304 72.7661 17.5956C72.624 17.8515 72.5366 17.8622 72.2474 17.6583C71.8777 17.3974 72.2225 17.1345 72.7018 17.3119ZM92.4197 17.6343C92.4197 17.7867 92.3668 17.9429 92.3021 17.9815C92.2335 18.0225 92.1844 17.907 92.1844 17.7045C92.1844 17.5136 92.2374 17.3573 92.3021 17.3573C92.3668 17.3573 92.4197 17.4819 92.4197 17.6343ZM93.4073 17.5371C93.4511 17.6475 93.4249 17.6995 93.3389 17.6718C93.163 17.6153 93.0662 17.3573 93.2209 17.3573C93.2841 17.3573 93.3679 17.4382 93.4073 17.5371ZM45.8308 17.5843C45.8308 17.6467 45.8075 17.6978 45.7789 17.6978C45.7503 17.6978 45.6943 17.6467 45.6543 17.5843C45.6143 17.5219 45.6377 17.4708 45.7062 17.4708C45.7747 17.4708 45.8308 17.5219 45.8308 17.5843ZM46.5548 17.8392C46.4201 17.9691 46.1494 17.8433 46.2445 17.6949C46.2799 17.6395 46.3902 17.6242 46.4895 17.661C46.6075 17.7047 46.6301 17.7665 46.5548 17.8392ZM107.026 17.7545C107.026 17.8137 106.969 17.8806 106.899 17.903C106.83 17.9253 106.773 17.8586 106.773 17.7545C106.773 17.6504 106.83 17.5837 106.899 17.6061C106.969 17.6284 107.026 17.6953 107.026 17.7545ZM17.0069 17.8747C17.0069 17.9719 16.9539 18.0201 16.8892 17.9815C16.8245 17.9429 16.7716 17.8633 16.7716 17.8046C16.7716 17.7458 16.8245 17.6978 16.8892 17.6978C16.9539 17.6978 17.0069 17.7774 17.0069 17.8747ZM74.2119 17.9954C74.3678 17.9006 74.4598 17.915 74.6073 18.0573C74.7852 18.229 74.7762 18.2576 74.4859 18.441C74.311 18.5517 74.1993 18.707 74.2333 18.7927C74.3076 18.9793 74.2758 18.9815 73.902 18.8173C73.5272 18.6525 73.4574 18.4679 73.6324 18.1039C73.743 17.8737 73.7972 17.8446 73.8906 17.9657C73.9793 18.0808 74.0595 18.0883 74.2119 17.9954ZM2.63288 18.303C2.65853 18.4306 2.59147 18.4922 2.427 18.4922C2.29288 18.4922 2.18311 18.4241 2.18311 18.3409C2.18311 17.9933 2.56418 17.9612 2.63288 18.303ZM17.5951 18.1517C17.5951 18.2141 17.539 18.2652 17.4705 18.2652C17.402 18.2652 17.3786 18.2141 17.4186 18.1517C17.4586 18.0893 17.5146 18.0382 17.5432 18.0382C17.5718 18.0382 17.5951 18.0893 17.5951 18.1517ZM1.83017 18.7192C1.83017 18.7816 1.77723 18.8326 1.71252 18.8326C1.64781 18.8326 1.59487 18.7816 1.59487 18.7192C1.59487 18.6567 1.64781 18.6057 1.71252 18.6057C1.77723 18.6057 1.83017 18.6567 1.83017 18.7192ZM106.42 18.8326C106.42 18.8951 106.397 18.9461 106.368 18.9461C106.339 18.9461 106.283 18.8951 106.243 18.8326C106.203 18.7702 106.227 18.7192 106.295 18.7192C106.364 18.7192 106.42 18.7702 106.42 18.8326ZM59.3604 19.1164C59.3604 19.21 59.3107 19.2866 59.2497 19.2866C59.1014 19.2866 58.9951 19.1093 59.0891 19.0187C59.2216 18.8909 59.3604 18.9409 59.3604 19.1164ZM2.31041 19.4001C2.36982 19.4001 2.41841 19.5022 2.41841 19.6271C2.41841 19.8975 2.04782 19.9368 1.8344 19.6888C1.65969 19.4857 1.79028 19.2476 2.02817 19.3356C2.12394 19.371 2.251 19.4001 2.31041 19.4001ZM46.6984 19.8278C46.5486 20.057 46.4047 20.053 46.2494 19.8156C46.175 19.7019 46.191 19.5851 46.2981 19.4607C46.4431 19.2922 46.4746 19.2915 46.6422 19.4533C46.7834 19.5895 46.7966 19.6776 46.6984 19.8278ZM92.8953 19.4625C93.02 19.6075 93.0137 19.6701 92.86 19.8185C92.7573 19.9176 92.5897 19.9677 92.4877 19.9299C92.267 19.8482 92.2395 19.4433 92.4491 19.3617C92.6902 19.2679 92.7369 19.2784 92.8953 19.4625ZM106.773 19.3936C106.773 19.5296 106.298 19.854 106.1 19.854C106.017 19.854 105.949 19.803 105.949 19.7406C105.949 19.6781 106.022 19.6271 106.111 19.6271C106.201 19.6271 106.339 19.5505 106.42 19.4568C106.585 19.2654 106.773 19.2317 106.773 19.3936ZM17.0551 19.6158C17.1744 19.7429 17.21 19.8598 17.142 19.9004C16.9597 20.0091 16.4186 19.7644 16.4186 19.5732C16.4186 19.3309 16.8125 19.3572 17.0551 19.6158ZM29.9482 19.7406C29.9482 19.803 29.8953 19.854 29.8306 19.854C29.7659 19.854 29.7129 19.803 29.7129 19.7406C29.7129 19.6781 29.7659 19.6271 29.8306 19.6271C29.8953 19.6271 29.9482 19.6781 29.9482 19.7406ZM74.3018 19.854C74.3018 19.9165 74.2224 19.9675 74.1253 19.9675C74.0283 19.9675 73.9489 19.9165 73.9489 19.854C73.9489 19.7916 74.0283 19.7406 74.1253 19.7406C74.2224 19.7406 74.3018 19.7916 74.3018 19.854ZM31.2424 20.081C31.2424 20.1434 31.1894 20.1945 31.1247 20.1945C31.06 20.1945 31.0071 20.1434 31.0071 20.081C31.0071 20.0186 31.06 19.9675 31.1247 19.9675C31.1894 19.9675 31.2424 20.0186 31.2424 20.081ZM75.7136 20.1945C75.7136 20.2569 75.6575 20.308 75.589 20.308C75.5205 20.308 75.4971 20.2569 75.5371 20.1945C75.5771 20.1321 75.6331 20.081 75.6617 20.081C75.6903 20.081 75.7136 20.1321 75.7136 20.1945ZM2.65371 20.535C2.65371 20.7988 2.285 20.847 2.08088 20.6097C1.91617 20.4182 2.02511 20.308 2.37924 20.308C2.57524 20.308 2.65371 20.3728 2.65371 20.535ZM93.4786 20.4215C93.4786 20.4839 93.3991 20.535 93.3021 20.535C93.205 20.535 93.1256 20.4839 93.1256 20.4215C93.1256 20.3591 93.205 20.308 93.3021 20.308C93.3991 20.308 93.4786 20.3591 93.4786 20.4215ZM46.3014 20.535C46.3014 20.5974 46.222 20.6485 46.1249 20.6485C46.0279 20.6485 45.9485 20.5974 45.9485 20.535C45.9485 20.4726 46.0279 20.4215 46.1249 20.4215C46.222 20.4215 46.3014 20.4726 46.3014 20.535ZM92.6827 20.6994C92.7489 21.0338 92.5856 21.2159 92.2197 21.2159C91.8744 21.2159 91.8463 20.8087 92.1844 20.7052C92.3138 20.6656 92.4197 20.5856 92.4197 20.5274C92.4197 20.2993 92.6307 20.4373 92.6827 20.6994ZM104.652 20.9606C104.649 21.2283 104.631 21.2443 104.528 21.0731C104.461 20.9634 104.44 20.823 104.479 20.7611C104.601 20.5712 104.655 20.6342 104.652 20.9606ZM107.126 20.762C107.126 20.8244 107.103 20.8754 107.074 20.8754C107.045 20.8754 106.989 20.8244 106.949 20.762C106.909 20.6995 106.933 20.6485 107.001 20.6485C107.07 20.6485 107.126 20.6995 107.126 20.762ZM4.74821 21.1743C4.76797 21.3069 4.70609 21.4428 4.60974 21.4784C4.38574 21.5614 4.13538 21.2727 4.22844 21.0388C4.32879 20.7866 4.70515 20.8848 4.74821 21.1743ZM105.714 21.1091C105.714 21.1679 105.661 21.2159 105.596 21.2159C105.532 21.2159 105.479 21.1362 105.479 21.039C105.479 20.9417 105.532 20.8936 105.596 20.9322C105.661 20.9708 105.714 21.0503 105.714 21.1091ZM108.463 21.045C108.426 21.1383 108.348 21.1864 108.29 21.1518C108.124 21.0528 108.167 20.8754 108.357 20.8754C108.462 20.8754 108.504 20.9421 108.463 21.045ZM109.126 20.9889C109.126 21.0514 109.073 21.1024 109.008 21.1024C108.943 21.1024 108.891 21.0514 108.891 20.9889C108.891 20.9265 108.943 20.8754 109.008 20.8754C109.073 20.8754 109.126 20.9265 109.126 20.9889ZM97.1845 21.1024C97.2245 21.1648 97.2011 21.2159 97.1326 21.2159C97.0641 21.2159 97.008 21.1648 97.008 21.1024C97.008 21.04 97.0313 20.9889 97.0599 20.9889C97.0885 20.9889 97.1445 21.04 97.1845 21.1024ZM99.2115 21.0575C99.1724 21.0952 99.0709 21.0992 98.986 21.0664C98.8922 21.0302 98.92 21.0033 99.0571 20.9979C99.1811 20.993 99.2505 21.0198 99.2115 21.0575ZM99.9492 21.2794C99.9492 21.4666 99.7634 21.4983 99.6551 21.3294C99.5591 21.1796 99.6998 20.9671 99.8397 21.0506C99.8999 21.0864 99.9492 21.1894 99.9492 21.2794ZM3.1243 21.3928C3.1243 21.4901 3.07054 21.5377 3.00477 21.4985C2.93901 21.4592 2.91559 21.3797 2.95289 21.3216C3.05371 21.1642 3.1243 21.1934 3.1243 21.3928ZM8.77144 21.3294C8.77144 21.3918 8.71533 21.4429 8.64685 21.4429C8.57838 21.4429 8.55497 21.3918 8.59497 21.3294C8.63497 21.267 8.69097 21.2159 8.71956 21.2159C8.74815 21.2159 8.77144 21.267 8.77144 21.3294ZM98.524 21.4509C98.3352 21.5634 98.2493 21.5037 98.3573 21.3351C98.4006 21.2675 98.491 21.245 98.5582 21.285C98.6372 21.3321 98.6251 21.3906 98.524 21.4509ZM78.6725 21.4996C78.6725 21.559 78.6155 21.6257 78.546 21.6481C78.4765 21.6704 78.4195 21.6037 78.4195 21.4996C78.4195 21.3956 78.4765 21.3288 78.546 21.3512C78.6155 21.3736 78.6725 21.4403 78.6725 21.4996ZM100.587 21.5159C100.685 21.7635 100.554 21.8786 100.415 21.6666C100.276 21.4544 100.273 21.3294 100.407 21.3294C100.465 21.3294 100.546 21.4133 100.587 21.5159ZM101.878 21.765C101.621 21.819 101.51 21.6777 101.714 21.5562C101.823 21.4915 101.916 21.5039 101.972 21.5908C102.025 21.6717 101.987 21.7422 101.878 21.765ZM108.166 21.7161C108.196 21.8682 108.157 21.911 108.032 21.8645C107.918 21.8225 107.832 21.8819 107.792 22.0296C107.755 22.1675 107.675 22.2277 107.594 22.1792C107.496 22.1209 107.494 22.0637 107.586 21.9748C107.657 21.9069 107.714 21.7558 107.714 21.6389C107.714 21.3578 108.108 21.4251 108.166 21.7161ZM104.008 21.6699C103.968 21.7323 103.872 21.7826 103.795 21.7817C103.711 21.7805 103.726 21.7359 103.832 21.6699C104.058 21.5289 104.098 21.5289 104.008 21.6699ZM97.1257 21.7199C97.1257 21.7475 97.0727 21.8015 97.008 21.8401C96.9433 21.8787 96.8904 21.8561 96.8904 21.7901C96.8904 21.724 96.9433 21.6699 97.008 21.6699C97.0727 21.6699 97.1257 21.6923 97.1257 21.7199ZM101.305 21.7784C101.267 21.8381 101.158 21.8581 101.063 21.823C100.82 21.733 100.849 21.6699 101.133 21.6699C101.266 21.6699 101.344 21.7187 101.305 21.7784ZM109.805 23.4645C109.834 23.5474 109.78 23.5727 109.665 23.5304C109.563 23.4924 109.479 23.4116 109.479 23.3506C109.479 23.2014 109.746 23.2948 109.805 23.4645ZM81.5722 29.7252C81.2669 29.8859 81.0636 30.1134 80.893 30.4856C80.6707 30.9702 80.653 31.1914 80.6897 33.0157C80.7239 34.7114 80.7645 35.0819 80.9571 35.4565C81.2725 36.0697 81.6999 36.3375 82.4603 36.3983C83.9422 36.5168 84.8902 35.7744 84.8902 34.4952C84.8902 33.5676 84.2778 32.6837 83.6296 32.6757C83.4992 32.6741 83.5684 32.6024 83.8121 32.4866C84.5681 32.1272 84.8253 31.2738 84.4205 30.4672C84.0857 29.7999 83.7143 29.5897 82.7797 29.5383C82.1692 29.5048 81.9167 29.5438 81.5722 29.7252ZM86.1381 29.7936C86.0117 30.1112 86.0577 35.9683 86.1884 36.2039C86.3259 36.4514 86.7099 36.4963 86.8539 36.2816C86.9062 36.2036 86.9755 35.7056 87.0079 35.175C87.0646 34.2456 87.077 34.2104 87.3518 34.2104C87.6341 34.2104 88.0139 34.7104 88.4741 35.688C88.7081 36.185 89.0607 36.4586 89.3524 36.3693C89.733 36.2527 89.6531 35.8271 89.0667 34.8465C88.7756 34.3595 88.5373 33.8732 88.5373 33.7657C88.5373 33.6583 88.6991 33.3436 88.8969 33.0663C89.3332 32.4545 89.6285 31.7992 89.5341 31.6519C89.4959 31.5922 89.3358 31.5434 89.1784 31.5434C88.9504 31.5434 88.7786 31.7165 88.3324 32.396C87.7982 33.2098 87.4338 33.4862 87.1322 33.3064C87.0545 33.2601 87.0079 32.6371 87.0079 31.6427C87.0079 30.764 86.9534 29.955 86.8861 29.8336C86.7393 29.5689 86.2381 29.5421 86.1381 29.7936ZM98.6046 30.0194C98.3879 30.2285 98.3762 30.3447 98.5416 30.643C98.7282 30.9791 99.4443 30.9458 99.6109 30.593C99.8899 30.0023 99.0932 29.5481 98.6046 30.0194ZM100.64 30.0288C100.459 30.2387 100.491 30.6482 100.697 30.7756C100.907 30.9056 101.417 30.8769 101.573 30.7263C101.65 30.6514 101.714 30.4828 101.714 30.3518C101.714 30.2207 101.65 30.0522 101.573 29.9773C101.369 29.7802 100.828 29.8101 100.64 30.0288ZM109.955 30.0051C109.575 30.447 110.216 31.1335 110.713 30.8168C111.216 30.4964 111.019 29.8411 110.42 29.8411C110.242 29.8411 110.032 29.9148 109.955 30.0051ZM83.3562 30.43C83.6838 30.7692 83.6857 31.6299 83.3597 32.0296C83.0904 32.36 81.9974 32.657 81.7894 32.4563C81.6236 32.2963 81.5871 31.3336 81.7302 30.8912C81.957 30.1899 82.8733 29.93 83.3562 30.43ZM105.149 31.1121C105.06 31.1985 105.008 31.6342 105.008 32.3038C105.008 33.3495 105.005 33.3592 104.719 33.3592C104.379 33.3592 104.325 33.3067 103.676 32.3378C103.249 31.701 103.133 31.6001 102.83 31.6001C102.528 31.6001 102.483 31.6387 102.51 31.8749C102.528 32.0261 102.753 32.4717 103.01 32.8652C103.268 33.2587 103.479 33.6662 103.479 33.7708C103.479 33.8755 103.237 34.365 102.942 34.8584C102.321 35.8975 102.278 36.3442 102.793 36.4017C103.071 36.4327 103.163 36.3449 103.586 35.6465C103.849 35.2118 104.115 34.728 104.176 34.5714C104.292 34.2794 104.678 34.0835 104.889 34.2097C104.955 34.2486 105.013 34.6222 105.02 35.0399C105.036 36.0624 105.133 36.3582 105.468 36.4047C105.91 36.466 106.002 36.2639 105.973 35.3018C105.952 34.6018 105.987 34.3785 106.134 34.2604C106.403 34.045 106.645 34.2287 107.067 34.9684C107.859 36.3593 107.928 36.4409 108.273 36.4025C108.698 36.3553 108.776 35.8702 108.428 35.4426C108.294 35.2787 108.185 35.0992 108.185 35.044C108.185 34.9888 108.052 34.7413 107.891 34.4941C107.729 34.2469 107.596 33.9377 107.596 33.8069C107.596 33.6761 107.808 33.2253 108.067 32.8051C108.623 31.9024 108.674 31.5434 108.248 31.5434C107.916 31.5434 107.889 31.5701 107.215 32.5648C106.867 33.0775 106.628 33.3142 106.433 33.3407C106.034 33.3952 105.953 33.1972 105.951 32.1619C105.949 31.2347 105.846 30.976 105.479 30.976C105.375 30.976 105.227 31.0372 105.149 31.1121ZM0.31744 31.531C0.190614 31.6085 0.161202 32.0892 0.175202 33.859C0.184967 35.0856 0.22285 36.1644 0.259439 36.2562C0.341558 36.4627 0.815094 36.4757 0.986626 36.2765C1.05616 36.1956 1.12875 35.7488 1.14804 35.2834L1.1831 34.4374L2.11311 34.4039C2.64053 34.3849 3.09536 34.4208 3.16372 34.4867C3.23007 34.5507 3.29772 34.961 3.31419 35.3985C3.33066 35.8359 3.37713 36.2455 3.4176 36.3087C3.54372 36.5055 4.05032 36.4358 4.17902 36.2039C4.31409 35.9604 4.32856 32.2332 4.1962 31.7704C4.13926 31.5714 4.01973 31.4759 3.7962 31.4508C3.38219 31.4042 3.24313 31.7371 3.28584 32.6731C3.30595 33.1151 3.26525 33.4069 3.17313 33.4807C3.09383 33.5442 2.61406 33.5811 2.10605 33.5628L1.1831 33.5295L1.12427 32.5887C1.08263 31.9235 1.0138 31.6166 0.888977 31.5407C0.670268 31.4077 0.523325 31.4052 0.31744 31.531ZM6.71259 31.5925C6.17729 31.8444 6.00623 32.0096 5.71987 32.5509C5.32622 33.2954 5.34457 34.5139 5.76187 35.3367C6.16541 36.1323 6.65294 36.4243 7.57225 36.4209C9.05074 36.4155 9.71181 35.7418 9.79758 34.1536C9.85675 33.0581 9.5971 32.332 8.97168 31.8437C8.60132 31.5546 8.40579 31.491 7.79649 31.4617C7.32601 31.439 6.93977 31.4856 6.71259 31.5925ZM12.8303 31.5129C12.7009 31.5422 12.4755 31.6723 12.3295 31.8023L12.064 32.0384L11.8249 31.7909C11.5558 31.5124 11.3555 31.4794 11.148 31.6796C10.9691 31.8521 10.9481 37.2809 11.1244 37.7286C11.2184 37.967 11.3076 38.0201 11.5656 37.9914C11.8881 37.9556 11.8893 37.9521 11.9231 36.9625C11.9418 36.4164 11.9837 35.9695 12.0161 35.9695C12.0486 35.9695 12.2271 36.0778 12.4128 36.2103C12.6991 36.4145 12.871 36.4437 13.5413 36.4025C14.2496 36.3591 14.3665 36.3167 14.6636 35.9959C15.1008 35.5239 15.2826 34.8584 15.2661 33.7904C15.2502 32.7547 14.9795 32.1367 14.3928 31.7963C13.9869 31.5608 13.228 31.4231 12.8303 31.5129ZM16.5463 31.5886C16.3813 31.7803 16.3954 35.9127 16.5621 36.2314C16.639 36.3782 16.7761 36.4267 17.044 36.4016L17.4186 36.3667L17.4079 34.6927C17.4019 33.7721 17.4335 33.0188 17.4777 33.0188C17.522 33.0188 17.8131 33.3252 18.1245 33.6997C18.4359 34.0742 18.7515 34.3806 18.8257 34.3806C18.9676 34.3806 19.497 33.8692 19.9283 33.3155L20.1834 32.9881L20.1981 33.7127C20.2062 34.1113 20.211 34.7942 20.2088 35.2302C20.204 36.1921 20.313 36.4234 20.7716 36.4234C21.1804 36.4234 21.3832 36.1342 21.3022 35.6667C21.2716 35.4899 21.2262 34.5217 21.2014 33.5149C21.1766 32.5083 21.1195 31.6274 21.0747 31.5572C21.0297 31.4872 20.8473 31.4299 20.669 31.4299C20.3096 31.4299 19.9701 31.7349 19.3671 32.5994C19.1578 32.8992 18.9251 33.1253 18.8497 33.1016C18.7744 33.078 18.4602 32.7572 18.1516 32.3889C17.3912 31.4815 16.8643 31.2188 16.5463 31.5886ZM23.1834 31.6354C22.6874 31.797 22.5952 31.8716 22.5952 32.1108C22.5952 32.3455 22.646 32.3896 22.8893 32.3657C24.7871 32.1795 24.7337 32.1763 24.9443 32.4864C25.0529 32.6463 25.1246 32.9208 25.1038 33.0965C25.0674 33.4018 25.0318 33.419 24.3011 33.4859C23.8805 33.5243 23.404 33.6082 23.2422 33.6725C22.1346 34.1118 21.9833 35.7426 23.0031 36.2513C23.4784 36.4883 24.2806 36.4669 24.8176 36.2028C25.2619 35.9842 25.2686 35.9842 25.5117 36.2028C25.9149 36.5651 26.5364 36.4613 26.5364 36.0317C26.5364 35.8919 26.4305 35.6852 26.3011 35.5723C26.091 35.3889 26.0658 35.2227 26.0658 34.0189C26.0658 32.4709 25.9216 31.9938 25.3707 31.7191C24.8287 31.4486 23.8693 31.412 23.1834 31.6354ZM29.3613 31.577C29.1236 31.6923 28.919 32.1041 28.277 33.7592C27.8418 34.8812 27.4971 35.9235 27.511 36.0755C27.5397 36.388 28.1129 36.6219 28.2696 36.3851C28.366 36.2394 29.3104 33.6645 29.5149 32.9904C29.673 32.4687 29.7541 32.4572 29.9178 32.9336C30.338 34.1572 31.0831 36.1611 31.1626 36.2816C31.2964 36.4841 31.941 36.4604 32.0247 36.2498C32.0997 36.0613 30.4632 31.831 30.2528 31.6696C29.9981 31.4741 29.6483 31.4377 29.3613 31.577ZM33.2967 31.6207C33.1489 31.7633 33.1251 32.166 33.1518 34.079L33.1836 36.3667L33.4644 36.4049C33.6189 36.426 33.786 36.3796 33.8359 36.3018C33.9082 36.1889 34.0004 36.1897 34.2901 36.3055C34.5089 36.3929 34.9371 36.4309 35.3655 36.4011C36.2546 36.339 36.7154 35.9622 36.8653 35.1747C37.1796 33.5226 36.0128 32.6556 34.2019 33.1956C33.947 33.2716 33.9282 33.2487 33.9543 32.8929C34.023 31.9552 33.9555 31.5717 33.7109 31.51C33.5804 31.477 33.394 31.5268 33.2967 31.6207ZM38.2695 31.5086C38.0775 31.5568 38.0638 31.7426 38.093 33.8948C38.1214 35.9739 38.1473 36.2423 38.3307 36.3539C38.4803 36.4448 38.5928 36.445 38.7425 36.3543C38.9007 36.2586 38.962 36.0221 39.0072 35.3336L39.066 34.4374L39.6957 34.3764C40.0419 34.3428 40.5021 34.3353 40.7184 34.3596C41.162 34.4097 41.2253 34.5632 41.2338 35.6085C41.2365 35.9404 41.2691 36.2597 41.3064 36.3178C41.4277 36.5071 41.9362 36.4305 42.0619 36.2039C42.2177 35.9232 42.2237 32.1135 42.069 31.721C41.9872 31.5135 41.868 31.4299 41.6543 31.4299C41.2596 31.4299 41.1349 31.7602 41.1977 32.6399C41.2617 33.5371 41.172 33.6055 39.989 33.5628L39.066 33.5295L39.0072 32.5887C38.9655 31.9235 38.8967 31.6166 38.7719 31.5407C38.6748 31.4817 38.5689 31.4385 38.5366 31.4448C38.5042 31.4511 38.384 31.4798 38.2695 31.5086ZM44.4122 31.5374C43.864 31.6981 43.5955 31.8891 43.5955 32.1184C43.5955 32.4479 43.8378 32.4886 44.5722 32.2828C45.153 32.1198 45.2686 32.1182 45.6406 32.2683C46.0618 32.4379 46.2493 32.7752 46.1635 33.2084C46.1305 33.3752 45.9727 33.4291 45.3589 33.4833C44.939 33.5203 44.395 33.6334 44.1501 33.7345C43.1474 34.1486 43.0909 35.7667 44.0622 36.2513C44.5494 36.4942 45.3417 36.468 45.8088 36.1934L46.1985 35.9641L46.5328 36.1938C46.9111 36.4536 47.2466 36.4877 47.4544 36.2872C47.6632 36.0858 47.6262 35.8045 47.3602 35.5723C47.1515 35.3901 47.1242 35.2179 47.1184 34.0509C47.1106 32.5138 46.9739 32.0321 46.4646 31.7462C46.0602 31.5193 44.8827 31.3995 44.4122 31.5374ZM64.7134 31.5299C63.5235 31.8251 62.9174 32.8279 63.0445 34.2906C63.1528 35.5371 63.726 36.2113 64.851 36.4155C65.5007 36.5333 66.3996 36.4091 66.5495 36.1808C66.6053 36.0958 66.6518 35.9425 66.6529 35.84C66.6544 35.6817 66.5163 35.6561 65.7319 35.6697C64.7218 35.6872 64.538 35.6078 64.2135 35.0131C63.9654 34.5586 63.9667 33.3069 64.2155 32.8426C64.4885 32.3336 64.8736 32.1811 65.703 32.2536C66.5393 32.3268 66.7862 32.1734 66.4505 31.7889C66.2159 31.5201 65.3019 31.3839 64.7134 31.5299ZM69.1842 31.7209L68.7426 32.01L68.4851 31.7767C68.1778 31.4982 67.8832 31.4755 67.7849 31.7229C67.7456 31.8217 67.7135 32.8624 67.7135 34.0355C67.7135 36.3047 67.7684 36.53 68.2834 36.3722C68.5961 36.2766 68.6513 36.0012 68.653 34.5263C68.6553 32.7527 68.9671 32.1974 69.89 32.3241C70.4127 32.3958 70.4668 32.5831 70.5173 34.4951L70.5653 36.3124L70.8635 36.3846C71.3746 36.5084 71.4782 36.2141 71.4782 34.639C71.4782 33.0365 71.6272 32.5205 72.1445 32.3308C72.5621 32.1776 72.966 32.2778 73.1312 32.5754C73.2068 32.7118 73.2699 33.5221 73.2817 34.5075C73.303 36.3087 73.3524 36.462 73.89 36.3957C74.1977 36.3577 74.2851 35.6987 74.223 33.8858C74.1733 32.4368 74.0427 32.0228 73.5341 31.7014C73.0071 31.3682 71.9786 31.5147 71.482 31.9937L71.2412 32.226L70.9186 31.8956C70.4445 31.4101 69.7637 31.3415 69.1842 31.7209ZM76.3998 31.5575C75.8331 31.7118 75.5096 32.044 75.7049 32.271C75.8516 32.4414 76.0643 32.431 76.7231 32.2213C77.0013 32.1327 77.2434 32.1327 77.5837 32.2211C77.9887 32.3264 78.0746 32.4043 78.1761 32.7591C78.3376 33.3235 78.2063 33.4372 77.3281 33.4939C76.9254 33.5198 76.4391 33.6151 76.2474 33.7055C75.8029 33.9152 75.3606 34.5455 75.3606 34.9694C75.3606 35.4378 75.7592 36.1283 76.1215 36.2876C76.5836 36.4907 77.3709 36.4518 77.8816 36.2006C78.3317 35.9792 78.3365 35.9792 78.6282 36.2006C79.2867 36.7002 79.9409 36.2787 79.4471 35.6731C79.2106 35.3832 79.1849 35.221 79.1789 33.98C79.1714 32.4177 79.0364 31.9626 78.5015 31.6958C78.0568 31.4739 76.9693 31.4024 76.3998 31.5575ZM91.5765 31.5585C91.0848 31.6913 90.7084 32.0323 90.8352 32.2302C90.8944 32.3225 91.0897 32.3377 91.4644 32.2795C92.2542 32.1566 92.9829 32.1764 93.1697 32.326C93.3968 32.5078 93.5081 33.1313 93.3469 33.3187C93.2713 33.4068 92.987 33.4727 92.6837 33.4727C91.5842 33.4727 90.7744 33.9389 90.5807 34.6834C90.4772 35.0812 90.7126 35.7621 91.0638 36.0803C91.4815 36.4588 92.4325 36.5208 93.0503 36.2098L93.5046 35.9812L93.8284 36.2122C94.4688 36.6689 95.1065 36.173 94.5887 35.6209C94.4217 35.443 94.3815 35.147 94.3623 33.9563C94.3365 32.3404 94.2217 31.9671 93.6668 31.6901C93.2275 31.471 92.1512 31.4032 91.5765 31.5585ZM99.7664 31.6636C99.5905 31.8512 99.5748 32.1172 99.6271 34.0249C99.6596 35.2074 99.7221 36.2307 99.7658 36.2991C99.8911 36.4947 100.401 36.4442 100.516 36.2248C100.666 35.9383 100.591 31.7763 100.432 31.6234C100.225 31.4231 99.9782 31.438 99.7664 31.6636ZM110.134 31.6082C109.979 31.7577 109.949 32.1313 109.949 33.913C109.949 36.2227 110.01 36.4785 110.544 36.4058L110.832 36.3667L110.864 34.0404C110.892 31.9534 110.875 31.6996 110.694 31.572C110.433 31.3879 110.358 31.3928 110.134 31.6082ZM53.2427 31.6235C52.975 31.7179 52.5329 32.1333 52.3615 32.4513C52.1217 32.8963 52.0238 34.148 52.1841 34.7219C52.3689 35.3841 53.0422 36.0364 53.6555 36.1474C54.0736 36.223 54.6074 36.1407 55.1545 35.9162C55.3208 35.8479 55.3604 35.8896 55.3604 36.1332C55.3604 36.6406 55.0468 37.0831 54.6039 37.2012C54.1441 37.3236 53.4709 37.2619 52.935 37.0479C52.4918 36.8711 52.2671 36.9794 52.3207 37.344C52.3666 37.657 52.9175 37.8769 53.9147 37.9798C54.4279 38.0328 54.6361 37.9921 55.1918 37.7298C56.2232 37.243 56.2958 37.0112 56.299 34.1913C56.3004 32.9324 56.2694 31.8217 56.2301 31.7229C56.1358 31.4859 55.6368 31.4926 55.4974 31.7328C55.3948 31.9096 55.3602 31.9096 54.9739 31.7328C54.5789 31.552 53.6175 31.4913 53.2427 31.6235ZM58.7722 31.6365C57.9413 31.9996 57.478 32.811 57.478 33.9024C57.478 34.9962 57.9251 35.8893 58.6548 36.2533C59.1302 36.4905 60.1391 36.4638 60.7462 36.198C61.1548 36.0192 61.3043 35.8644 61.5393 35.3777C61.9415 34.5442 61.9427 33.425 61.5422 32.5952C61.1546 31.7922 60.716 31.5419 59.7134 31.5518C59.2928 31.556 58.8692 31.594 58.7722 31.6365ZM73.3606 32.0674C73.3606 32.1536 73.278 32.2243 73.1772 32.2243C73.0764 32.2243 73.0265 32.1733 73.0665 32.1108C73.1065 32.0484 73.0831 31.9974 73.0146 31.9974C72.9461 31.9974 72.89 31.951 72.89 31.8945C72.89 31.8379 72.9959 31.8184 73.1253 31.851C73.2547 31.8836 73.3606 31.981 73.3606 32.0674ZM93.4786 31.8839C93.4786 31.9463 93.4224 31.9974 93.354 31.9974C93.2855 31.9974 93.2621 31.9463 93.3021 31.8839C93.3421 31.8214 93.3981 31.7704 93.4267 31.7704C93.4553 31.7704 93.4786 31.8214 93.4786 31.8839ZM64.4193 31.9974C64.4193 32.0598 64.3632 32.1108 64.2947 32.1108C64.2262 32.1108 64.2028 32.0598 64.2428 31.9974C64.2828 31.9349 64.3388 31.8839 64.3674 31.8839C64.396 31.8839 64.4193 31.9349 64.4193 31.9974ZM81.3019 31.9974C81.3419 32.0598 81.289 32.1108 81.1843 32.1108C81.0796 32.1108 81.0266 32.0598 81.0666 31.9974C81.1066 31.9349 81.1596 31.8839 81.1843 31.8839C81.209 31.8839 81.2619 31.9349 81.3019 31.9974ZM86.5961 31.9974C86.5561 32.0598 86.4705 32.1108 86.4058 32.1108C86.341 32.1108 86.3208 32.0598 86.3608 31.9974C86.4008 31.9349 86.4865 31.8839 86.5512 31.8839C86.6159 31.8839 86.6361 31.9349 86.5961 31.9974ZM14.366 32.1012C14.3294 32.1583 14.366 32.2308 14.4473 32.2625C14.5286 32.294 14.4694 32.324 14.316 32.3289C14.0808 32.3365 14.0599 32.3109 14.1833 32.1676C14.3433 31.9817 14.4727 31.9346 14.366 32.1012ZM53.1427 32.1676C53.1427 32.2269 53.0946 32.2908 53.0359 32.3098C52.977 32.3286 52.9289 32.2647 52.9289 32.1676C52.9289 32.0704 52.977 32.0065 53.0359 32.0254C53.0946 32.0443 53.1427 32.1082 53.1427 32.1676ZM68.416 32.1064C68.6961 32.2772 68.505 32.3134 68.1841 32.1502C68.0219 32.0678 67.9691 32.0008 68.0664 32.0008C68.1635 32.0008 68.3208 32.0483 68.416 32.1064ZM6.30082 32.2243C6.30082 32.2868 6.24788 32.3378 6.18317 32.3378C6.11846 32.3378 6.06552 32.2868 6.06552 32.2243C6.06552 32.1619 6.11846 32.1108 6.18317 32.1108C6.24788 32.1108 6.30082 32.1619 6.30082 32.2243ZM8.17449 32.2768C9.07874 32.7278 9.13486 35.0089 8.25438 35.5267C7.78519 35.8027 7.34978 35.8003 6.97965 35.5194C6.53271 35.1803 6.38706 34.7163 6.43565 33.7872C6.49588 32.6373 6.81483 32.2147 7.68908 32.1263C7.77308 32.1178 7.99155 32.1855 8.17449 32.2768ZM54.9651 32.475C55.4922 32.9343 55.6026 34.167 55.1861 34.944C54.8043 35.6561 53.7426 35.6634 53.3148 34.9568C53.0268 34.4812 53.0168 33.2094 53.2969 32.6869C53.6 32.1214 54.4372 32.0151 54.9651 32.475ZM58.3604 32.2243C58.4004 32.2868 58.377 32.3378 58.3085 32.3378C58.24 32.3378 58.1839 32.2868 58.1839 32.2243C58.1839 32.1619 58.2072 32.1108 58.2358 32.1108C58.2644 32.1108 58.3204 32.1619 58.3604 32.2243ZM13.7303 32.3469C14.0766 32.5256 14.3009 33.1425 14.3009 33.9157C14.3009 35.0856 13.8779 35.7425 13.1244 35.7425C12.3888 35.7425 11.948 35.1062 11.948 34.044C11.948 33.308 12.1826 32.5996 12.5037 32.3662C12.7435 32.1919 13.4097 32.1814 13.7303 32.3469ZM60.2991 32.3366C60.9061 32.6499 61.0921 34.592 60.5789 35.2589C60.2827 35.6441 59.6078 35.836 59.1923 35.6533C58.3146 35.2675 58.16 33.0699 58.9674 32.4574C59.2958 32.2082 59.9377 32.1499 60.2991 32.3366ZM81.2065 32.8769C81.177 32.9861 81.1527 32.8968 81.1527 32.6783C81.1527 32.4598 81.177 32.3705 81.2065 32.4797C81.2361 32.5889 81.2361 32.7677 81.2065 32.8769ZM25.5952 32.5648C25.5952 32.6272 25.5423 32.6783 25.4776 32.6783C25.4129 32.6783 25.3599 32.6272 25.3599 32.5648C25.3599 32.5024 25.4129 32.4513 25.4776 32.4513C25.5423 32.4513 25.5952 32.5024 25.5952 32.5648ZM46.6544 32.5648C46.6544 32.6272 46.6014 32.6783 46.5367 32.6783C46.472 32.6783 46.4191 32.6272 46.4191 32.5648C46.4191 32.5024 46.472 32.4513 46.5367 32.4513C46.6014 32.4513 46.6544 32.5024 46.6544 32.5648ZM68.4782 32.5648C68.5182 32.6272 68.4948 32.6783 68.4263 32.6783C68.3578 32.6783 68.3017 32.6272 68.3017 32.5648C68.3017 32.5024 68.325 32.4513 68.3536 32.4513C68.3822 32.4513 68.4382 32.5024 68.4782 32.5648ZM70.9536 32.6707C70.9111 32.7373 70.8198 32.7918 70.751 32.7918C70.6729 32.7918 70.6819 32.7266 70.7747 32.6188C70.9361 32.4312 71.0802 32.4731 70.9536 32.6707ZM93.9492 32.5014C93.9492 32.5289 93.8962 32.583 93.8315 32.6215C93.7668 32.6601 93.7139 32.6375 93.7139 32.5715C93.7139 32.5054 93.7668 32.4513 93.8315 32.4513C93.8962 32.4513 93.9492 32.4738 93.9492 32.5014ZM81.6111 32.7634C81.7573 32.9434 81.7532 32.9474 81.5666 32.8063C81.4534 32.7206 81.3607 32.6312 81.3607 32.6077C81.3607 32.5143 81.4573 32.5743 81.6111 32.7634ZM11.7127 33.1322C11.7127 33.1947 11.6565 33.2457 11.5881 33.2457C11.5196 33.2457 11.4962 33.1947 11.5362 33.1322C11.5762 33.0698 11.6322 33.0188 11.6608 33.0188C11.6894 33.0188 11.7127 33.0698 11.7127 33.1322ZM83.2094 33.2026C83.6045 33.3049 83.9837 34.1435 83.8788 34.6832C83.7748 35.2181 83.2551 35.7425 82.8291 35.7425C81.9917 35.7425 81.5894 35.0675 81.7137 33.8705C81.7677 33.3499 81.8013 33.2977 82.1255 33.2313C82.6131 33.1316 82.9044 33.1238 83.2094 33.2026ZM35.6822 33.8732C36.2229 34.2385 36.1093 35.5324 35.5174 35.7495C35.0696 35.9137 34.5886 35.8763 34.3056 35.6552C34.1102 35.5026 34.033 35.2888 33.9836 34.7638C33.9242 34.1314 33.942 34.0573 34.195 33.8864C34.5421 33.6518 35.344 33.6448 35.6822 33.8732ZM5.94787 34.0402C5.94787 34.1026 5.92458 34.1536 5.89599 34.1536C5.8674 34.1536 5.8114 34.1026 5.7714 34.0402C5.7314 33.9777 5.75481 33.9267 5.82328 33.9267C5.89176 33.9267 5.94787 33.9777 5.94787 34.0402ZM58.0075 34.0402C58.0475 34.1026 58.024 34.1536 57.9556 34.1536C57.8871 34.1536 57.831 34.1026 57.831 34.0402C57.831 33.9777 57.8543 33.9267 57.8829 33.9267C57.9114 33.9267 57.9675 33.9777 58.0075 34.0402ZM25.0532 34.3332C25.2424 34.8087 25.0138 35.4244 24.5767 35.6165C23.8604 35.9313 23.3599 35.6558 23.3599 34.9464C23.3599 34.621 23.4278 34.4612 23.6214 34.3303C23.9763 34.0905 24.9574 34.0925 25.0532 34.3332ZM46.1258 34.3831C46.3262 34.9924 45.7776 35.7425 45.1315 35.7425C44.7062 35.7425 44.4567 35.5317 44.3626 35.0931C44.2984 34.7943 44.3384 34.675 44.5815 34.4405C44.82 34.2105 44.995 34.1536 45.4646 34.1536C45.949 34.1536 46.0633 34.1932 46.1258 34.3831ZM78.1625 34.6446C78.2116 35.2209 77.9443 35.5982 77.4199 35.6931C76.799 35.8055 76.4195 35.5242 76.4195 34.9519C76.4195 34.3559 76.7393 34.1345 77.5371 34.1782L78.1254 34.2104L78.1625 34.6446ZM93.3404 34.5989C93.405 35.2523 92.9576 35.7425 92.2965 35.7425C91.6812 35.7425 91.3727 34.8232 91.8375 34.3748C92.0308 34.1884 92.2002 34.149 92.6904 34.1762C93.2929 34.2098 93.3027 34.2162 93.3404 34.5989ZM81.1254 34.3806C81.1254 34.443 81.0693 34.4941 81.0008 34.4941C80.9324 34.4941 80.909 34.443 80.949 34.3806C80.989 34.3182 81.045 34.2671 81.0736 34.2671C81.1021 34.2671 81.1254 34.3182 81.1254 34.3806ZM53.0074 34.7211C53.0074 34.7835 52.9841 34.8346 52.9555 34.8346C52.9269 34.8346 52.8709 34.7835 52.8309 34.7211C52.7909 34.6587 52.8143 34.6076 52.8828 34.6076C52.9513 34.6076 53.0074 34.6587 53.0074 34.7211Z" fill="white"/>
</svg>
