<svg width="48" height="48" viewBox="0 0 48 48" fill="none" xmlns="http://www.w3.org/2000/svg">
<path fill-rule="evenodd" clip-rule="evenodd" d="M21.7935 2.90785C21.8334 4.50709 21.8893 11.3447 21.9176 18.1024C21.9459 24.8601 21.9716 30.4813 21.9745 30.5939C21.9811 30.8509 25.3737 30.8917 25.3737 30.6348C25.3737 30.5447 25.5577 30.471 25.7823 30.471C26.1883 30.471 26.1902 30.4643 26.0952 29.3652C26.0427 28.7569 25.9316 27.7661 25.8484 27.1631C25.765 26.5602 25.697 24.9937 25.697 23.6819C25.697 22.2011 25.6357 21.2969 25.5354 21.2969C25.431 21.2969 25.3737 19.413 25.3737 15.9727C25.3737 12.9444 25.4361 10.6485 25.5185 10.6485C25.5982 10.6485 25.7059 8.86067 25.7577 6.67577C25.8098 4.49087 25.8773 2.33447 25.908 1.88396C25.9869 0.726717 25.9366 0.65529 25.0427 0.65529C24.613 0.65529 24.2166 0.58157 24.1616 0.491468C24.1067 0.401365 23.8116 0.327645 23.5056 0.327645C23.1997 0.327645 22.9495 0.253925 22.9495 0.163823C22.9495 0.0737201 22.673 0 22.3352 0H21.7209L21.7935 2.90785ZM17.9394 3.19454C17.9394 4.05379 18.0073 4.75085 18.091 4.75085C18.1742 4.75085 18.2833 5.58029 18.3331 6.59386C18.383 7.60759 18.4978 9.76382 18.5881 11.3857C18.8404 15.9098 18.9455 24.2457 18.7504 24.2457C18.6452 24.2457 18.5859 25.2513 18.5859 27.0307C18.5859 28.7782 18.5256 29.8157 18.4242 29.8157C18.327 29.8157 18.2626 30.4851 18.2626 31.496V33.1762L18.9065 33.38C19.2756 33.4966 20.4136 33.5836 21.5732 33.5836H23.596V32.5257V31.4677L22.3434 31.4199L21.0909 31.372L21.14 29.9795C21.2936 25.6238 21.3206 8.4403 21.1741 8.29188C21.0749 8.19129 21.0101 6.92199 21.0101 5.0785C21.0101 2.92702 20.9531 1.97357 20.8162 1.83481C20.6964 1.71342 20.1086 1.63823 19.2808 1.63823H17.9394V3.19454ZM29.0101 2.6287C28.5657 2.69881 27.8566 2.7627 27.4343 2.77057L26.6667 2.78498V3.76792C26.6667 4.30853 26.5964 4.75085 26.5102 4.75085C26.4157 4.75085 26.3208 6.41889 26.2701 8.96928C26.224 11.2893 26.1458 14.5332 26.0962 16.1775C26.0352 18.2031 26.0604 19.1672 26.1747 19.1672C26.2864 19.1672 26.3434 20.2924 26.3434 22.4928C26.3434 24.3321 26.4108 25.8881 26.4944 25.9741C26.5773 26.0596 26.683 26.83 26.7292 27.686C26.7754 28.542 26.8596 29.6663 26.9165 30.1843L27.0198 31.1263H26.3585C25.9947 31.1263 25.697 31.2 25.697 31.2901C25.697 31.3802 25.3697 31.4539 24.9697 31.4539H24.2424V32.5307V33.6077L25.5758 33.5204C27.7353 33.379 28.7677 33.2357 28.7677 33.0769C28.7677 32.9952 28.972 32.9283 29.2217 32.9283C30.1178 32.9283 30.2473 32.6698 30.0417 31.2901C29.9412 30.6143 29.8253 29.6008 29.7842 29.0375C29.7434 28.4745 29.6433 28.0137 29.562 28.0137C29.4807 28.0137 29.4141 27.3564 29.4141 26.5528C29.4141 25.7495 29.3458 25.0676 29.2624 25.0375C29.1787 25.0073 29.0938 23.8231 29.0731 22.395C29.0526 20.9717 28.9831 19.7744 28.9186 19.7339C28.7491 19.6277 28.7619 14.744 28.9316 14.744C29.0101 14.744 29.1119 13.6936 29.158 12.4096C29.285 8.86706 29.4221 7.20819 29.5876 7.20819C29.67 7.20819 29.7374 6.86318 29.7374 6.44167C29.7374 6.02015 29.8046 5.44874 29.8867 5.17204C30.1277 4.35948 30.3502 2.88688 30.2657 2.66359C30.2227 2.55023 30.1046 2.46717 30.0029 2.47929C29.9013 2.49125 29.4545 2.55858 29.0101 2.6287ZM39.5152 15.2355C39.4602 15.3256 38.9105 15.3993 38.2935 15.3993C37.6533 15.3993 37.1717 15.4696 37.1717 15.5631C37.1717 15.6601 36.5823 15.727 35.7267 15.727C34.9319 15.727 34.2368 15.8007 34.1818 15.8908C34.1241 15.9853 33.2604 16.0546 32.1406 16.0546C30.6735 16.0546 30.1427 16.1118 29.9683 16.2887C29.802 16.4571 29.7374 16.9392 29.7374 18.0088V19.4949H35.6364H41.5354V17.2833V15.0717H40.5752C40.047 15.0717 39.5701 15.1454 39.5152 15.2355ZM8.82537 15.6585C8.62885 16.1778 8.71725 20.102 8.92929 20.2725C9.11063 20.4185 12.4356 20.2621 17.0909 19.8885L18.2626 19.7945V18.1586C18.2626 16.9592 18.201 16.4602 18.0317 16.2887C17.8571 16.1116 17.3253 16.0546 15.8499 16.0546C14.657 16.0546 13.899 15.9909 13.899 15.8908C13.899 15.7925 13.2558 15.727 12.2924 15.727C11.3956 15.727 10.6416 15.6546 10.5859 15.5631C10.4144 15.282 8.9377 15.362 8.82537 15.6585ZM6.21463 19.6177C6.41519 22.4527 6.51055 23.2628 6.64388 23.2628C6.72307 23.2628 6.78788 23.3726 6.78788 23.5067C6.78788 23.7117 7.02675 23.7362 8.28283 23.6606C9.10513 23.6109 9.92323 23.5326 10.101 23.4864C10.6172 23.3524 13.8059 23.0834 15.9596 22.9923L17.9394 22.9085V22.2664C17.9394 21.9134 18.0121 21.6246 18.101 21.6246C18.1899 21.6246 18.2626 21.407 18.2626 21.1413V20.6579L15.7172 20.7389C14.3171 20.7835 12.7717 20.887 12.2828 20.969C11.7939 21.051 10.7103 21.1367 9.87475 21.1595L8.35539 21.2008L8.14449 20.3889C8.02844 19.9421 7.93018 19.3371 7.9263 19.0444L7.91919 18.5119H7.02772H6.1364L6.21463 19.6177ZM29.7374 21.5083V22.8665L31.0707 23.0574C31.804 23.1625 33.0586 23.2556 33.8586 23.2643C34.6586 23.273 35.604 23.3462 35.9596 23.4268C36.3152 23.5074 37.4243 23.6052 38.4242 23.6442L40.2424 23.7149V22.1665C40.2424 21.0432 40.1791 20.554 40.0115 20.3843C39.8214 20.1915 38.8957 20.1502 34.7589 20.1502H29.7374V21.5083ZM0 42.7577C0 44.9419 0.0589899 46.198 0.161616 46.198C0.250505 46.198 0.323232 46.3185 0.323232 46.4658C0.323232 46.8203 1.01236 47.4538 1.72768 47.7567C3.08202 48.3303 4.8118 47.7169 5.45455 46.4353C5.83644 45.6736 5.98141 43.7406 5.65657 43.7406C5.56768 43.7406 5.49495 43.6268 5.49495 43.4875C5.49495 43.2025 4.79208 42.43 4.53253 42.43C4.4396 42.43 4.36364 42.3563 4.36364 42.2662C4.36364 42.1761 4.18618 42.1024 3.96913 42.1024C3.75208 42.1024 3.5297 42.0287 3.47475 41.9386C3.4198 41.8485 3.16105 41.7747 2.89956 41.7747C2.63806 41.7747 2.42424 41.8485 2.42424 41.9386C2.42424 42.0287 2.21382 42.1024 1.95669 42.1024C1.46489 42.1024 1.29293 42.3373 1.29293 43.0088V43.3969L1.95184 43.0979C3.21552 42.5244 4.544 43.2175 4.76897 44.5679C4.89923 45.3489 4.55079 46.3282 4.02424 46.6616C3.8484 46.773 3.31669 46.8744 2.84267 46.887C2.12655 46.9062 1.91564 46.8429 1.59644 46.513C0.930424 45.8251 0.808081 45.1451 0.808081 42.1317V39.3174H0.40404H0V42.7577ZM46.8687 42.3589C46.8687 45.5224 46.8249 45.7658 46.128 46.472C45.8193 46.7851 45.5845 46.8523 44.8154 46.848C43.4253 46.8403 42.9862 46.3601 42.9951 44.8572C42.9991 44.17 43.084 43.8897 43.3977 43.5283C43.915 42.9322 45.1051 42.7511 45.8701 43.1522C46.3796 43.4192 46.3838 43.4182 46.3838 43.0209C46.3838 42.405 46.2177 42.1024 45.8794 42.1024C45.7101 42.1024 45.4298 42.0128 45.2569 41.9033C45.0099 41.7471 44.8254 41.7471 44.399 41.9033C44.1004 42.0128 43.7337 42.1024 43.5845 42.1024C43.4353 42.1024 43.3131 42.1761 43.3131 42.2662C43.3131 42.3563 43.2307 42.43 43.1299 42.43C42.8627 42.43 42.1823 43.2827 42.182 43.6177C42.182 43.7753 42.1091 43.9044 42.0202 43.9044C41.9303 43.9044 41.8586 44.3414 41.8586 44.8874C41.8586 45.4334 41.9303 45.8703 42.0202 45.8703C42.1091 45.8703 42.1818 46.0177 42.1818 46.198C42.1818 46.3782 42.2545 46.5256 42.3434 46.5256C42.4323 46.5256 42.5051 46.6311 42.5051 46.7602C42.5051 47.374 44.4092 48.1353 45.4497 47.9376C46.1445 47.8054 47.3333 46.8942 47.3451 46.4846C47.3498 46.327 47.4263 46.198 47.5152 46.198C47.604 46.198 47.6768 45.9031 47.6768 45.5427C47.6768 45.1823 47.7495 44.8874 47.8384 44.8874C47.9397 44.8874 48 43.8499 48 42.1024V39.3174H47.4343H46.8687V42.3589ZM9.33333 40.2494C8.94497 40.3523 8.97487 40.9927 9.38004 41.2492C9.65188 41.4214 9.75079 41.416 9.9457 41.2184C10.2576 40.9022 10.2468 40.3606 9.92614 40.236C9.78553 40.1812 9.65834 40.145 9.64331 40.1555C9.62844 40.166 9.48897 40.2083 9.33333 40.2494ZM15.7576 41.9386C15.7026 42.0287 15.4802 42.1024 15.2632 42.1024C15.0461 42.1024 14.8687 42.1761 14.8687 42.2662C14.8687 42.3563 14.7494 42.43 14.6036 42.43C14.0388 42.43 13.2524 43.9288 13.2532 45.0037C13.2537 45.7879 13.7175 46.8532 14.0582 46.8532C14.1484 46.8532 14.2222 46.9507 14.2222 47.07C14.2222 47.3889 15.5387 48 16.2261 48C16.8516 48 18.0942 47.4538 18.3066 47.0857C18.3753 46.9668 18.5207 46.7736 18.6298 46.6565C19.29 45.9485 19.3114 44.2072 18.6718 43.2277C18.4443 42.8791 18.1915 42.5939 18.1102 42.5939C18.0289 42.5939 17.8663 42.5018 17.7488 42.3891C17.5013 42.1515 16.5015 41.7747 16.1193 41.7747C15.9753 41.7747 15.8125 41.8485 15.7576 41.9386ZM24 41.9386C23.9451 42.0287 23.759 42.1024 23.5864 42.1024C23.4138 42.1024 23.2727 42.1761 23.2727 42.2662C23.2727 42.3563 23.1273 42.43 22.9495 42.43C22.7341 42.43 22.6263 42.5393 22.6263 42.7577C22.6263 42.9379 22.5535 43.0853 22.4646 43.0853C22.3643 43.0853 22.303 43.99 22.303 45.4716V47.858L22.7475 47.806L23.1919 47.7543L23.2776 45.7065C23.3246 44.5802 23.4167 43.5481 23.4823 43.413C23.5481 43.2778 23.7778 43.0842 23.9929 42.9826C24.5117 42.7379 25.3702 43.2305 25.381 43.7791C25.385 43.9832 25.4033 44.9611 25.4214 45.9522L25.4545 47.7543L25.9798 47.8055L26.5051 47.857L26.5241 46.3311C26.5348 45.492 26.5288 44.7014 26.5112 44.5741C26.431 43.9991 26.7025 43.2629 27.0899 43.0057C27.4327 42.778 27.5837 42.7637 27.9628 42.9228C28.215 43.0286 28.4789 43.2375 28.5493 43.3871C28.6196 43.5365 28.7158 44.5802 28.7628 45.7065L28.8485 47.7543L29.2929 47.806L29.7374 47.858V45.4716C29.7374 43.99 29.6761 43.0853 29.5758 43.0853C29.4869 43.0853 29.4141 42.9379 29.4141 42.7577C29.4141 42.5393 29.3063 42.43 29.0909 42.43C28.9131 42.43 28.7677 42.3563 28.7677 42.2662C28.7677 42.1761 28.6222 42.1024 28.4444 42.1024C28.2667 42.1024 28.1212 42.0287 28.1212 41.9386C28.1212 41.8485 27.9438 41.7747 27.7267 41.7747C27.5097 41.7747 27.2873 41.8485 27.2323 41.9386C27.1774 42.0287 26.9914 42.1024 26.8187 42.1024C26.6461 42.1024 26.5051 42.1761 26.5051 42.2662C26.5051 42.3563 26.2505 42.43 25.9394 42.43C25.6283 42.43 25.3737 42.3681 25.3737 42.2926C25.3737 42.1314 24.6516 41.7747 24.3252 41.7747C24.2012 41.7747 24.0549 41.8485 24 41.9386ZM35.0303 41.9828C34.6971 42.0804 34.4242 42.2208 34.4242 42.295C34.4242 42.3693 34.31 42.43 34.1703 42.43C33.8767 42.43 33.4545 42.8137 33.4545 43.0804C33.4545 43.1808 33.3091 43.4212 33.1313 43.6145C32.8929 43.8738 32.8081 44.1926 32.8081 44.8287C32.8081 46.2184 33.2942 47.0045 34.5577 47.6578C35.345 48.0649 36.1046 48.0931 36.9254 47.7454C38.3187 47.1553 39.3246 45.215 38.2373 45.215C37.8379 45.215 37.4949 45.4984 37.4949 45.8285C37.4949 45.9498 37.3164 46.2299 37.0982 46.4511C36.7717 46.7821 36.5419 46.8532 35.798 46.8532C35.0541 46.8532 34.8242 46.7821 34.4978 46.4511C34.255 46.2052 34.101 45.8605 34.101 45.5638C34.101 45.2969 34.0102 45.0476 33.899 45.0098C33.7406 44.9559 33.7383 44.8556 33.8888 44.5456C33.9943 44.3281 34.1243 43.9914 34.1776 43.7973C34.3816 43.0547 36.2153 42.6307 36.774 43.1971C37.0289 43.4554 37.0271 43.4869 36.7452 43.6964C36.5797 43.8194 35.99 44.1544 35.4343 44.4408C34.4399 44.9536 34.3278 45.0972 34.5223 45.6111C34.6225 45.8757 35.0707 45.9786 35.0707 45.7371C35.0707 45.6637 35.3253 45.5025 35.6364 45.3788C35.9475 45.2552 36.202 45.094 36.202 45.0206C36.202 44.9473 36.3475 44.8874 36.5253 44.8874C36.703 44.8874 36.8485 44.8137 36.8485 44.7236C36.8485 44.6334 36.9939 44.5597 37.1717 44.5597C37.3495 44.5597 37.4949 44.495 37.4949 44.4157C37.4949 44.3366 37.7131 44.1802 37.9798 44.0683C38.42 43.8835 38.6662 43.413 38.3226 43.413C38.2445 43.413 38.0902 43.1918 37.9798 42.9215C37.8694 42.6512 37.6787 42.43 37.5562 42.43C37.4335 42.43 37.3333 42.3647 37.3333 42.2847C37.3333 42.1506 37.1375 42.0896 36.0404 41.882C35.8182 41.8399 35.3637 41.8853 35.0303 41.9828ZM9.0505 44.9693V47.8362H9.61616H10.1818V44.9693V42.1024H9.61616H9.0505V44.9693ZM17.0833 42.9605C17.6236 43.2028 17.9273 43.5543 17.9342 43.9454C17.9371 44.103 18.0121 44.2321 18.101 44.2321C18.1899 44.2321 18.2626 44.6007 18.2626 45.0512C18.2626 45.5017 18.208 45.8708 18.1414 45.8713C18.0748 45.8719 17.8962 46.0931 17.745 46.3628C17.584 46.6495 17.3361 46.8532 17.1484 46.8532C16.9716 46.8532 16.7822 46.927 16.7273 47.0171C16.6723 47.1072 16.4499 47.1809 16.2329 47.1809C16.0158 47.1809 15.8384 47.1072 15.8384 47.0171C15.8384 46.927 15.6575 46.8532 15.4364 46.8532C14.9185 46.8532 14.2222 45.7838 14.2222 44.988C14.2222 44.1543 14.7969 43.1784 15.4082 42.9744C16.1348 42.7318 16.5655 42.7282 17.0833 42.9605Z" fill="white"/>
</svg>
