<svg width="26" height="23" viewBox="0 0 26 23" fill="none" xmlns="http://www.w3.org/2000/svg">
<path d="M13.35 20.2363C14.23 20.1758 15.0983 20.0401 15.955 19.8291C17.0092 20.1345 18.1214 20.2039 19.2075 20.0321C19.2506 20.0266 19.294 20.0234 19.3375 20.0224C19.725 20.0224 20.2337 20.2375 20.975 20.6906V19.9463C20.9752 19.8166 21.0113 19.6893 21.0797 19.5777C21.1481 19.4662 21.2462 19.3744 21.3638 19.3119C21.6863 19.1391 21.9863 18.9373 22.26 18.7174C23.34 17.8438 23.95 16.6801 23.95 15.4476C23.9496 15.0401 23.8825 14.6351 23.7512 14.2478C24.0763 13.6678 24.3413 13.0563 24.535 12.4232C25.16 13.3173 25.4975 14.3686 25.5 15.4476C25.5 17.1224 24.6825 18.686 23.2687 19.8278C23.0322 20.018 22.7839 20.194 22.525 20.3547V22.0971C22.525 22.6964 21.8 23.0396 21.2887 22.6843C20.8051 22.3391 20.3045 22.0165 19.7887 21.7177C19.6405 21.6334 19.4863 21.5591 19.3275 21.4953C18.9025 21.5566 18.47 21.5876 18.03 21.5884C16.265 21.5884 14.6337 21.0833 13.35 20.2363ZM4.0175 16.749C1.7875 14.9486 0.5 12.4884 0.5 9.85668C0.5 4.47476 5.8225 0.173096 12.3212 0.173096C18.82 0.173096 24.1438 4.47476 24.1438 9.85668C24.1438 15.2386 18.82 19.5391 12.3212 19.5391C11.5904 19.5391 10.8704 19.4855 10.1613 19.3783C9.855 19.4472 8.63125 20.1408 6.8675 21.3697C6.23 21.8156 5.3225 21.3854 5.3225 20.635V17.6625C4.86555 17.3893 4.42944 17.0849 4.0175 16.7514M10.205 17.5465C10.2575 17.5465 10.3117 17.5505 10.3675 17.5586C11.0132 17.6621 11.6667 17.7138 12.3212 17.7133C17.8113 17.7133 22.205 14.162 22.205 9.85668C22.205 5.55139 17.8113 2.0013 12.3212 2.0013C6.83375 2.0013 2.4375 5.5526 2.4375 9.85668C2.4375 11.9386 3.46375 13.8986 5.27875 15.3655C5.73708 15.7344 6.23542 16.0651 6.77375 16.3575C7.075 16.5206 7.26125 16.8227 7.26125 17.149V18.8636C8.65625 17.9694 9.57375 17.5465 10.2037 17.5465" fill="black"/>
<path d="M13.35 20.2363C14.23 20.1758 15.0983 20.0401 15.955 19.8291C17.0092 20.1345 18.1214 20.2039 19.2075 20.0321C19.2506 20.0266 19.294 20.0234 19.3375 20.0224C19.725 20.0224 20.2337 20.2375 20.975 20.6906V19.9463C20.9752 19.8166 21.0113 19.6893 21.0797 19.5777C21.1481 19.4662 21.2462 19.3744 21.3638 19.3119C21.6863 19.1391 21.9863 18.9373 22.26 18.7174C23.34 17.8438 23.95 16.6801 23.95 15.4476C23.9496 15.0401 23.8825 14.6351 23.7512 14.2478C24.0763 13.6678 24.3413 13.0563 24.535 12.4232C25.16 13.3173 25.4975 14.3686 25.5 15.4476C25.5 17.1224 24.6825 18.686 23.2687 19.8278C23.0322 20.018 22.7839 20.194 22.525 20.3547V22.0971C22.525 22.6964 21.8 23.0396 21.2887 22.6843C20.8051 22.3391 20.3045 22.0165 19.7887 21.7177C19.6405 21.6334 19.4863 21.5591 19.3275 21.4953C18.9025 21.5566 18.47 21.5876 18.03 21.5884C16.265 21.5884 14.6337 21.0833 13.35 20.2363ZM4.0175 16.749C1.7875 14.9486 0.5 12.4884 0.5 9.85668C0.5 4.47476 5.8225 0.173096 12.3212 0.173096C18.82 0.173096 24.1438 4.47476 24.1438 9.85668C24.1438 15.2386 18.82 19.5391 12.3212 19.5391C11.5904 19.5391 10.8704 19.4855 10.1613 19.3783C9.855 19.4472 8.63125 20.1408 6.8675 21.3697C6.23 21.8156 5.3225 21.3854 5.3225 20.635V17.6625C4.86555 17.3893 4.42944 17.0849 4.0175 16.7514M10.205 17.5465C10.2575 17.5465 10.3117 17.5505 10.3675 17.5586C11.0132 17.6621 11.6667 17.7138 12.3212 17.7133C17.8113 17.7133 22.205 14.162 22.205 9.85668C22.205 5.55139 17.8113 2.0013 12.3212 2.0013C6.83375 2.0013 2.4375 5.5526 2.4375 9.85668C2.4375 11.9386 3.46375 13.8986 5.27875 15.3655C5.73708 15.7344 6.23542 16.0651 6.77375 16.3575C7.075 16.5206 7.26125 16.8227 7.26125 17.149V18.8636C8.65625 17.9694 9.57375 17.5465 10.2037 17.5465" fill="url(#paint0_linear_600_24)"/>
<path d="M7.53125 11.5C7.94565 11.5 8.34308 11.3409 8.6361 11.0576C8.92913 10.7743 9.09375 10.3902 9.09375 9.98957C9.09375 9.58899 8.92913 9.20481 8.6361 8.92155C8.34308 8.63829 7.94565 8.47916 7.53125 8.47916C7.11685 8.47916 6.71942 8.63829 6.4264 8.92155C6.13337 9.20481 5.96875 9.58899 5.96875 9.98957C5.96875 10.3902 6.13337 10.7743 6.4264 11.0576C6.71942 11.3409 7.11685 11.5 7.53125 11.5ZM12.6088 11.5C13.0232 11.5 13.4206 11.3409 13.7136 11.0576C14.0066 10.7743 14.1713 10.3902 14.1713 9.98957C14.1713 9.58899 14.0066 9.20481 13.7136 8.92155C13.4206 8.63829 13.0232 8.47916 12.6088 8.47916C12.1943 8.47916 11.7969 8.63829 11.5039 8.92155C11.2109 9.20481 11.0463 9.58899 11.0463 9.98957C11.0463 10.3902 11.2109 10.7743 11.5039 11.0576C11.7969 11.3409 12.1943 11.5 12.6088 11.5ZM17.6875 11.5012C18.1019 11.5012 18.4993 11.3421 18.7924 11.0588C19.0854 10.7755 19.25 10.3914 19.25 9.99078C19.25 9.59019 19.0854 9.20601 18.7924 8.92276C18.4993 8.6395 18.1019 8.48037 17.6875 8.48037C17.2731 8.48037 16.8757 8.6395 16.5826 8.92276C16.2896 9.20601 16.125 9.59019 16.125 9.99078C16.125 10.3914 16.2896 10.7755 16.5826 11.0588C16.8757 11.3421 17.2731 11.5012 17.6875 11.5012Z" fill="black"/>
<path d="M7.53125 11.5C7.94565 11.5 8.34308 11.3409 8.6361 11.0576C8.92913 10.7743 9.09375 10.3902 9.09375 9.98957C9.09375 9.58899 8.92913 9.20481 8.6361 8.92155C8.34308 8.63829 7.94565 8.47916 7.53125 8.47916C7.11685 8.47916 6.71942 8.63829 6.4264 8.92155C6.13337 9.20481 5.96875 9.58899 5.96875 9.98957C5.96875 10.3902 6.13337 10.7743 6.4264 11.0576C6.71942 11.3409 7.11685 11.5 7.53125 11.5ZM12.6088 11.5C13.0232 11.5 13.4206 11.3409 13.7136 11.0576C14.0066 10.7743 14.1713 10.3902 14.1713 9.98957C14.1713 9.58899 14.0066 9.20481 13.7136 8.92155C13.4206 8.63829 13.0232 8.47916 12.6088 8.47916C12.1943 8.47916 11.7969 8.63829 11.5039 8.92155C11.2109 9.20481 11.0463 9.58899 11.0463 9.98957C11.0463 10.3902 11.2109 10.7743 11.5039 11.0576C11.7969 11.3409 12.1943 11.5 12.6088 11.5ZM17.6875 11.5012C18.1019 11.5012 18.4993 11.3421 18.7924 11.0588C19.0854 10.7755 19.25 10.3914 19.25 9.99078C19.25 9.59019 19.0854 9.20601 18.7924 8.92276C18.4993 8.6395 18.1019 8.48037 17.6875 8.48037C17.2731 8.48037 16.8757 8.6395 16.5826 8.92276C16.2896 9.20601 16.125 9.59019 16.125 9.99078C16.125 10.3914 16.2896 10.7755 16.5826 11.0588C16.8757 11.3421 17.2731 11.5012 17.6875 11.5012Z" fill="url(#paint1_linear_600_24)"/>
<defs>
<linearGradient id="paint0_linear_600_24" x1="-0.865188" y1="32.1568" x2="30.5643" y2="31.9593" gradientUnits="userSpaceOnUse">
<stop stop-color="#8F5E25"/>
<stop offset="0.261057" stop-color="#FBF4A1"/>
<stop offset="0.500202" stop-color="#8F5E25"/>
</linearGradient>
<linearGradient id="paint1_linear_600_24" x1="5.24349" y1="12.7456" x2="21.9306" y2="12.328" gradientUnits="userSpaceOnUse">
<stop stop-color="#8F5E25"/>
<stop offset="0.261057" stop-color="#FBF4A1"/>
<stop offset="0.500202" stop-color="#8F5E25"/>
</linearGradient>
</defs>
</svg>
