<svg width="31" height="31" viewBox="0 0 31 31" fill="none" xmlns="http://www.w3.org/2000/svg">
<path fill-rule="evenodd" clip-rule="evenodd" d="M15.4285 0.71875H15.5715C16.8076 0.71875 17.8375 0.71875 18.6542 0.82875C19.5177 0.94425 20.2974 1.2 20.923 1.82563C21.55 2.45263 21.8057 3.23225 21.9212 4.09437C22.0037 4.69937 22.0244 5.41988 22.0299 6.25313C22.9209 6.282 23.7156 6.33562 24.4224 6.42912C26.0339 6.64637 27.3387 7.10287 28.3686 8.13137C29.3971 9.16125 29.8536 10.4661 30.0709 12.0776C30.2812 13.6451 30.2812 15.6458 30.2812 18.173V18.327C30.2812 20.8542 30.2812 22.8563 30.0709 24.4224C29.8536 26.0339 29.3971 27.3387 28.3686 28.3686C27.3387 29.3971 26.0339 29.8536 24.4224 30.0709C22.8549 30.2812 20.8542 30.2812 18.327 30.2812H12.673C10.1458 30.2812 8.14375 30.2812 6.57763 30.0709C4.96613 29.8536 3.66125 29.3971 2.63138 28.3686C1.60287 27.3387 1.14638 26.0339 0.929125 24.4224C0.71875 22.8549 0.71875 20.8542 0.71875 18.327V18.173C0.71875 15.6458 0.71875 13.6437 0.929125 12.0776C1.14638 10.4661 1.60287 9.16125 2.63138 8.13137C3.66125 7.10287 4.96613 6.64637 6.57763 6.42912C7.37181 6.33182 8.17025 6.27308 8.97013 6.25313C8.97563 5.41988 8.99763 4.69937 9.07875 4.09437C9.19425 3.23225 9.45 2.45263 10.0756 1.82563C10.7026 1.2 11.4823 0.945625 12.3444 0.82875C13.1625 0.71875 14.1938 0.71875 15.4285 0.71875ZM11.034 6.2215C11.5538 6.21875 12.1001 6.21783 12.673 6.21875H18.327C18.8999 6.21875 19.4463 6.21967 19.966 6.2215C19.9605 5.43775 19.9412 4.8465 19.878 4.36937C19.7914 3.7355 19.6442 3.46325 19.4655 3.2845C19.2867 3.10575 19.0145 2.95863 18.3792 2.872C17.7165 2.784 16.8255 2.78125 15.5 2.78125C14.1745 2.78125 13.2835 2.784 12.6194 2.87337C11.9855 2.95862 11.7133 3.10575 11.5345 3.28588C11.3558 3.466 11.2086 3.7355 11.122 4.36937C11.0588 4.84512 11.0395 5.43637 11.034 6.2215ZM6.85125 8.47375C5.468 8.65937 4.6705 9.00863 4.0875 9.59025C3.50725 10.1719 3.158 10.9694 2.97237 12.3526C2.78262 13.7648 2.77988 15.6279 2.77988 18.25C2.77988 20.8721 2.78262 22.7353 2.97237 24.1488C3.158 25.5306 3.50725 26.3281 4.08888 26.9097C4.6705 27.4914 5.468 27.8406 6.85125 28.0263C8.26475 28.216 10.1265 28.2188 12.7486 28.2188H18.2486C20.8707 28.2188 22.7339 28.216 24.1474 28.0263C25.5292 27.8406 26.3268 27.4914 26.9084 26.9097C27.49 26.3281 27.8392 25.5306 28.0249 24.1474C28.2146 22.7352 28.2174 20.8721 28.2174 18.25C28.2174 15.6279 28.2146 13.7661 28.0249 12.3512C27.8392 10.9694 27.49 10.1719 26.9084 9.59025C26.3268 9.00863 25.5293 8.65937 24.146 8.47375C22.7339 8.284 20.8707 8.28125 18.2486 8.28125H12.7486C10.1265 8.28125 8.26613 8.284 6.85125 8.47375ZM15.5 11.7188C15.7735 11.7188 16.0358 11.8274 16.2292 12.0208C16.4226 12.2142 16.5312 12.4765 16.5312 12.75V12.7638C18.0286 13.1405 19.2812 14.3216 19.2812 15.9579C19.2812 16.2314 19.1726 16.4937 18.9792 16.6871C18.7858 16.8805 18.5235 16.9891 18.25 16.9891C17.9765 16.9891 17.7142 16.8805 17.5208 16.6871C17.3274 16.4937 17.2188 16.2314 17.2188 15.9579C17.2188 15.4299 16.633 14.6984 15.5 14.6984C14.367 14.6984 13.7812 15.4299 13.7812 15.9579C13.7812 16.4859 14.367 17.2188 15.5 17.2188C17.4044 17.2188 19.2812 18.5387 19.2812 20.5421C19.2812 22.1784 18.0286 23.3581 16.5312 23.7362V23.75C16.5312 24.0235 16.4226 24.2858 16.2292 24.4792C16.0358 24.6726 15.7735 24.7812 15.5 24.7812C15.2265 24.7812 14.9642 24.6726 14.7708 24.4792C14.5774 24.2858 14.4688 24.0235 14.4688 23.75V23.7362C12.9714 23.3595 11.7188 22.1784 11.7188 20.5421C11.7188 20.2686 11.8274 20.0063 12.0208 19.8129C12.2142 19.6195 12.4765 19.5109 12.75 19.5109C13.0235 19.5109 13.2858 19.6195 13.4792 19.8129C13.6726 20.0063 13.7812 20.2686 13.7812 20.5421C13.7812 21.0701 14.367 21.8016 15.5 21.8016C16.633 21.8016 17.2188 21.0701 17.2188 20.5421C17.2188 20.0141 16.633 19.2812 15.5 19.2812C13.5956 19.2812 11.7188 17.9613 11.7188 15.9579C11.7188 14.3216 12.9714 13.1405 14.4688 12.7638V12.75C14.4688 12.4765 14.5774 12.2142 14.7708 12.0208C14.9642 11.8274 15.2265 11.7188 15.5 11.7188Z" fill="black"/>
<path fill-rule="evenodd" clip-rule="evenodd" d="M15.4285 0.71875H15.5715C16.8076 0.71875 17.8375 0.71875 18.6542 0.82875C19.5177 0.94425 20.2974 1.2 20.923 1.82563C21.55 2.45263 21.8057 3.23225 21.9212 4.09437C22.0037 4.69937 22.0244 5.41988 22.0299 6.25313C22.9209 6.282 23.7156 6.33562 24.4224 6.42912C26.0339 6.64637 27.3387 7.10287 28.3686 8.13137C29.3971 9.16125 29.8536 10.4661 30.0709 12.0776C30.2812 13.6451 30.2812 15.6458 30.2812 18.173V18.327C30.2812 20.8542 30.2812 22.8563 30.0709 24.4224C29.8536 26.0339 29.3971 27.3387 28.3686 28.3686C27.3387 29.3971 26.0339 29.8536 24.4224 30.0709C22.8549 30.2812 20.8542 30.2812 18.327 30.2812H12.673C10.1458 30.2812 8.14375 30.2812 6.57763 30.0709C4.96613 29.8536 3.66125 29.3971 2.63138 28.3686C1.60287 27.3387 1.14638 26.0339 0.929125 24.4224C0.71875 22.8549 0.71875 20.8542 0.71875 18.327V18.173C0.71875 15.6458 0.71875 13.6437 0.929125 12.0776C1.14638 10.4661 1.60287 9.16125 2.63138 8.13137C3.66125 7.10287 4.96613 6.64637 6.57763 6.42912C7.37181 6.33182 8.17025 6.27308 8.97013 6.25313C8.97563 5.41988 8.99763 4.69937 9.07875 4.09437C9.19425 3.23225 9.45 2.45263 10.0756 1.82563C10.7026 1.2 11.4823 0.945625 12.3444 0.82875C13.1625 0.71875 14.1938 0.71875 15.4285 0.71875ZM11.034 6.2215C11.5538 6.21875 12.1001 6.21783 12.673 6.21875H18.327C18.8999 6.21875 19.4463 6.21967 19.966 6.2215C19.9605 5.43775 19.9412 4.8465 19.878 4.36937C19.7914 3.7355 19.6442 3.46325 19.4655 3.2845C19.2867 3.10575 19.0145 2.95863 18.3792 2.872C17.7165 2.784 16.8255 2.78125 15.5 2.78125C14.1745 2.78125 13.2835 2.784 12.6194 2.87337C11.9855 2.95862 11.7133 3.10575 11.5345 3.28588C11.3558 3.466 11.2086 3.7355 11.122 4.36937C11.0588 4.84512 11.0395 5.43637 11.034 6.2215ZM6.85125 8.47375C5.468 8.65937 4.6705 9.00863 4.0875 9.59025C3.50725 10.1719 3.158 10.9694 2.97237 12.3526C2.78262 13.7648 2.77988 15.6279 2.77988 18.25C2.77988 20.8721 2.78262 22.7353 2.97237 24.1488C3.158 25.5306 3.50725 26.3281 4.08888 26.9097C4.6705 27.4914 5.468 27.8406 6.85125 28.0263C8.26475 28.216 10.1265 28.2188 12.7486 28.2188H18.2486C20.8707 28.2188 22.7339 28.216 24.1474 28.0263C25.5292 27.8406 26.3268 27.4914 26.9084 26.9097C27.49 26.3281 27.8392 25.5306 28.0249 24.1474C28.2146 22.7352 28.2174 20.8721 28.2174 18.25C28.2174 15.6279 28.2146 13.7661 28.0249 12.3512C27.8392 10.9694 27.49 10.1719 26.9084 9.59025C26.3268 9.00863 25.5293 8.65937 24.146 8.47375C22.7339 8.284 20.8707 8.28125 18.2486 8.28125H12.7486C10.1265 8.28125 8.26613 8.284 6.85125 8.47375ZM15.5 11.7188C15.7735 11.7188 16.0358 11.8274 16.2292 12.0208C16.4226 12.2142 16.5312 12.4765 16.5312 12.75V12.7638C18.0286 13.1405 19.2812 14.3216 19.2812 15.9579C19.2812 16.2314 19.1726 16.4937 18.9792 16.6871C18.7858 16.8805 18.5235 16.9891 18.25 16.9891C17.9765 16.9891 17.7142 16.8805 17.5208 16.6871C17.3274 16.4937 17.2188 16.2314 17.2188 15.9579C17.2188 15.4299 16.633 14.6984 15.5 14.6984C14.367 14.6984 13.7812 15.4299 13.7812 15.9579C13.7812 16.4859 14.367 17.2188 15.5 17.2188C17.4044 17.2188 19.2812 18.5387 19.2812 20.5421C19.2812 22.1784 18.0286 23.3581 16.5312 23.7362V23.75C16.5312 24.0235 16.4226 24.2858 16.2292 24.4792C16.0358 24.6726 15.7735 24.7812 15.5 24.7812C15.2265 24.7812 14.9642 24.6726 14.7708 24.4792C14.5774 24.2858 14.4688 24.0235 14.4688 23.75V23.7362C12.9714 23.3595 11.7188 22.1784 11.7188 20.5421C11.7188 20.2686 11.8274 20.0063 12.0208 19.8129C12.2142 19.6195 12.4765 19.5109 12.75 19.5109C13.0235 19.5109 13.2858 19.6195 13.4792 19.8129C13.6726 20.0063 13.7812 20.2686 13.7812 20.5421C13.7812 21.0701 14.367 21.8016 15.5 21.8016C16.633 21.8016 17.2188 21.0701 17.2188 20.5421C17.2188 20.0141 16.633 19.2812 15.5 19.2812C13.5956 19.2812 11.7188 17.9613 11.7188 15.9579C11.7188 14.3216 12.9714 13.1405 14.4688 12.7638V12.75C14.4688 12.4765 14.5774 12.2142 14.7708 12.0208C14.9642 11.8274 15.2265 11.7188 15.5 11.7188Z" fill="url(#paint0_linear_634_2854)"/>
<defs>
<linearGradient id="paint0_linear_634_2854" x1="-8.95945" y1="45.0625" x2="36.2869" y2="44.7733" gradientUnits="userSpaceOnUse">
<stop stop-color="#8F5E25"/>
<stop offset="0.5" stop-color="#FBF4A1"/>
<stop offset="1" stop-color="#8F5E25"/>
</linearGradient>
</defs>
</svg>
