<svg width="27" height="25" viewBox="0 0 27 25" fill="none" xmlns="http://www.w3.org/2000/svg">
<path d="M19.5417 11.0561C19.5417 10.638 19.5417 10.4289 19.6046 10.2428C19.787 9.70151 20.2692 9.49247 20.7525 9.27256C21.2938 9.02485 21.5645 8.9016 21.8339 8.87985C22.1384 8.85568 22.4442 8.92093 22.7052 9.06714C23.0507 9.26047 23.2924 9.63022 23.5389 9.92989C24.6784 11.3146 25.2487 12.007 25.4565 12.7695C25.6257 13.3857 25.6257 14.031 25.4565 14.646C25.1532 15.7601 24.1926 16.6929 23.4809 17.5581C23.1172 17.9991 22.9347 18.2203 22.7052 18.3496C22.4397 18.4968 22.1365 18.562 21.8339 18.5368C21.5645 18.5151 21.2938 18.3918 20.7513 18.1441C20.2679 17.9242 19.787 17.7152 19.6046 17.1738C19.5417 16.9878 19.5417 16.7787 19.5417 16.3606V11.0561ZM7.45841 11.0561C7.45841 10.5292 7.44391 10.0568 7.01857 9.68701C6.86391 9.55289 6.65849 9.45985 6.24886 9.27256C5.70632 9.02606 5.43566 8.9016 5.1662 8.87985C4.36024 8.8146 3.92645 9.3656 3.46245 9.9311C2.32178 11.3146 1.75145 12.007 1.54241 12.7707C1.37421 13.3849 1.37421 14.033 1.54241 14.6472C1.84691 15.7601 2.80874 16.6941 3.51924 17.5581C3.96753 18.1018 4.39649 18.5985 5.1662 18.5368C5.43566 18.5151 5.70632 18.3918 6.24886 18.1441C6.6597 17.9581 6.86391 17.8638 7.01857 17.7297C7.44391 17.3599 7.45841 16.8875 7.45841 16.3618V11.0561Z" stroke="black" stroke-width="1.5" stroke-linecap="round" stroke-linejoin="round"/>
<path d="M19.5417 11.0561C19.5417 10.638 19.5417 10.4289 19.6046 10.2428C19.787 9.70151 20.2692 9.49247 20.7525 9.27256C21.2938 9.02485 21.5645 8.9016 21.8339 8.87985C22.1384 8.85568 22.4442 8.92093 22.7052 9.06714C23.0507 9.26047 23.2924 9.63022 23.5389 9.92989C24.6784 11.3146 25.2487 12.007 25.4565 12.7695C25.6257 13.3857 25.6257 14.031 25.4565 14.646C25.1532 15.7601 24.1926 16.6929 23.4809 17.5581C23.1172 17.9991 22.9347 18.2203 22.7052 18.3496C22.4397 18.4968 22.1365 18.562 21.8339 18.5368C21.5645 18.5151 21.2938 18.3918 20.7513 18.1441C20.2679 17.9242 19.787 17.7152 19.6046 17.1738C19.5417 16.9878 19.5417 16.7787 19.5417 16.3606V11.0561ZM7.45841 11.0561C7.45841 10.5292 7.44391 10.0568 7.01857 9.68701C6.86391 9.55289 6.65849 9.45985 6.24886 9.27256C5.70632 9.02606 5.43566 8.9016 5.1662 8.87985C4.36024 8.8146 3.92645 9.3656 3.46245 9.9311C2.32178 11.3146 1.75145 12.007 1.54241 12.7707C1.37421 13.3849 1.37421 14.033 1.54241 14.6472C1.84691 15.7601 2.80874 16.6941 3.51924 17.5581C3.96753 18.1018 4.39649 18.5985 5.1662 18.5368C5.43566 18.5151 5.70632 18.3918 6.24886 18.1441C6.6597 17.9581 6.86391 17.8638 7.01857 17.7297C7.44391 17.3599 7.45841 16.8875 7.45841 16.3618V11.0561Z" stroke="url(#paint0_linear_581_16781)" stroke-width="1.5" stroke-linecap="round" stroke-linejoin="round"/>
<path d="M5.04175 8.875C5.04175 4.87058 8.82866 1.625 13.5001 1.625C18.1715 1.625 21.9584 4.87058 21.9584 8.875M21.9584 18.5417V19.5083C21.9584 21.6435 19.7955 23.375 17.1251 23.375H14.7084" stroke="black" stroke-width="1.5" stroke-linecap="round" stroke-linejoin="round"/>
<path d="M5.04175 8.875C5.04175 4.87058 8.82866 1.625 13.5001 1.625C18.1715 1.625 21.9584 4.87058 21.9584 8.875M21.9584 18.5417V19.5083C21.9584 21.6435 19.7955 23.375 17.1251 23.375H14.7084" stroke="url(#paint1_linear_581_16781)" stroke-width="1.5" stroke-linecap="round" stroke-linejoin="round"/>
<defs>
<linearGradient id="paint0_linear_581_16781" x1="0.0965522" y1="22.5229" x2="30.474" y2="22.0904" gradientUnits="userSpaceOnUse">
<stop stop-color="#8F5E25"/>
<stop offset="0.261057" stop-color="#FBF4A1"/>
<stop offset="0.500202" stop-color="#8F5E25"/>
</linearGradient>
<linearGradient id="paint1_linear_581_16781" x1="4.11797" y1="32.3309" x2="25.3857" y2="32.2367" gradientUnits="userSpaceOnUse">
<stop stop-color="#8F5E25"/>
<stop offset="0.261057" stop-color="#FBF4A1"/>
<stop offset="0.500202" stop-color="#8F5E25"/>
</linearGradient>
</defs>
</svg>
