<svg width="151" height="151" viewBox="0 0 151 151" fill="none" xmlns="http://www.w3.org/2000/svg">
<path d="M56.625 62.9166L77.1233 78.2934C78.3932 79.2458 79.9762 79.683 81.5549 79.5173C83.1336 79.3516 84.5914 78.5953 85.6359 77.4L125.833 31.4583" stroke="black" stroke-width="2" stroke-linecap="round"/>
<path d="M56.625 62.9166L77.1233 78.2934C78.3932 79.2458 79.9762 79.683 81.5549 79.5173C83.1336 79.3516 84.5914 78.5953 85.6359 77.4L125.833 31.4583" stroke="url(#paint0_linear_713_4785)" stroke-width="2" stroke-linecap="round"/>
<path d="M132.125 75.5C132.125 87.3316 128.419 98.8661 121.528 108.483C114.636 118.101 104.905 125.318 93.7013 129.121C82.4975 132.924 70.3839 133.122 59.0618 129.687C47.7397 126.253 37.7778 119.358 30.5754 109.971C23.3731 100.584 19.2919 89.1769 18.9053 77.3515C18.5186 65.5262 21.8458 53.8768 28.4196 44.0395C34.9934 34.2022 44.4835 26.6711 55.5571 22.5041C66.6306 18.3371 78.7313 17.7434 90.1596 20.8065" stroke="black" stroke-width="2" stroke-linecap="round"/>
<path d="M132.125 75.5C132.125 87.3316 128.419 98.8661 121.528 108.483C114.636 118.101 104.905 125.318 93.7013 129.121C82.4975 132.924 70.3839 133.122 59.0618 129.687C47.7397 126.253 37.7778 119.358 30.5754 109.971C23.3731 100.584 19.2919 89.1769 18.9053 77.3515C18.5186 65.5262 21.8458 53.8768 28.4196 44.0395C34.9934 34.2022 44.4835 26.6711 55.5571 22.5041C66.6306 18.3371 78.7313 17.7434 90.1596 20.8065" stroke="url(#paint1_linear_713_4785)" stroke-width="2" stroke-linecap="round"/>
<defs>
<linearGradient id="paint0_linear_713_4785" x1="33.9675" y1="103.598" x2="139.889" y2="102.624" gradientUnits="userSpaceOnUse">
<stop offset="0.214433" stop-color="#8F5E25"/>
<stop offset="0.639613" stop-color="#FBF4A1"/>
<stop offset="0.940006" stop-color="#8F5E25"/>
</linearGradient>
<linearGradient id="paint1_linear_713_4785" x1="-18.2009" y1="188.751" x2="155.132" y2="187.643" gradientUnits="userSpaceOnUse">
<stop offset="0.214433" stop-color="#8F5E25"/>
<stop offset="0.639613" stop-color="#FBF4A1"/>
<stop offset="0.940006" stop-color="#8F5E25"/>
</linearGradient>
</defs>
</svg>
