<svg width="853" height="495" viewBox="0 0 853 495" fill="none" xmlns="http://www.w3.org/2000/svg">
<path d="M214.286 494.35L0.650329 494.35L0.650325 468.3L214.286 468.3C245.057 468.3 269.932 443.248 269.932 412.559L269.932 403.097C269.932 372.276 244.925 347.356 214.286 347.356C192.46 347.356 171.922 338.869 156.517 323.437C141.111 308.005 132.638 287.431 132.638 265.566L132.638 265.177C132.638 243.313 141.111 222.738 156.517 207.306C171.922 191.874 192.46 183.387 214.286 183.387L352.356 183.387C370.185 183.387 384.71 168.836 384.71 150.979C384.709 118.801 410.817 92.6504 442.936 92.6504L646.35 92.6504L646.35 118.7L442.936 118.7C425.107 118.7 410.583 133.251 410.583 151.108C410.583 183.286 384.475 209.437 352.356 209.437L214.416 209.437C183.646 209.437 158.77 234.488 158.77 265.177L158.77 265.566C158.77 296.387 183.777 321.307 214.416 321.307C236.242 321.307 256.78 329.794 272.186 345.226C287.591 360.658 296.064 381.232 296.064 403.097L296.064 412.559C296.064 434.423 287.592 454.997 272.187 470.429C256.651 485.863 236.112 494.35 214.286 494.35Z" fill="#1E1E1E" stroke="url(#paint0_linear_581_17015)" stroke-width="1.30072"/>
<path d="M852.005 13.8462L836.736 27.0419L785.863 27.042C764.997 27.042 747.829 41.7528 747.829 60C747.829 92.6539 717.085 119.35 679.053 119.35L612.747 119.35L627.447 106.646L628.016 106.154L627.447 105.662L612.747 92.9581L679.053 92.9581C699.919 92.9581 717.087 78.2472 717.087 60C717.087 27.3461 747.831 0.650379 785.863 0.650372L836.736 0.650363L852.005 13.8462Z" fill="#1E1E1E" stroke="url(#paint1_linear_581_17015)" stroke-width="1.30072"/>
<path d="M160 274C159.87 273.286 159.87 272.714 159.741 272C159.87 272.714 159.87 273.429 160 274Z" fill="#FDD206"/>
<path d="M159 270C159 269.286 158.87 268.714 158.87 268C159 268.714 159 269.429 159 270Z" fill="#FDD206"/>
<path d="M145.513 249.217L145.049 248.75L144.587 249.219L132.729 261.289C133.874 240.996 142.152 222.137 156.497 207.68C171.881 192.176 192.391 183.65 214.185 183.65L237.962 183.65L284.74 183.65L294.161 183.65L307.084 196.674L294.161 209.697L284.74 209.697L237.962 209.697L214.185 209.697C184.606 209.697 160.346 233.02 158.681 262.487L145.513 249.217Z" fill="#1E1E1E" stroke="url(#paint2_linear_581_17015)" stroke-width="1.30072"/>
<path d="M161.074 279.797C160.816 278.631 160.428 277.465 160.298 276.169C160.557 277.465 160.816 278.631 161.074 279.797Z" fill="#FDD206"/>
<path d="M160.17 275.78C160.04 275.132 159.911 274.613 159.911 273.965C160.04 274.613 160.04 275.261 160.17 275.78Z" fill="#FDD206"/>
<path d="M308.846 196.742L309.304 196.282L308.846 195.823L296.36 183.319L352.533 183.319C370.37 183.319 384.902 168.765 384.902 150.904C384.902 118.72 411.022 92.5627 443.158 92.5627L486.259 92.5627L499.203 105.526L486.259 118.489L443.158 118.489C425.32 118.489 410.789 133.043 410.789 150.904C410.789 183.088 384.668 209.245 352.533 209.245L296.36 209.245L308.846 196.742Z" fill="#1E1E1E" stroke="url(#paint3_linear_581_17015)" stroke-width="1.30072"/>
<path d="M161.183 494.35L0.650665 494.35L0.650661 468.424L161.183 468.424L170.496 468.424L183.564 481.387L170.496 494.35L161.183 494.35Z" fill="#1E1E1E" stroke="url(#paint4_linear_581_17015)" stroke-width="1.30072"/>
<path d="M184.948 481.846L185.407 481.387L184.948 480.927L172.462 468.424L214.523 468.424C244.829 468.424 269.529 444.032 270.191 413.723L283.142 400.754L296.21 413.718C296.012 435.095 287.544 455.181 272.322 470.425C256.909 485.861 236.36 494.35 214.523 494.35L172.462 494.35L184.948 481.846Z" fill="#1E1E1E" stroke="url(#paint5_linear_581_17015)" stroke-width="1.30072"/>
<path d="M294.661 431.471C294.402 432.638 294.143 433.804 293.754 434.971C294.013 433.804 294.272 432.638 294.661 431.471Z" fill="#89A415"/>
<path d="M295.952 411.877L283.469 399.376L283.009 398.915L282.549 399.376L270.065 411.877L270.065 403.077C270.065 372.381 245.178 347.324 214.393 347.324C192.556 347.324 172.007 338.836 156.594 323.4C141.181 307.964 132.704 287.386 132.704 265.516L132.704 265.127L132.704 265.122L132.704 265.117L132.704 265.111L132.704 265.106L132.704 265.101L132.704 265.095L132.704 265.09L132.704 265.085L132.704 265.079L132.704 265.074L132.704 265.069L132.704 265.063L132.704 265.058L132.704 265.053L132.704 265.047L132.704 265.042L132.704 265.036L132.704 265.031L132.704 265.026L132.704 265.02L132.704 265.015L132.704 265.01L132.704 265.004L132.704 264.999L132.704 264.993L132.704 264.988L132.704 264.983L132.704 264.977L132.704 264.972L132.704 264.966L132.704 264.961L132.704 264.956L132.704 264.95L132.704 264.945L132.704 264.939L132.704 264.934L132.704 264.929L132.704 264.923L132.704 264.918L132.704 264.912L132.704 264.907L132.704 264.901L132.704 264.896L132.704 264.891L132.704 264.885L132.704 264.88L132.704 264.874L132.704 264.869L132.704 264.863L132.704 264.858L132.704 264.852L132.704 264.847L132.704 264.842L132.704 264.836L132.704 264.831L132.704 264.825L132.704 264.82L132.704 264.814L132.704 264.809L132.704 264.803L132.704 264.798L132.704 264.792L132.704 264.787L132.704 264.781L132.704 264.776L132.704 264.77L132.704 264.765L132.704 264.759L132.704 264.754L132.704 264.748L132.704 264.743L132.704 264.737L132.704 264.732L132.704 264.726L132.704 264.721L132.704 264.715L132.704 264.71L132.704 264.704L132.704 264.699L132.704 264.693L132.704 264.688L132.704 264.682L132.704 264.677L132.704 264.671L132.704 264.666L132.704 264.66L132.704 264.655L132.704 264.649L132.704 264.644L132.704 264.638L132.704 264.632L132.704 264.627L132.704 264.621L132.704 264.616L132.704 264.61L132.704 264.605L132.704 264.599L132.704 264.594L132.704 264.588L132.704 264.583L132.704 264.577L132.704 264.571L132.704 264.566L132.704 264.56L132.704 264.555L132.704 264.549L132.704 264.544L132.704 264.538L132.704 264.532L132.704 264.527L132.704 264.521L132.704 264.516L132.704 264.51L132.704 264.505L132.704 264.499L132.704 264.493L132.704 264.488L132.704 264.482L132.704 264.477L132.704 264.471L132.704 264.465L132.704 264.46L132.704 264.454L132.704 264.449L132.704 264.443L132.704 264.438L132.704 264.432L132.704 264.426L132.704 264.421L132.704 264.415L132.704 264.409L132.704 264.404L132.704 264.398L132.704 264.393L132.704 264.387L132.704 264.381L132.704 264.376L132.704 264.37L132.704 264.365L132.704 264.359L132.704 264.353L132.704 264.348L132.704 264.342L132.704 264.337L132.704 264.331L132.704 264.325L132.704 264.32L132.704 264.314L132.704 264.308L132.704 264.303L132.704 264.297L132.704 264.291L132.704 264.286L132.704 264.28L132.704 264.275L132.704 264.269L132.704 264.263L132.704 264.258L132.704 264.252L132.704 264.246L132.704 264.241L132.704 264.235L132.704 264.229L132.704 264.224L132.704 264.218L132.704 264.212L132.704 264.207L132.704 264.201L132.704 264.195L132.704 264.19L132.704 264.184L132.704 264.179L132.704 264.173L132.704 264.167L132.704 264.162L132.704 264.156L132.704 264.15L132.704 264.145L132.704 264.139L132.704 264.133L132.704 264.128L132.704 264.122L132.704 264.116L132.704 264.111L132.704 264.105L132.704 264.099L132.704 264.094L132.704 264.088L132.704 264.082L132.704 264.077L132.704 264.071L132.704 264.065L132.704 264.06L132.704 264.054L132.704 264.048L132.704 264.043L132.704 264.037L132.704 264.031L132.704 264.025L132.704 264.02L132.704 264.014L132.704 264.008L132.704 264.003L132.704 263.997L132.704 263.991L132.704 263.986L132.704 263.98L132.704 263.974L132.704 263.969L132.704 263.963L132.704 263.957L132.704 263.952L132.704 263.946L132.704 263.94L132.704 263.935L132.704 263.929L132.704 263.923L132.704 263.917L132.704 263.912L132.704 263.906L132.704 263.9L132.704 263.895L132.704 263.889L132.704 263.883L132.704 263.878L132.704 263.872L132.704 263.866L132.704 263.861L132.704 263.855L132.704 263.849L132.704 263.843L132.704 263.838L132.704 263.832L132.704 263.826L132.704 263.821L132.704 263.815L132.704 263.809L132.704 263.804L132.704 263.798L132.704 263.792L132.704 263.787L132.704 263.781L132.704 263.775L132.704 263.769L132.704 263.764L132.704 263.758L132.704 263.752L132.704 263.747L132.704 263.741L132.704 263.735L132.704 263.73L132.704 263.724L132.704 263.718L132.704 263.712L132.704 263.707L132.704 263.701L132.704 263.695L132.704 263.69L132.704 263.684L132.704 263.678L132.704 263.673L132.704 263.667L132.704 263.661L132.704 263.656L132.704 263.65L132.704 263.644L132.704 263.638L132.704 263.633L132.704 263.627L132.704 263.621L132.704 263.616L132.704 263.61L132.704 263.604L132.704 263.599L132.704 263.593L132.704 263.587L132.704 263.581L132.704 263.576L132.704 263.57L132.704 263.564L132.704 263.559L132.704 263.553L132.704 263.547L132.704 263.542L132.704 263.536L132.704 263.53L132.704 263.525L132.704 263.519L132.704 263.513L132.704 263.507L132.704 263.502L132.704 263.496L132.704 263.49L132.704 263.485L132.704 263.479L132.704 263.473L132.704 263.468L132.704 263.462L132.704 263.456L132.704 263.451L132.704 263.445L132.704 263.439L132.704 263.434L132.704 263.428L132.704 263.422L132.704 263.416L132.704 263.411L132.704 263.405L132.704 263.399L132.704 263.394L132.704 263.388L132.704 263.382L132.704 263.377L132.704 263.371L132.704 263.365L132.704 263.36L132.704 263.354L132.704 263.348L132.704 263.343L132.704 263.337L132.704 263.331L132.704 263.326L132.704 263.32L132.704 263.314L132.704 263.309L132.704 263.303L132.704 263.297L132.704 263.292L132.704 263.286L132.704 263.28L132.704 263.275L132.704 263.269L132.704 263.263L132.704 263.258L132.704 263.252L132.704 263.246L132.704 263.241L132.704 263.235L132.704 263.229L132.704 263.224L132.704 263.218L132.704 263.212L132.704 263.207L132.704 263.201L132.704 263.195L132.704 263.19L132.704 263.184L132.704 263.178L132.704 263.173L132.704 263.167L132.704 263.161L132.704 263.156L132.704 263.15L132.704 263.145L132.704 263.139L132.704 263.133L132.704 263.128L132.704 263.122L132.704 263.116L132.704 263.111L132.704 263.105L132.704 263.099L132.704 263.094L132.704 263.088L132.704 263.083L132.704 263.077L132.704 263.071L132.704 263.066L132.704 263.06L132.704 263.054L132.704 263.049L132.704 263.043L132.704 263.038L132.704 263.032L132.704 263.026L132.704 263.021L132.704 263.015L132.704 263.01L132.704 263.004L132.704 262.998L132.704 262.993L132.704 262.987L132.704 262.981L132.704 262.976L132.704 262.97L132.704 262.965L132.704 262.959L132.704 262.953L132.704 262.948L132.704 262.942L132.704 262.937L132.704 262.931L132.704 262.925L132.704 262.92L132.704 262.914L132.704 262.909L132.704 262.903L132.704 262.898L132.704 262.892L132.704 262.886L132.704 262.881L132.704 262.875L132.704 262.87L132.704 262.864L132.704 262.859L132.704 262.853L132.704 262.847L132.704 262.842L132.704 262.836L132.704 262.831L132.704 262.825L132.704 262.82L132.704 262.814L132.704 262.809L132.704 262.803L132.704 262.797L132.704 262.792L132.704 262.786L132.704 262.781L132.704 262.775L132.704 262.77L132.704 262.764L132.704 262.759L132.704 262.753L132.704 262.748L132.704 262.742L132.704 262.736L132.704 262.731L132.704 262.725L132.704 262.72L132.704 262.714L132.704 262.709L132.704 262.703L132.704 262.698L132.704 262.692L132.704 262.687L132.704 262.681L132.704 262.676L132.704 262.67L132.704 262.665L132.704 262.659L132.704 262.654L132.704 262.648L132.704 262.643L132.704 262.637L132.704 262.632L132.704 262.626L132.704 262.621L132.704 262.615L132.704 262.61L132.704 262.604L132.704 262.599L132.704 262.593L132.704 262.588L132.704 262.583L132.704 262.577L132.704 262.572L132.704 262.566L132.704 262.561L132.704 262.555L132.704 262.55L132.704 262.544L132.704 262.544L145.129 250.1L158.72 263.711L158.72 263.713L158.72 263.716L158.72 263.719L158.72 263.723L158.72 263.726L158.72 263.729L158.72 263.732L158.72 263.736L158.72 263.739L158.72 263.742L158.72 263.745L158.72 263.749L158.72 263.752L158.72 263.755L158.72 263.759L158.72 263.762L158.72 263.765L158.72 263.768L158.72 263.772L158.72 263.775L158.72 263.778L158.72 263.782L158.72 263.785L158.72 263.788L158.72 263.791L158.72 263.795L158.72 263.798L158.72 263.801L158.72 263.805L158.72 263.808L158.72 263.811L158.72 263.815L158.72 263.818L158.72 263.821L158.72 263.824L158.72 263.828L158.72 263.831L158.72 263.834L158.72 263.838L158.72 263.841L158.72 263.844L158.72 263.848L158.72 263.851L158.72 263.854L158.72 263.858L158.72 263.861L158.72 263.864L158.72 263.868L158.72 263.871L158.72 263.874L158.72 263.878L158.72 263.881L158.72 263.884L158.72 263.888L158.72 263.891L158.72 263.894L158.72 263.898L158.72 263.901L158.72 263.904L158.72 263.908L158.72 263.911L158.72 263.914L158.72 263.918L158.72 263.921L158.72 263.924L158.72 263.928L158.72 263.931L158.72 263.935L158.72 263.938L158.72 263.941L158.72 263.945L158.72 263.948L158.72 263.951L158.72 263.955L158.72 263.958L158.72 263.961L158.72 263.965L158.72 263.968L158.72 263.972L158.72 263.975L158.72 263.978L158.72 263.982L158.72 263.985L158.72 263.988L158.72 263.992L158.72 263.995L158.72 263.998L158.72 264.002L158.72 264.005L158.72 264.009L158.72 264.012L158.72 264.015L158.72 264.019L158.72 264.022L158.72 264.026L158.72 264.029L158.72 264.032L158.72 264.036L158.72 264.039L158.72 264.042L158.72 264.046L158.72 264.049L158.72 264.053L158.72 264.056L158.72 264.059L158.72 264.063L158.72 264.066L158.72 264.07L158.72 264.073L158.72 264.076L158.72 264.08L158.72 264.083L158.72 264.087L158.72 264.09L158.72 264.093L158.72 264.097L158.72 264.1L158.72 264.104L158.72 264.107L158.72 264.11L158.72 264.114L158.72 264.117L158.72 264.121L158.72 264.124L158.72 264.127L158.72 264.131L158.72 264.134L158.72 264.138L158.72 264.141L158.72 264.144L158.72 264.148L158.72 264.151L158.72 264.155L158.72 264.158L158.72 264.162L158.72 264.165L158.72 264.168L158.72 264.172L158.72 264.175L158.72 264.179L158.72 264.182L158.72 264.185L158.72 264.189L158.72 264.192L158.72 264.196L158.72 264.199L158.72 264.202L158.72 264.206L158.72 264.209L158.72 264.213L158.72 264.216L158.72 264.22L158.72 264.223L158.72 264.226L158.72 264.23L158.72 264.233L158.72 264.237L158.72 264.24L158.72 264.243L158.72 264.247L158.72 264.25L158.72 264.254L158.72 264.257L158.72 264.261L158.72 264.264L158.72 264.267L158.72 264.271L158.72 264.274L158.72 264.278L158.72 264.281L158.72 264.285L158.72 264.288L158.72 264.291L158.72 264.295L158.72 264.298L158.72 264.302L158.72 264.305L158.72 264.308L158.72 264.312L158.72 264.315L158.72 264.319L158.72 264.322L158.72 264.326L158.72 264.329L158.72 264.332L158.72 264.336L158.72 264.339L158.72 264.343L158.72 264.346L158.72 264.349L158.72 264.353L158.72 264.356L158.72 264.36L158.72 264.363L158.72 264.367L158.72 264.37L158.72 264.373L158.72 264.377L158.72 264.38L158.72 264.384L158.72 264.387L158.72 264.39L158.72 264.394L158.72 264.397L158.72 264.401L158.72 264.404L158.72 264.407L158.72 264.411L158.72 264.414L158.72 264.418L158.72 264.421L158.72 264.425L158.72 264.428L158.72 264.431L158.72 264.435L158.72 264.438L158.72 264.442L158.72 264.445L158.72 264.448L158.72 264.452L158.72 264.455L158.72 264.459L158.72 264.462L158.72 264.465L158.72 264.469L158.72 264.472L158.72 264.476L158.72 264.479L158.72 264.482L158.72 264.486L158.72 264.489L158.72 264.493L158.72 264.496L158.72 264.499L158.72 264.503L158.72 264.506L158.72 264.51L158.72 264.513L158.72 264.516L158.72 264.52L158.72 264.523L158.72 264.527L158.72 264.53L158.72 264.533L158.72 264.537L158.72 264.54L158.72 264.543L158.72 264.547L158.72 264.55L158.72 264.554L158.72 264.557L158.72 264.56L158.72 264.564L158.72 264.567L158.72 264.571L158.72 264.574L158.72 264.577L158.72 264.581L158.72 264.584L158.72 264.587L158.72 264.591L158.72 264.594L158.72 264.598L158.72 264.601L158.72 264.604L158.72 264.608L158.72 264.611L158.72 264.614L158.72 264.618L158.72 264.621L158.72 264.624L158.72 264.628L158.72 264.631L158.72 264.634L158.72 264.638L158.72 264.641L158.72 264.645L158.72 264.648L158.72 264.651L158.72 264.655L158.72 264.658L158.72 264.661L158.72 264.665L158.72 264.668L158.72 264.671L158.72 264.675L158.72 264.678L158.72 264.681L158.72 264.685L158.72 264.688L158.72 264.691L158.72 264.695L158.72 264.698L158.72 264.701L158.72 264.705L158.72 264.708L158.72 264.711L158.72 264.715L158.72 264.718L158.72 264.721L158.72 264.725L158.72 264.728L158.72 264.731L158.72 264.735L158.72 264.738L158.72 264.741L158.72 264.745L158.72 264.748L158.72 264.751L158.72 264.754L158.72 264.758L158.72 264.761L158.72 264.764L158.72 264.768L158.72 264.771L158.72 264.774L158.72 264.778L158.72 264.781L158.72 264.784L158.72 264.787L158.72 264.791L158.72 264.794L158.72 264.797L158.72 264.801L158.72 264.804L158.72 264.807L158.72 264.81L158.72 264.814L158.72 264.817L158.72 264.82L158.72 264.824L158.72 264.827L158.72 264.83L158.72 264.833L158.72 264.837L158.72 264.84L158.72 264.843L158.72 264.846L158.72 264.85L158.72 264.853L158.72 264.856L158.72 264.859L158.72 264.863L158.72 264.866L158.72 264.869L158.72 264.872L158.72 264.876L158.72 264.879L158.72 264.882L158.72 264.885L158.72 264.889L158.72 264.892L158.72 264.895L158.72 264.898L158.72 264.901L158.72 264.905L158.72 264.908L158.72 264.911L158.72 264.914L158.72 264.918L158.72 264.921L158.72 264.924L158.72 264.927L158.72 264.93L158.72 264.934L158.72 264.937L158.72 264.94L158.72 264.943L158.72 264.946L158.72 264.95L158.72 264.953L158.72 264.956L158.72 264.959L158.72 264.962L158.72 264.965L158.72 264.969L158.72 264.972L158.72 264.975L158.72 264.978L158.72 264.981L158.72 264.985L158.72 264.988L158.72 264.991L158.72 264.994L158.72 264.997L158.72 265L158.72 265.003L158.72 265.007L158.72 265.01L158.72 265.013L158.72 265.016L158.72 265.019L158.72 265.022L158.72 265.025L158.72 265.029L158.72 265.032L158.72 265.035L158.72 265.038L158.72 265.041L158.72 265.044L158.72 265.047L158.72 265.05L158.72 265.053L158.72 265.057L158.72 265.06L158.72 265.063L158.72 265.066L158.72 265.069L158.72 265.072L158.72 265.075L158.72 265.078L158.72 265.081L158.72 265.084L158.72 265.087L158.72 265.091L158.72 265.094L158.72 265.097L158.72 265.1L158.72 265.103L158.72 265.106L158.72 265.109L158.72 265.112L158.72 265.115L158.72 265.118L158.72 265.121L158.72 265.124L158.72 265.127L158.72 265.516C158.72 296.212 183.607 321.269 214.393 321.269C236.229 321.269 256.777 329.757 272.191 345.192C287.606 360.759 296.081 381.208 295.952 403.203L295.952 403.206L295.952 411.877Z" fill="#1E1E1E" stroke="url(#paint6_linear_581_17015)" stroke-width="1.30072"/>
<path d="M293.367 436.138C293.496 435.879 293.496 435.749 293.626 435.49C293.496 435.749 293.496 436.009 293.367 436.138Z" fill="#89A415"/>
<path d="M295.825 425.507C295.566 426.804 295.437 428.1 295.178 429.396C295.307 428.1 295.566 426.804 295.825 425.507Z" fill="#89A415"/>
<defs>
<linearGradient id="paint0_linear_581_17015" x1="323.5" y1="92.0001" x2="323.5" y2="495" gradientUnits="userSpaceOnUse">
<stop stop-color="#9E7336"/>
<stop offset="0.235" stop-color="#382913"/>
</linearGradient>
<linearGradient id="paint1_linear_581_17015" x1="732" y1="2.11929e-05" x2="732" y2="120" gradientUnits="userSpaceOnUse">
<stop stop-color="#9E7336"/>
<stop offset="0.235" stop-color="#382913"/>
</linearGradient>
<linearGradient id="paint2_linear_581_17015" x1="220" y1="183" x2="220" y2="264" gradientUnits="userSpaceOnUse">
<stop stop-color="#9E7336"/>
<stop offset="0.235" stop-color="#382913"/>
</linearGradient>
<linearGradient id="paint3_linear_581_17015" x1="397.457" y1="91.9123" x2="397.457" y2="209.896" gradientUnits="userSpaceOnUse">
<stop stop-color="#9E7336"/>
<stop offset="0.235" stop-color="#382913"/>
</linearGradient>
<linearGradient id="paint4_linear_581_17015" x1="92.2437" y1="467.773" x2="92.2437" y2="495" gradientUnits="userSpaceOnUse">
<stop stop-color="#9E7336"/>
<stop offset="0.235" stop-color="#382913"/>
</linearGradient>
<linearGradient id="paint5_linear_581_17015" x1="233.878" y1="399.836" x2="233.878" y2="495" gradientUnits="userSpaceOnUse">
<stop stop-color="#9E7336"/>
<stop offset="0.235" stop-color="#382913"/>
</linearGradient>
<linearGradient id="paint6_linear_581_17015" x1="214.329" y1="249.18" x2="214.329" y2="425.507" gradientUnits="userSpaceOnUse">
<stop stop-color="#9E7336"/>
<stop offset="0.235" stop-color="#382913"/>
</linearGradient>
</defs>
</svg>
